<?xml version="1.0" encoding="UTF-8" standalone="no"?>
<!-- Created with Inkscape (http://www.inkscape.org/) -->

<svg
   width="30.48mm"
   height="128.5mm"
   viewBox="0 0 30.479999 128.5"
   version="1.1"
   id="svg5"
   inkscape:version="1.2 (dc2aeda, 2022-05-15)"
   sodipodi:docname="Clock.svg"
   xmlns:inkscape="http://www.inkscape.org/namespaces/inkscape"
   xmlns:sodipodi="http://sodipodi.sourceforge.net/DTD/sodipodi-0.dtd"
   xmlns="http://www.w3.org/2000/svg"
   xmlns:svg="http://www.w3.org/2000/svg">
  <sodipodi:namedview
     id="namedview7"
     pagecolor="#505050"
     bordercolor="#eeeeee"
     borderopacity="1"
     inkscape:showpageshadow="0"
     inkscape:pageopacity="0"
     inkscape:pagecheckerboard="0"
     inkscape:deskcolor="#505050"
     inkscape:document-units="mm"
     showgrid="true"
     inkscape:zoom="0.86413503"
     inkscape:cx="-31.82373"
     inkscape:cy="237.23144"
     inkscape:window-width="1280"
     inkscape:window-height="702"
     inkscape:window-x="0"
     inkscape:window-y="22"
     inkscape:window-maximized="0"
     inkscape:current-layer="layer2">
    <inkscape:grid
       type="xygrid"
       id="grid9"
       dotted="true"
       originx="0"
       originy="0" />
  </sodipodi:namedview>
  <defs
     id="defs2">
    <rect
       x="30"
       y="220"
       width="70.000001"
       height="20.000003"
       id="rect2604" />
    <rect
       x="60"
       y="80"
       width="60.000004"
       height="20.000002"
       id="rect2598" />
    <rect
       x="20"
       y="20"
       width="110"
       height="30"
       id="rect2538" />
    <rect
       x="10"
       y="415"
       width="35"
       height="15"
       id="rect1376" />
    <rect
       x="60"
       y="270"
       width="50"
       height="15"
       id="rect1069" />
    <rect
       x="65"
       y="285"
       width="0"
       height="20"
       id="rect1063" />
    <rect
       x="40"
       y="25"
       width="125"
       height="15.000001"
       id="rect971" />
    <rect
       x="35"
       y="205"
       width="35"
       height="15"
       id="rect289" />
    <rect
       x="35"
       y="215"
       width="45"
       height="15.000003"
       id="rect4066" />
    <rect
       x="30"
       y="155"
       width="15"
       height="15"
       id="rect4027" />
    <rect
       x="25"
       y="115"
       width="15"
       height="20"
       id="rect3988" />
    <rect
       x="40"
       y="20"
       width="80"
       height="20.000002"
       id="rect3982" />
    <rect
       x="55"
       y="255"
       width="50"
       height="15"
       id="rect3974" />
    <rect
       x="50"
       y="45"
       width="55"
       height="15"
       id="rect3918" />
    <rect
       x="25"
       y="10"
       width="105"
       height="15"
       id="rect3300" />
    <rect
       x="90"
       y="330"
       width="40"
       height="20"
       id="rect14743" />
    <rect
       x="90"
       y="230"
       width="40"
       height="20"
       id="rect14737" />
    <rect
       x="80"
       y="70"
       width="80"
       height="30"
       id="rect14629" />
    <rect
       x="50"
       y="30"
       width="140"
       height="40"
       id="rect11770" />
    <rect
       x="70"
       y="30"
       width="180"
       height="30.000002"
       id="rect11015" />
    <rect
       x="-180"
       y="360"
       width="150"
       height="30"
       id="rect10144" />
    <rect
       x="25"
       y="115"
       width="15"
       height="20"
       id="rect3988-1" />
    <rect
       x="30"
       y="155"
       width="15"
       height="15"
       id="rect4027-2" />
    <rect
       x="35"
       y="215"
       width="45"
       height="15.000003"
       id="rect4066-7" />
    <rect
       x="35"
       y="205"
       width="35"
       height="15"
       id="rect289-9" />
    <rect
       x="10"
       y="415"
       width="35"
       height="15"
       id="rect1376-9" />
    <rect
       x="30"
       y="220"
       width="70"
       height="20.000004"
       id="rect2604-7" />
  </defs>
  <g
     inkscape:label="Design"
     inkscape:groupmode="layer"
     id="layer1">
    <rect
       style="fill:#000000;fill-opacity:1;stroke:none;stroke-width:0;stroke-dasharray:none"
       id="rect63"
       width="30.427082"
       height="128.5"
       x="1.4026959e-06"
       y="3.3306691e-15"
       ry="0"
       inkscape:label="background" />
    <g
       aria-label="momentary"
       transform="matrix(0.26458333,0,0,0.26458333,-17.2085,109.77596)"
       id="text11013"
       style="font-size:18.6667px;font-family:'Alt Retro Black';-inkscape-font-specification:'Alt Retro Black, ';white-space:pre;shape-inside:url(#rect11015);fill:#ffffff;stroke-width:0.944882"
       inkscape:label="momentary">
      <path
         d="m 86.669363,43.944025 q 0,0.504001 -0.186667,0.933335 -0.186667,0.429334 -0.522667,0.765335 -0.317334,0.317334 -0.765335,0.504001 -0.429334,0.186667 -0.914668,0.186667 -0.485334,0 -0.933335,-0.186667 -0.429334,-0.186667 -0.765335,-0.504001 -0.317334,-0.336001 -0.504001,-0.765335 -0.186667,-0.429334 -0.186667,-0.933335 v -5.936011 q 0,-0.056 -0.03733,-0.168 -0.01867,-0.130667 -0.07467,-0.242667 -0.03733,-0.07467 -0.112,-0.130667 -0.07467,-0.056 -0.354668,-0.056 -0.298667,0 -0.373334,0.056 -0.07467,0.056 -0.112,0.130667 -0.056,0.112 -0.09333,0.242667 -0.01867,0.130667 -0.01867,0.186667 v 5.917344 q 0,0.504001 -0.186667,0.933335 -0.186667,0.429334 -0.522668,0.765335 -0.317334,0.317334 -0.746668,0.504001 -0.429334,0.186667 -0.933335,0.186667 -0.485334,0 -0.933335,-0.186667 -0.429334,-0.186667 -0.746668,-0.504001 -0.317334,-0.336001 -0.504001,-0.765335 -0.186667,-0.429334 -0.186667,-0.933335 v -5.936011 q -0.01867,-0.056 -0.03733,-0.168 -0.01867,-0.130667 -0.07467,-0.242667 -0.03733,-0.07467 -0.130667,-0.130667 -0.07467,-0.056 -0.354667,-0.056 -0.298667,0 -0.373334,0.056 -0.07467,0.056 -0.112,0.130667 -0.056,0.112 -0.07467,0.242667 -0.01867,0.130667 -0.03733,0.186667 v 5.917344 q 0,0.504001 -0.186667,0.933335 -0.186667,0.429334 -0.522668,0.765335 -0.317334,0.317334 -0.746668,0.504001 -0.429334,0.186667 -0.914668,0.186667 -0.504001,0 -0.933335,-0.186667 Q 71.026669,45.960029 70.690668,45.642695 70.373334,45.306694 70.186667,44.87736 70,44.448026 70,43.944025 v -5.936011 q 0,-0.01867 0.01867,-0.410667 0.03733,-0.410667 0.186667,-1.008002 0.168,-0.597334 0.485334,-1.288002 0.336001,-0.690668 0.933335,-1.269336 0.597334,-0.597334 1.493336,-0.989335 0.914668,-0.392001 2.240004,-0.392001 0.952002,0 1.680003,0.205334 0.728001,0.205334 1.288002,0.560001 0.560001,-0.354667 1.288003,-0.560001 0.728001,-0.205334 1.698669,-0.205334 1.306669,0 2.202671,0.392001 0.914668,0.392001 1.512003,0.989335 0.597334,0.578668 0.914668,1.269336 0.336001,0.690668 0.485334,1.288002 0.168001,0.578668 0.205334,0.989335 0.03733,0.392001 0.03733,0.410668 z"
         style="stroke:#000000"
         id="path11749" />
      <path
         d="m 97.421355,40.97602 q 0,0.03733 -0.03733,0.429334 -0.01867,0.392001 -0.168,0.970668 -0.149333,0.560001 -0.466667,1.232003 -0.317334,0.672001 -0.896002,1.250668 -1.474669,1.47467 -3.78934,1.47467 -2.314671,0 -3.78934,-1.47467 Q 87.696008,44.280026 87.378674,43.608025 87.06134,42.936023 86.912007,42.376022 86.762673,41.797355 86.72534,41.405354 86.70667,41.013353 86.70667,40.97602 v -2.968006 q 0,-0.01867 0.01867,-0.410667 0.03733,-0.410667 0.186667,-1.008002 0.168,-0.597334 0.485334,-1.288002 0.336,-0.690668 0.933335,-1.269336 0.597334,-0.597334 1.493336,-0.989335 0.914668,-0.392001 2.240004,-0.392001 1.306669,0 2.202671,0.392001 0.914668,0.392001 1.512002,0.989335 0.597335,0.578668 0.914669,1.269336 0.336,0.690668 0.485334,1.288002 0.168,0.578668 0.205333,0.989335 0.03733,0.392001 0.03733,0.410668 z"
         style="stroke:#000000"
         id="path11751" />
      <path
         d="m 114.10936,43.944025 q 0,0.504001 -0.18666,0.933335 -0.18667,0.429334 -0.52267,0.765335 -0.31733,0.317334 -0.76534,0.504001 -0.42933,0.186667 -0.91466,0.186667 -0.48534,0 -0.93334,-0.186667 -0.42933,-0.186667 -0.76533,-0.504001 -0.31734,-0.336001 -0.504,-0.765335 -0.18667,-0.429334 -0.18667,-0.933335 v -5.936011 q 0,-0.056 -0.0373,-0.168 -0.0187,-0.130667 -0.0747,-0.242667 -0.0373,-0.07467 -0.112,-0.130667 -0.0747,-0.056 -0.35467,-0.056 -0.29867,0 -0.37333,0.056 -0.0747,0.056 -0.112,0.130667 -0.056,0.112 -0.0933,0.242667 -0.0187,0.130667 -0.0187,0.186667 v 5.917344 q 0,0.504001 -0.18667,0.933335 -0.18667,0.429334 -0.52267,0.765335 -0.31733,0.317334 -0.74667,0.504001 -0.42933,0.186667 -0.93333,0.186667 -0.48534,0 -0.93334,-0.186667 -0.42933,-0.186667 -0.74666,-0.504001 -0.31734,-0.336001 -0.50401,-0.765335 -0.18666,-0.429334 -0.18666,-0.933335 v -5.936011 q -0.0187,-0.056 -0.0373,-0.168 -0.0187,-0.130667 -0.0747,-0.242667 -0.0373,-0.07467 -0.13067,-0.130667 -0.0747,-0.056 -0.35467,-0.056 -0.29866,0 -0.37333,0.056 -0.0747,0.056 -0.112,0.130667 -0.056,0.112 -0.0747,0.242667 -0.0187,0.130667 -0.0373,0.186667 v 5.917344 q 0,0.504001 -0.18667,0.933335 -0.18666,0.429334 -0.52267,0.765335 -0.31733,0.317334 -0.74666,0.504001 -0.42934,0.186667 -0.914672,0.186667 -0.504001,0 -0.933335,-0.186667 -0.429334,-0.186667 -0.765335,-0.504001 -0.317333,-0.336001 -0.504,-0.765335 -0.186667,-0.429334 -0.186667,-0.933335 v -5.936011 q 0,-0.01867 0.01867,-0.410667 0.03733,-0.410667 0.186667,-1.008002 0.168001,-0.597334 0.485334,-1.288002 0.336001,-0.690668 0.933335,-1.269336 0.597335,-0.597334 1.493333,-0.989335 0.91467,-0.392001 2.24,-0.392001 0.95201,0 1.68001,0.205334 0.728,0.205334 1.288,0.560001 0.56,-0.354667 1.288,-0.560001 0.728,-0.205334 1.69867,-0.205334 1.30667,0 2.20267,0.392001 0.91467,0.392001 1.512,0.989335 0.59734,0.578668 0.91467,1.269336 0.336,0.690668 0.48534,1.288002 0.168,0.578668 0.20533,0.989335 0.0373,0.392001 0.0373,0.410668 z"
         style="stroke:#000000"
         id="path11753" />
      <path
         d="m 122.22933,41.573354 q 0.50401,0 0.93334,0.186667 0.42933,0.186667 0.74667,0.522668 0.336,0.317334 0.52267,0.746668 0.18666,0.429334 0.18666,0.914668 0,0.504001 -0.18666,0.933335 -0.18667,0.429334 -0.52267,0.765335 -0.31734,0.317334 -0.74667,0.504001 -0.42933,0.186667 -0.91467,0.186667 h -2.968 q -1.32534,0 -2.24001,-0.448001 -0.896,-0.448001 -1.49333,-1.120002 -0.59734,-0.672001 -0.93334,-1.456003 -0.31733,-0.784001 -0.48533,-1.456002 -0.14934,-0.672001 -0.18667,-1.120002 -0.0187,-0.466668 -0.0187,-0.485335 v -0.765334 -0.728002 q 0,-0.01867 0.0187,-0.466667 0.0373,-0.466668 0.18667,-1.138669 0.168,-0.690668 0.48533,-1.474669 0.336,-0.784002 0.93334,-1.456003 0.59733,-0.672001 1.49333,-1.120002 0.91467,-0.448001 2.24001,-0.448001 h 2.94933 q 0.50401,0 0.93334,0.186667 0.42933,0.186667 0.74667,0.522668 0.336,0.317334 0.52267,0.746668 0.18666,0.429334 0.18666,0.933335 0,0.485334 -0.18666,0.933335 -0.18667,0.429334 -0.52267,0.746668 -0.31734,0.317334 -0.74667,0.504001 -0.42933,0.186667 -0.91467,0.186667 h -1.064 q 0.54133,0.317334 0.87733,0.877335 0.33601,0.541334 0.33601,1.194669 0,0.672001 -0.33601,1.232002 -0.336,0.541334 -0.87733,0.858668 z"
         style="stroke:#000000"
         id="path11755" />
      <path
         d="m 132.98133,32.650671 q 0.504,0 0.93334,0.186667 0.42933,0.186667 0.74666,0.522668 0.336,0.317334 0.52267,0.746668 0.18667,0.429334 0.18667,0.914668 v 8.922683 q 0,0.802668 -0.46667,1.437336 -0.448,0.616001 -1.232,0.858668 -0.37333,0.09333 -0.69067,0.09333 -0.59733,0 -1.12,-0.280001 -0.52267,-0.28 -0.85867,-0.784001 l -1.58667,-2.370671 v 1.045335 q 0,0.504001 -0.18667,0.933335 -0.18666,0.429334 -0.52266,0.765335 -0.31734,0.317334 -0.74667,0.504001 -0.42934,0.186667 -0.91467,0.186667 -0.504,0 -0.93333,-0.186667 -0.42934,-0.186667 -0.76534,-0.504001 -0.31733,-0.336001 -0.504,-0.765335 -0.18667,-0.429334 -0.18667,-0.933335 v -8.922683 q 0,-0.784001 0.448,-1.400002 0.46667,-0.634668 1.25067,-0.877335 0.37334,-0.09333 0.69067,-0.09333 0.59734,0 1.12,0.280001 0.52267,0.28 0.85867,0.784001 l 1.58667,2.370671 v -1.064002 q 0,-0.485334 0.18667,-0.914668 0.18666,-0.429334 0.504,-0.746668 0.31733,-0.336001 0.74667,-0.522668 0.448,-0.186667 0.93333,-0.186667 z"
         style="stroke:#000000"
         id="path11757" />
      <path
         d="m 143.71466,32.650671 q 0.48534,0 0.91467,0.186667 0.448,0.186667 0.76533,0.522668 0.336,0.317334 0.52267,0.746668 0.18667,0.429334 0.18667,0.933335 0,0.485334 -0.18667,0.933335 -0.18667,0.429334 -0.52267,0.746668 -0.31733,0.317334 -0.76533,0.504001 -0.42933,0.186667 -0.91467,0.186667 h -0.59733 v 6.533345 q 0,0.504001 -0.18667,0.933335 -0.18667,0.429334 -0.52267,0.765335 -0.31733,0.317334 -0.74667,0.504001 -0.42933,0.186667 -0.91466,0.186667 -0.50401,0 -0.93334,-0.186667 -0.42933,-0.186667 -0.76533,-0.504001 -0.31734,-0.336001 -0.504,-0.765335 -0.18667,-0.429334 -0.18667,-0.933335 V 37.41068 h -0.57867 q -0.504,0 -0.93333,-0.186667 -0.42934,-0.186667 -0.76534,-0.504001 -0.31733,-0.317334 -0.504,-0.746668 -0.18667,-0.448001 -0.18667,-0.933335 0,-0.504001 0.18667,-0.933335 0.18667,-0.429334 0.504,-0.746668 0.336,-0.336001 0.76534,-0.522668 0.42933,-0.186667 0.93333,-0.186667 h 2.96801 z"
         style="stroke:#000000"
         id="path11759" />
      <path
         d="m 150.52797,32.650671 q 1.30667,0 2.22134,0.448001 0.91467,0.448001 1.512,1.120002 0.59734,0.672001 0.91467,1.456003 0.336,0.784001 0.48534,1.456003 0.168,0.672001 0.18666,1.138668 0.0373,0.448001 0.0373,0.466668 v 2.240004 2.968005 q 0,0.504001 -0.18667,0.933335 -0.18667,0.429334 -0.52267,0.765335 -0.31733,0.317334 -0.76533,0.504001 -0.42934,0.186667 -0.91467,0.186667 -0.48533,0 -0.93334,-0.186667 -0.42933,-0.186667 -0.76533,-0.504001 -0.31733,-0.336001 -0.504,-0.765335 -0.18667,-0.429334 -0.18667,-0.933335 v -0.578668 h -1.176 v 0.578668 q 0,0.504001 -0.18667,0.933335 -0.18666,0.429334 -0.52266,0.765335 -0.31734,0.317334 -0.74667,0.504001 -0.42934,0.186667 -0.91467,0.186667 -0.504,0 -0.93334,-0.186667 -0.42933,-0.186667 -0.76533,-0.504001 -0.31733,-0.336001 -0.504,-0.765335 -0.18667,-0.429334 -0.18667,-0.933335 V 40.97602 38.754682 q 0,-0.01867 0.0187,-0.466667 0.0373,-0.466668 0.18667,-1.138669 0.168,-0.672001 0.48533,-1.456002 0.336,-0.802669 0.93333,-1.47467 0.59734,-0.672001 1.49334,-1.120002 0.91467,-0.448001 2.24,-0.448001 z"
         style="stroke:#000000"
         id="path11761" />
      <path
         d="m 165.81597,40.901353 q 0.37334,0.560001 0.59734,1.306669 0.224,0.746668 0.224,1.736003 0,0.504001 -0.18667,0.933335 -0.18667,0.429334 -0.52267,0.765335 -0.31733,0.317334 -0.76533,0.504001 -0.42933,0.186667 -0.91467,0.186667 -0.48533,0 -0.93333,-0.186667 -0.42934,-0.186667 -0.76534,-0.504001 -0.31733,-0.336001 -0.504,-0.765335 -0.18667,-0.429334 -0.18667,-0.933335 0,-0.28 -0.056,-0.354667 -0.0373,-0.07467 -0.112,-0.112 -0.13066,-0.07467 -0.26133,-0.09333 -0.13067,-0.01867 -0.168,-0.01867 h -0.57867 v 0.578668 q 0,0.504001 -0.18667,0.933335 -0.18666,0.429334 -0.52266,0.765335 -0.31734,0.317334 -0.74667,0.504001 -0.42934,0.186667 -0.91467,0.186667 -0.504,0 -0.93333,-0.186667 -0.42934,-0.186667 -0.76534,-0.504001 -0.31733,-0.336001 -0.504,-0.765335 -0.18667,-0.429334 -0.18667,-0.933335 v -5.936011 q 0,-0.01867 0.0373,-0.410667 0.0373,-0.410667 0.18666,-1.008002 0.168,-0.597334 0.48534,-1.288002 0.336,-0.690668 0.93333,-1.269336 0.59734,-0.597334 1.49334,-0.989335 0.91467,-0.392001 2.22134,-0.392001 1.288,0 2.184,0.392001 0.896,0.392001 1.49334,0.970669 0.59733,0.578667 0.93333,1.269335 0.336,0.672001 0.504,1.269336 0.168,0.597334 0.20534,0.989335 0.0373,0.392001 0.0373,0.410667 0,0 -0.0187,0.261334 -0.0187,0.261334 -0.0933,0.690668 -0.0747,0.410667 -0.24267,0.952002 -0.168,0.522667 -0.46667,1.045335 z"
         style="stroke:#000000"
         id="path11763" />
      <path
         d="m 174.96263,32.688005 q 0.48534,0 0.91467,0.186667 0.42934,0.186667 0.74667,0.522667 0.336,0.317334 0.52267,0.746668 0.18667,0.429335 0.18667,0.914669 v 2.968005 q 0,0.01867 -0.0187,0.298667 -0.0187,0.261334 -0.112,0.709335 -0.0747,0.429334 -0.26134,0.970668 -0.168,0.541335 -0.504,1.082669 -0.336,0.541334 -0.84,1.026669 -0.504,0.485334 -1.232,0.802668 v 1.045335 q 0,0.485334 -0.18667,0.933335 -0.18666,0.429334 -0.52266,0.746668 -0.31734,0.317334 -0.74667,0.504001 -0.42934,0.186667 -0.91467,0.186667 -0.48534,0 -0.93334,-0.186667 -0.42933,-0.186667 -0.74666,-0.504001 -0.31734,-0.317334 -0.50401,-0.746668 -0.18666,-0.448001 -0.18666,-0.933335 v -1.045335 q -0.728,-0.317334 -1.232,-0.802668 -0.50401,-0.485335 -0.84001,-1.026669 -0.336,-0.541334 -0.52266,-1.082669 -0.168,-0.541334 -0.26134,-0.970668 -0.0747,-0.448001 -0.0933,-0.709335 -0.0187,-0.28 -0.0187,-0.298667 v -2.968005 q 0,-0.485334 0.18667,-0.914669 0.18667,-0.429334 0.504,-0.746668 0.31733,-0.336 0.74667,-0.522667 0.448,-0.186667 0.93333,-0.186667 0.48534,0 0.91467,0.186667 0.448,0.186667 0.76534,0.522667 0.336,0.317334 0.52266,0.746668 0.18667,0.429335 0.18667,0.914669 v 2.949338 q 0,0.01867 0.0187,0.149334 0.0187,0.130667 0.0747,0.261334 0.0373,0.09333 0.112,0.149333 0.0933,0.056 0.37334,0.056 0.29867,0 0.37333,-0.056 0.0747,-0.056 0.112,-0.149333 0.0747,-0.130667 0.0933,-0.261334 0.0187,-0.130667 0.0187,-0.149334 v -2.949338 q 0,-0.485334 0.18667,-0.914669 0.18667,-0.429334 0.504,-0.746668 0.31733,-0.336 0.74667,-0.522667 0.448,-0.186667 0.93333,-0.186667 z"
         style="stroke:#000000"
         id="path11765" />
    </g>
    <g
       aria-label="CLOCK"
       id="text2544"
       style="font-weight:500;font-size:4.23333px;font-family:Futura;-inkscape-font-specification:'Futura Medium';fill:#fcfcff;stroke:#000000;stroke-width:0"
       inkscape:label="Clock">
      <path
         d="m 11.207582,7.0341967 v 0.5705074 q -0.417545,-0.3493324 -0.864029,-0.3493324 -0.4919596,0 -0.8288896,0.3534665 -0.3389971,0.3513994 -0.3389971,0.8598951 0,0.5022945 0.3389971,0.8474928 0.3389971,0.3451982 0.8309566,0.3451982 0.254248,0 0.432014,-0.082682 0.09922,-0.041341 0.204639,-0.111621 0.107487,-0.07028 0.225309,-0.1694985 v 0.5808426 q -0.413411,0.2335768 -0.868163,0.2335768 -0.6841958,0 -1.1678868,-0.4774894 -0.481624,-0.4816239 -0.481624,-1.1616852 0,-0.6097814 0.4030759,-1.0872712 0.4960933,-0.5849768 1.2836419,-0.5849768 0.429947,0 0.830956,0.2335773 z"
         id="path2669" />
      <path
         d="m 12.29692,6.8626311 v 2.7388486 h 0.938443 V 10.054165 H 11.815296 V 6.8626311 Z"
         id="path2671" />
      <path
         d="m 13.402795,8.4439286 q 0,-0.6738601 0.494026,-1.1575511 0.49196,-0.483691 1.182356,-0.483691 0.682128,0 1.169954,0.4878251 0.489892,0.4878251 0.489892,1.1720205 0,0.6883295 -0.49196,1.1678864 -0.494026,0.4816235 -1.192691,0.4816235 -0.618049,0 -1.110008,-0.4278801 -0.541569,-0.4733557 -0.541569,-1.2402333 z m 0.485758,0.0062 q 0,0.5291662 0.355534,0.8702304 0.353466,0.3410641 0.816487,0.3410641 0.502294,0 0.847492,-0.3472653 0.345199,-0.3513994 0.345199,-0.855761 0,-0.5105627 -0.341065,-0.855761 -0.338997,-0.3472653 -0.839224,-0.3472653 -0.49816,0 -0.841292,0.3472653 -0.343131,0.3431312 -0.343131,0.8474928 z"
         id="path2673" />
      <path
         d="m 19.70318,7.0341967 v 0.5705074 q -0.417545,-0.3493324 -0.864029,-0.3493324 -0.49196,0 -0.82889,0.3534665 -0.338997,0.3513994 -0.338997,0.8598951 0,0.5022945 0.338997,0.8474928 0.338997,0.3451982 0.830957,0.3451982 0.254247,0 0.432014,-0.082682 0.09922,-0.041341 0.204639,-0.111621 0.107487,-0.07028 0.225309,-0.1694985 v 0.5808426 q -0.413411,0.2335768 -0.868164,0.2335768 -0.684195,0 -1.167886,-0.4774894 -0.481624,-0.4816239 -0.481624,-1.1616852 0,-0.6097814 0.403076,-1.0872712 0.496093,-0.5849768 1.283641,-0.5849768 0.429948,0 0.830957,0.2335773 z"
         id="path2675" />
      <path
         d="m 20.881401,8.1359373 1.242301,-1.2733062 h 0.642854 l -1.442805,1.4448718 1.451073,1.7466621 H 22.129903 L 20.98062,8.6340977 20.881401,8.7333164 V 10.054165 H 20.399777 V 6.8626311 h 0.481624 z"
         id="path2677" />
    </g>
    <g
       aria-label="tempo"
       transform="matrix(0.26458333,0,0,0.26458333,-4.7625002,1.0583333)"
       id="text2596"
       style="font-weight:500;font-size:13.3333px;font-family:Futura;-inkscape-font-specification:'Futura Medium';white-space:pre;shape-inside:url(#rect2598);fill:#fcfcff;stroke:#000000;stroke-width:0"
       inkscape:label="tempo">
      <path
         d="m 62.43489,86.832268 v 4.973946 h -1.46484 v -4.973946 h -0.624999 v -1.367184 h 0.624999 v -2.324213 h 1.46484 v 2.324213 h 1.13932 v 1.367184 z"
         id="path2658" />
      <path
         d="m 70.462213,88.9807 h -4.544259 q 0.05859,0.781248 0.507811,1.243486 0.449218,0.455728 1.152341,0.455728 0.546873,0 0.904945,-0.260416 0.351562,-0.260416 0.80078,-0.963539 l 1.236976,0.690103 q -0.286458,0.48828 -0.605468,0.839841 -0.319009,0.345051 -0.683592,0.572915 -0.364582,0.221354 -0.787758,0.32552 -0.423176,0.104167 -0.917966,0.104167 -1.419268,0 -2.278641,-0.911456 -0.859372,-0.917967 -0.859372,-2.43489 0,-1.503902 0.833331,-2.43489 0.839841,-0.917966 2.226557,-0.917966 1.399736,0 2.213536,0.891925 0.807289,0.885414 0.807289,2.454421 z m -1.503902,-1.197914 q -0.305989,-1.171872 -1.477861,-1.171872 -0.266927,0 -0.501301,0.08464 -0.234374,0.07813 -0.429686,0.234375 -0.188802,0.149739 -0.325521,0.364582 -0.136718,0.214843 -0.208332,0.48828 z"
         id="path2660" />
      <path
         d="m 72.063771,85.465084 h 1.464841 v 0.585936 q 0.423176,-0.442707 0.722654,-0.598957 0.31901,-0.16276 0.800779,-0.16276 1.074216,0 1.699215,0.937498 0.690102,-0.937498 1.868484,-0.937498 2.141922,0 2.141922,2.59765 v 3.919261 h -1.47135 v -3.522127 q 0,-0.911456 -0.221354,-1.289059 -0.227864,-0.384114 -0.748696,-0.384114 -0.605467,0 -0.885414,0.455728 -0.273437,0.455728 -0.273437,1.46484 v 3.274732 h -1.471351 v -3.502596 q 0,-1.692704 -0.97656,-1.692704 -0.618488,0 -0.904945,0.462239 -0.279947,0.462238 -0.279947,1.458329 v 3.274732 h -1.464841 z"
         id="path2662" />
      <path
         d="M 84.238221,95.256726 H 82.77338 v -9.791642 h 1.464841 v 0.690102 q 0.865883,-0.865883 1.96614,-0.865883 1.308591,0 2.154943,0.963539 0.859373,0.957029 0.859373,2.415359 0,1.425777 -0.852863,2.376296 -0.846352,0.944008 -2.135411,0.944008 -1.113278,0 -1.992182,-0.891925 z m 3.483064,-6.582015 q 0,-0.911456 -0.494791,-1.484371 -0.501301,-0.579426 -1.263017,-0.579426 -0.80729,0 -1.308591,0.559895 -0.501301,0.559894 -0.501301,1.47135 0,0.891925 0.501301,1.471351 0.494791,0.566404 1.30208,0.566404 0.761717,0 1.256507,-0.572915 0.507812,-0.572915 0.507812,-1.432288 z"
         id="path2664" />
      <path
         d="m 90.468672,88.590076 q 0,-1.373695 0.983071,-2.337234 0.98307,-0.963539 2.395827,-0.963539 1.419267,0 2.408848,0.97005 0.97656,0.970049 0.97656,2.382806 0,1.425778 -0.98307,2.389317 -0.989581,0.957029 -2.42838,0.957029 -1.425777,0 -2.389317,-0.97656 -0.963539,-0.963539 -0.963539,-2.421869 z m 1.497392,0.02604 q 0,0.950519 0.507811,1.503903 0.520832,0.559894 1.373695,0.559894 0.859373,0 1.373694,-0.553384 0.514322,-0.553384 0.514322,-1.477861 0,-0.924476 -0.514322,-1.47786 -0.520832,-0.559895 -1.373694,-0.559895 -0.839842,0 -1.360674,0.559895 -0.520832,0.559894 -0.520832,1.445308 z"
         id="path2666" />
    </g>
    <g
       aria-label="clock out"
       transform="matrix(0.26458333,0,0,0.26458333,1.0583334,27.516667)"
       id="text2602-4"
       style="font-weight:500;font-size:13.3333px;font-family:Futura;-inkscape-font-specification:'Futura Medium';white-space:pre;shape-inside:url(#rect2604-7);fill:#fcfcff;stroke:#000000;stroke-width:0"
       inkscape:label="clock out 2">
      <path
         d="m 35.85936,225.73852 v 1.94661 q -0.501301,-0.61198 -0.898435,-0.83984 -0.390624,-0.23438 -0.917966,-0.23438 -0.826821,0 -1.373695,0.57943 -0.546874,0.57943 -0.546874,1.45182 0,0.89192 0.527343,1.46484 0.533853,0.57291 1.360674,0.57291 0.527342,0 0.930987,-0.22786 0.390624,-0.22135 0.917966,-0.85937 v 1.93359 q -0.891925,0.46223 -1.783849,0.46223 -1.471351,0 -2.460932,-0.95051 -0.989581,-0.95703 -0.989581,-2.3763 0,-1.41927 1.002602,-2.39583 1.002602,-0.97656 2.460931,-0.97656 0.937498,0 1.770829,0.44922 z"
         id="path2680" />
      <path
         d="m 38.743468,220.81015 v 10.99606 h -1.46484 v -10.99606 z"
         id="path2682" />
      <path
         d="m 40.299453,228.59008 q 0,-1.3737 0.983071,-2.33724 0.98307,-0.96354 2.395827,-0.96354 1.419267,0 2.408848,0.97005 0.97656,0.97005 0.97656,2.38281 0,1.42578 -0.983071,2.38932 -0.98958,0.95702 -2.428379,0.95702 -1.425777,0 -2.389317,-0.97656 -0.963539,-0.96353 -0.963539,-2.42186 z m 1.497392,0.026 q 0,0.95052 0.507811,1.5039 0.520832,0.55989 1.373695,0.55989 0.859373,0 1.373694,-0.55338 0.514322,-0.55338 0.514322,-1.47786 0,-0.92448 -0.514322,-1.47786 -0.520832,-0.5599 -1.373694,-0.5599 -0.839842,0 -1.360674,0.5599 -0.520832,0.55989 -0.520832,1.44531 z"
         id="path2684" />
      <path
         d="m 53.548117,225.73852 v 1.94661 q -0.501301,-0.61198 -0.898435,-0.83984 -0.390624,-0.23438 -0.917967,-0.23438 -0.82682,0 -1.373694,0.57943 -0.546874,0.57943 -0.546874,1.45182 0,0.89192 0.527343,1.46484 0.533853,0.57291 1.360673,0.57291 0.527343,0 0.930988,-0.22786 0.390624,-0.22135 0.917966,-0.85937 v 1.93359 q -0.891925,0.46223 -1.78385,0.46223 -1.47135,0 -2.460931,-0.95051 -0.989581,-0.95703 -0.989581,-2.3763 0,-1.41927 1.002602,-2.39583 1.002602,-0.97656 2.460931,-0.97656 0.937498,0 1.770829,0.44922 z"
         id="path2686" />
      <path
         d="m 56.777275,220.81015 v 6.70571 l 2.063797,-2.05078 h 1.966141 l -2.753899,2.66276 2.955722,3.67837 h -1.901037 l -2.096349,-2.67577 -0.234375,0.23437 v 2.4414 h -1.46484 v -10.99606 z"
         id="path2688" />
      <path
         d="m 65.768137,228.59008 q 0,-1.3737 0.983071,-2.33724 0.98307,-0.96354 2.395827,-0.96354 1.419267,0 2.408848,0.97005 0.97656,0.97005 0.97656,2.38281 0,1.42578 -0.98307,2.38932 -0.989581,0.95702 -2.42838,0.95702 -1.425777,0 -2.389316,-0.97656 -0.96354,-0.96353 -0.96354,-2.42186 z m 1.497392,0.026 q 0,0.95052 0.507812,1.5039 0.520832,0.55989 1.373694,0.55989 0.859373,0 1.373694,-0.55338 0.514322,-0.55338 0.514322,-1.47786 0,-0.92448 -0.514322,-1.47786 -0.520832,-0.5599 -1.373694,-0.5599 -0.839842,0 -1.360674,0.5599 -0.520832,0.55989 -0.520832,1.44531 z"
         id="path2690" />
      <path
         d="m 75.546761,225.46508 v 3.63932 q 0,1.57551 1.243486,1.57551 1.243487,0 1.243487,-1.57551 v -3.63932 h 1.46484 v 3.67187 q 0,0.76172 -0.188802,1.3151 -0.182291,0.49479 -0.631509,0.89193 -0.742185,0.64452 -1.888016,0.64452 -1.13932,0 -1.881505,-0.64452 -0.455728,-0.39714 -0.64453,-0.89193 -0.182291,-0.44271 -0.182291,-1.3151 v -3.67187 z"
         id="path2692" />
      <path
         d="m 82.85794,226.83227 v 4.97394 H 81.3931 v -4.97394 h -0.624999 v -1.36719 H 81.3931 v -2.32421 h 1.46484 v 2.32421 h 1.13932 v 1.36719 z"
         id="path2694" />
    </g>
    <g
       aria-label="clock out"
       transform="matrix(0.26458333,0,0,0.26458333,0.52916663,3.7041668)"
       id="text2602"
       style="font-weight:500;font-size:13.3333px;font-family:Futura;-inkscape-font-specification:'Futura Medium';white-space:pre;shape-inside:url(#rect2604);fill:#fcfcff;stroke:#000000;stroke-width:0"
       inkscape:label="clock out 1">
      <path
         d="m 35.85936,225.73852 v 1.94661 q -0.501301,-0.61198 -0.898435,-0.83984 -0.390624,-0.23438 -0.917966,-0.23438 -0.826821,0 -1.373695,0.57943 -0.546874,0.57943 -0.546874,1.45182 0,0.89192 0.527343,1.46484 0.533853,0.57291 1.360674,0.57291 0.527342,0 0.930987,-0.22786 0.390624,-0.22135 0.917966,-0.85937 v 1.93359 q -0.891925,0.46223 -1.783849,0.46223 -1.471351,0 -2.460932,-0.95051 -0.989581,-0.95703 -0.989581,-2.3763 0,-1.41927 1.002602,-2.39583 1.002602,-0.97656 2.460931,-0.97656 0.937498,0 1.770829,0.44922 z"
         id="path2641" />
      <path
         d="m 38.743468,220.81015 v 10.99606 h -1.46484 v -10.99606 z"
         id="path2643" />
      <path
         d="m 40.299453,228.59008 q 0,-1.3737 0.983071,-2.33724 0.98307,-0.96354 2.395827,-0.96354 1.419267,0 2.408848,0.97005 0.97656,0.97005 0.97656,2.38281 0,1.42578 -0.983071,2.38932 -0.98958,0.95702 -2.428379,0.95702 -1.425777,0 -2.389317,-0.97656 -0.963539,-0.96353 -0.963539,-2.42186 z m 1.497392,0.026 q 0,0.95052 0.507811,1.5039 0.520832,0.55989 1.373695,0.55989 0.859373,0 1.373694,-0.55338 0.514322,-0.55338 0.514322,-1.47786 0,-0.92448 -0.514322,-1.47786 -0.520832,-0.5599 -1.373694,-0.5599 -0.839842,0 -1.360674,0.5599 -0.520832,0.55989 -0.520832,1.44531 z"
         id="path2645" />
      <path
         d="m 53.548117,225.73852 v 1.94661 q -0.501301,-0.61198 -0.898435,-0.83984 -0.390624,-0.23438 -0.917967,-0.23438 -0.82682,0 -1.373694,0.57943 -0.546874,0.57943 -0.546874,1.45182 0,0.89192 0.527343,1.46484 0.533853,0.57291 1.360673,0.57291 0.527343,0 0.930988,-0.22786 0.390624,-0.22135 0.917966,-0.85937 v 1.93359 q -0.891925,0.46223 -1.78385,0.46223 -1.47135,0 -2.460931,-0.95051 -0.989581,-0.95703 -0.989581,-2.3763 0,-1.41927 1.002602,-2.39583 1.002602,-0.97656 2.460931,-0.97656 0.937498,0 1.770829,0.44922 z"
         id="path2647" />
      <path
         d="m 56.777275,220.81015 v 6.70571 l 2.063797,-2.05078 h 1.966141 l -2.753899,2.66276 2.955722,3.67837 h -1.901037 l -2.096349,-2.67577 -0.234375,0.23437 v 2.4414 h -1.46484 v -10.99606 z"
         id="path2649" />
      <path
         d="m 65.768137,228.59008 q 0,-1.3737 0.983071,-2.33724 0.98307,-0.96354 2.395827,-0.96354 1.419267,0 2.408848,0.97005 0.97656,0.97005 0.97656,2.38281 0,1.42578 -0.98307,2.38932 -0.989581,0.95702 -2.42838,0.95702 -1.425777,0 -2.389316,-0.97656 -0.96354,-0.96353 -0.96354,-2.42186 z m 1.497392,0.026 q 0,0.95052 0.507812,1.5039 0.520832,0.55989 1.373694,0.55989 0.859373,0 1.373694,-0.55338 0.514322,-0.55338 0.514322,-1.47786 0,-0.92448 -0.514322,-1.47786 -0.520832,-0.5599 -1.373694,-0.5599 -0.839842,0 -1.360674,0.5599 -0.520832,0.55989 -0.520832,1.44531 z"
         id="path2651" />
      <path
         d="m 75.546761,225.46508 v 3.63932 q 0,1.57551 1.243486,1.57551 1.243487,0 1.243487,-1.57551 v -3.63932 h 1.46484 v 3.67187 q 0,0.76172 -0.188802,1.3151 -0.182291,0.49479 -0.631509,0.89193 -0.742185,0.64452 -1.888016,0.64452 -1.13932,0 -1.881505,-0.64452 -0.455728,-0.39714 -0.64453,-0.89193 -0.182291,-0.44271 -0.182291,-1.3151 v -3.67187 z"
         id="path2653" />
      <path
         d="m 82.85794,226.83227 v 4.97394 H 81.3931 v -4.97394 h -0.624999 v -1.36719 H 81.3931 v -2.32421 h 1.46484 v 2.32421 h 1.13932 v 1.36719 z"
         id="path2655" />
    </g>
  </g>
  <g
     inkscape:groupmode="layer"
     id="layer2"
     inkscape:label="components"
     style="display:none">
    <circle
       inkscape:label="CLOCK_LED_2"
       r="1.3229166"
       cy="102.82398"
       cx="16.192881"
       id="circle906-5-6"
       style="display:inline;fill:#ff00ff;fill-opacity:1;stroke:none;stroke-width:0.365;stroke-linecap:round;stroke-linejoin:miter;stroke-miterlimit:4;stroke-dasharray:none;stroke-dashoffset:0;stroke-opacity:1" />
    <circle
       inkscape:label="CLOCK_LED_1"
       r="1.3229166"
       cy="79.63958"
       cx="15.874995"
       id="circle906-5"
       style="display:inline;fill:#ff00ff;fill-opacity:1;stroke:none;stroke-width:0.365;stroke-linecap:round;stroke-linejoin:miter;stroke-miterlimit:4;stroke-dasharray:none;stroke-dashoffset:0;stroke-opacity:1" />
    <circle
       r="3.8789234"
       cy="94.016914"
       cx="15.874995"
       id="OUTPUT2-5"
       style="display:inline;fill:#0000ff;fill-opacity:1;stroke:none;stroke-width:6;stroke-linecap:square;stroke-linejoin:miter;stroke-miterlimit:4;stroke-dasharray:48, 6;stroke-dashoffset:0;stroke-opacity:1"
       inkscape:label="CLOCK_OUT_2" />
    <circle
       r="3.8789234"
       style="display:inline;fill:#0000ff;fill-opacity:1;stroke:none;stroke-width:6;stroke-linecap:square;stroke-linejoin:miter;stroke-miterlimit:4;stroke-dasharray:48, 6;stroke-dashoffset:0;stroke-opacity:1"
       id="OUTPUT1-4"
       cx="15.874995"
       cy="70.204414"
       inkscape:label="CLOCK_OUT_1" />
    <ellipse
       style="display:inline;fill:#ff0000;fill-opacity:1;stroke:none;stroke-width:11.6962;stroke-linecap:square;stroke-linejoin:miter;stroke-miterlimit:4;stroke-dasharray:93.5696, 11.6962;stroke-dashoffset:0;stroke-opacity:1"
       id="OUTPUT1-4-9-2"
       cx="15.700238"
       cy="38.893753"
       inkscape:label="TEMPO_KNOB"
       rx="7.348165"
       ry="7.7809105" />
  </g>
</svg>
