<?xml version="1.0" encoding="UTF-8" standalone="no"?>
<!-- Created with Inkscape (http://www.inkscape.org/) -->

<svg
   width="40.639999mm"
   height="128.5mm"
   viewBox="0 0 40.639999 128.5"
   version="1.1"
   id="svg5"
   inkscape:version="1.2 (dc2aeda, 2022-05-15)"
   sodipodi:docname="Compare.svg"
   xmlns:inkscape="http://www.inkscape.org/namespaces/inkscape"
   xmlns:sodipodi="http://sodipodi.sourceforge.net/DTD/sodipodi-0.dtd"
   xmlns="http://www.w3.org/2000/svg"
   xmlns:svg="http://www.w3.org/2000/svg">
  <sodipodi:namedview
     id="namedview7"
     pagecolor="#505050"
     bordercolor="#eeeeee"
     borderopacity="1"
     inkscape:showpageshadow="0"
     inkscape:pageopacity="0"
     inkscape:pagecheckerboard="0"
     inkscape:deskcolor="#505050"
     inkscape:document-units="mm"
     showgrid="true"
     inkscape:zoom="2.0522647"
     inkscape:cx="-43.610358"
     inkscape:cy="146.66724"
     inkscape:window-width="1280"
     inkscape:window-height="702"
     inkscape:window-x="0"
     inkscape:window-y="22"
     inkscape:window-maximized="0"
     inkscape:current-layer="layer1">
    <inkscape:grid
       type="xygrid"
       id="grid9"
       dotted="true"
       originx="0"
       originy="0" />
  </sodipodi:namedview>
  <defs
     id="defs2">
    <rect
       x="35"
       y="205"
       width="35"
       height="15"
       id="rect289" />
    <rect
       x="35"
       y="215"
       width="45.000001"
       height="15.000003"
       id="rect4066" />
    <rect
       x="30"
       y="155"
       width="15"
       height="15"
       id="rect4027" />
    <rect
       x="25"
       y="115"
       width="15"
       height="20"
       id="rect3988" />
    <rect
       x="40"
       y="20"
       width="80.000002"
       height="20.000001"
       id="rect3982" />
    <rect
       x="55"
       y="255"
       width="50"
       height="15"
       id="rect3974" />
    <rect
       x="50"
       y="45"
       width="55"
       height="15"
       id="rect3918" />
    <rect
       x="25"
       y="10"
       width="105"
       height="15"
       id="rect3300" />
    <rect
       x="90"
       y="330"
       width="40"
       height="20"
       id="rect14743" />
    <rect
       x="90"
       y="230"
       width="40"
       height="20"
       id="rect14737" />
    <rect
       x="80"
       y="70"
       width="80"
       height="30"
       id="rect14629" />
    <rect
       x="50"
       y="30"
       width="140"
       height="40"
       id="rect11770" />
    <rect
       x="70"
       y="30"
       width="180"
       height="30.000002"
       id="rect11015" />
    <rect
       x="-180"
       y="360"
       width="150"
       height="30"
       id="rect10144" />
    <rect
       x="25"
       y="115"
       width="15"
       height="20"
       id="rect3988-1" />
    <rect
       x="30"
       y="155"
       width="15"
       height="15"
       id="rect4027-2" />
    <rect
       x="35"
       y="215"
       width="45"
       height="15.000003"
       id="rect4066-7" />
    <rect
       x="35"
       y="205"
       width="35"
       height="15"
       id="rect289-9" />
  </defs>
  <g
     inkscape:label="Design"
     inkscape:groupmode="layer"
     id="layer1">
    <rect
       style="fill:#000000;fill-opacity:1;stroke:none;stroke-width:0;stroke-dasharray:none"
       id="rect63"
       width="40.745834"
       height="128.58749"
       x="6.3578284e-07"
       y="5.0862632e-06"
       ry="0"
       inkscape:label="background" />
    <g
       aria-label="OUT"
       transform="matrix(0.26458333,0,0,0.26458333,0.60771543,49.856667)"
       id="text287-9"
       style="font-weight:500;font-size:13.3333px;font-family:Futura;-inkscape-font-specification:'Futura Medium';white-space:pre;shape-inside:url(#rect289-9);fill:#f9fcfd;stroke:#000000;stroke-width:0"
       inkscape:label="Out 2">
      <path
         d="m 35.703123,211.73461 q 0,-2.12239 1.555986,-3.64582 1.549475,-1.52344 3.723949,-1.52344 2.148432,0 3.684886,1.53646 1.542965,1.53645 1.542965,3.6914 0,2.16796 -1.549475,3.67837 -1.555986,1.51692 -3.756501,1.51692 -1.94661,0 -3.496085,-1.34765 -1.705725,-1.49088 -1.705725,-3.90624 z m 1.529944,0.0195 q 0,1.66667 1.119789,2.74088 1.113279,1.07422 2.571608,1.07422 1.582027,0 2.669264,-1.09375 1.087237,-1.10677 1.087237,-2.69531 0,-1.60806 -1.074216,-2.6953 -1.067706,-1.09375 -2.643222,-1.09375 -1.569007,0 -2.649733,1.09375 -1.080727,1.08073 -1.080727,2.66926 z"
         id="path1054" />
      <path
         d="m 49.635379,206.75416 v 6.05467 q 0,1.29557 0.423176,1.89452 0.631509,0.86589 1.77734,0.86589 1.15234,0 1.783849,-0.86589 0.423176,-0.57942 0.423176,-1.89452 v -6.05467 h 1.516923 v 6.47133 q 0,1.58854 -0.98958,2.61718 -1.113279,1.14583 -2.734368,1.14583 -1.62109,0 -2.727858,-1.14583 -0.989581,-1.02864 -0.989581,-2.61718 v -6.47133 z"
         id="path1056" />
      <path
         d="m 60.742121,208.17993 v 8.62628 h -1.516923 v -8.62628 h -2.311192 v -1.42577 h 6.132797 v 1.42577 z"
         id="path1058" />
    </g>
    <g
       aria-label="momentary"
       transform="matrix(0.26458333,0,0,0.26458333,-11.91683,109.77596)"
       id="text11013"
       style="font-size:18.6667px;font-family:'Alt Retro Black';-inkscape-font-specification:'Alt Retro Black, ';white-space:pre;shape-inside:url(#rect11015);fill:#ffffff;stroke-width:0.944882"
       inkscape:label="momentary">
      <path
         d="m 86.669363,43.944025 q 0,0.504001 -0.186667,0.933335 -0.186667,0.429334 -0.522667,0.765335 -0.317334,0.317334 -0.765335,0.504001 -0.429334,0.186667 -0.914668,0.186667 -0.485334,0 -0.933335,-0.186667 -0.429334,-0.186667 -0.765335,-0.504001 -0.317334,-0.336001 -0.504001,-0.765335 -0.186667,-0.429334 -0.186667,-0.933335 v -5.936011 q 0,-0.056 -0.03733,-0.168 -0.01867,-0.130667 -0.07467,-0.242667 -0.03733,-0.07467 -0.112,-0.130667 -0.07467,-0.056 -0.354668,-0.056 -0.298667,0 -0.373334,0.056 -0.07467,0.056 -0.112,0.130667 -0.056,0.112 -0.09333,0.242667 -0.01867,0.130667 -0.01867,0.186667 v 5.917344 q 0,0.504001 -0.186667,0.933335 -0.186667,0.429334 -0.522668,0.765335 -0.317334,0.317334 -0.746668,0.504001 -0.429334,0.186667 -0.933335,0.186667 -0.485334,0 -0.933335,-0.186667 -0.429334,-0.186667 -0.746668,-0.504001 -0.317334,-0.336001 -0.504001,-0.765335 -0.186667,-0.429334 -0.186667,-0.933335 v -5.936011 q -0.01867,-0.056 -0.03733,-0.168 -0.01867,-0.130667 -0.07467,-0.242667 -0.03733,-0.07467 -0.130667,-0.130667 -0.07467,-0.056 -0.354667,-0.056 -0.298667,0 -0.373334,0.056 -0.07467,0.056 -0.112,0.130667 -0.056,0.112 -0.07467,0.242667 -0.01867,0.130667 -0.03733,0.186667 v 5.917344 q 0,0.504001 -0.186667,0.933335 -0.186667,0.429334 -0.522668,0.765335 -0.317334,0.317334 -0.746668,0.504001 -0.429334,0.186667 -0.914668,0.186667 -0.504001,0 -0.933335,-0.186667 Q 71.026669,45.960029 70.690668,45.642695 70.373334,45.306694 70.186667,44.87736 70,44.448026 70,43.944025 v -5.936011 q 0,-0.01867 0.01867,-0.410667 0.03733,-0.410667 0.186667,-1.008002 0.168,-0.597334 0.485334,-1.288002 0.336001,-0.690668 0.933335,-1.269336 0.597334,-0.597334 1.493336,-0.989335 0.914668,-0.392001 2.240004,-0.392001 0.952002,0 1.680003,0.205334 0.728001,0.205334 1.288002,0.560001 0.560001,-0.354667 1.288003,-0.560001 0.728001,-0.205334 1.698669,-0.205334 1.306669,0 2.202671,0.392001 0.914668,0.392001 1.512003,0.989335 0.597334,0.578668 0.914668,1.269336 0.336001,0.690668 0.485334,1.288002 0.168001,0.578668 0.205334,0.989335 0.03733,0.392001 0.03733,0.410668 z"
         style="stroke:#000000"
         id="path11749" />
      <path
         d="m 97.421355,40.97602 q 0,0.03733 -0.03733,0.429334 -0.01867,0.392001 -0.168,0.970668 -0.149333,0.560001 -0.466667,1.232003 -0.317334,0.672001 -0.896002,1.250668 -1.474669,1.47467 -3.78934,1.47467 -2.314671,0 -3.78934,-1.47467 Q 87.696008,44.280026 87.378674,43.608025 87.06134,42.936023 86.912007,42.376022 86.762673,41.797355 86.72534,41.405354 86.70667,41.013353 86.70667,40.97602 v -2.968006 q 0,-0.01867 0.01867,-0.410667 0.03733,-0.410667 0.186667,-1.008002 0.168,-0.597334 0.485334,-1.288002 0.336,-0.690668 0.933335,-1.269336 0.597334,-0.597334 1.493336,-0.989335 0.914668,-0.392001 2.240004,-0.392001 1.306669,0 2.202671,0.392001 0.914668,0.392001 1.512002,0.989335 0.597335,0.578668 0.914669,1.269336 0.336,0.690668 0.485334,1.288002 0.168,0.578668 0.205333,0.989335 0.03733,0.392001 0.03733,0.410668 z"
         style="stroke:#000000"
         id="path11751" />
      <path
         d="m 114.10936,43.944025 q 0,0.504001 -0.18666,0.933335 -0.18667,0.429334 -0.52267,0.765335 -0.31733,0.317334 -0.76534,0.504001 -0.42933,0.186667 -0.91466,0.186667 -0.48534,0 -0.93334,-0.186667 -0.42933,-0.186667 -0.76533,-0.504001 -0.31734,-0.336001 -0.504,-0.765335 -0.18667,-0.429334 -0.18667,-0.933335 v -5.936011 q 0,-0.056 -0.0373,-0.168 -0.0187,-0.130667 -0.0747,-0.242667 -0.0373,-0.07467 -0.112,-0.130667 -0.0747,-0.056 -0.35467,-0.056 -0.29867,0 -0.37333,0.056 -0.0747,0.056 -0.112,0.130667 -0.056,0.112 -0.0933,0.242667 -0.0187,0.130667 -0.0187,0.186667 v 5.917344 q 0,0.504001 -0.18667,0.933335 -0.18667,0.429334 -0.52267,0.765335 -0.31733,0.317334 -0.74667,0.504001 -0.42933,0.186667 -0.93333,0.186667 -0.48534,0 -0.93334,-0.186667 -0.42933,-0.186667 -0.74666,-0.504001 -0.31734,-0.336001 -0.50401,-0.765335 -0.18666,-0.429334 -0.18666,-0.933335 v -5.936011 q -0.0187,-0.056 -0.0373,-0.168 -0.0187,-0.130667 -0.0747,-0.242667 -0.0373,-0.07467 -0.13067,-0.130667 -0.0747,-0.056 -0.35467,-0.056 -0.29866,0 -0.37333,0.056 -0.0747,0.056 -0.112,0.130667 -0.056,0.112 -0.0747,0.242667 -0.0187,0.130667 -0.0373,0.186667 v 5.917344 q 0,0.504001 -0.18667,0.933335 -0.18666,0.429334 -0.52267,0.765335 -0.31733,0.317334 -0.74666,0.504001 -0.42934,0.186667 -0.914672,0.186667 -0.504001,0 -0.933335,-0.186667 -0.429334,-0.186667 -0.765335,-0.504001 -0.317333,-0.336001 -0.504,-0.765335 -0.186667,-0.429334 -0.186667,-0.933335 v -5.936011 q 0,-0.01867 0.01867,-0.410667 0.03733,-0.410667 0.186667,-1.008002 0.168001,-0.597334 0.485334,-1.288002 0.336001,-0.690668 0.933335,-1.269336 0.597335,-0.597334 1.493333,-0.989335 0.91467,-0.392001 2.24,-0.392001 0.95201,0 1.68001,0.205334 0.728,0.205334 1.288,0.560001 0.56,-0.354667 1.288,-0.560001 0.728,-0.205334 1.69867,-0.205334 1.30667,0 2.20267,0.392001 0.91467,0.392001 1.512,0.989335 0.59734,0.578668 0.91467,1.269336 0.336,0.690668 0.48534,1.288002 0.168,0.578668 0.20533,0.989335 0.0373,0.392001 0.0373,0.410668 z"
         style="stroke:#000000"
         id="path11753" />
      <path
         d="m 122.22933,41.573354 q 0.50401,0 0.93334,0.186667 0.42933,0.186667 0.74667,0.522668 0.336,0.317334 0.52267,0.746668 0.18666,0.429334 0.18666,0.914668 0,0.504001 -0.18666,0.933335 -0.18667,0.429334 -0.52267,0.765335 -0.31734,0.317334 -0.74667,0.504001 -0.42933,0.186667 -0.91467,0.186667 h -2.968 q -1.32534,0 -2.24001,-0.448001 -0.896,-0.448001 -1.49333,-1.120002 -0.59734,-0.672001 -0.93334,-1.456003 -0.31733,-0.784001 -0.48533,-1.456002 -0.14934,-0.672001 -0.18667,-1.120002 -0.0187,-0.466668 -0.0187,-0.485335 v -0.765334 -0.728002 q 0,-0.01867 0.0187,-0.466667 0.0373,-0.466668 0.18667,-1.138669 0.168,-0.690668 0.48533,-1.474669 0.336,-0.784002 0.93334,-1.456003 0.59733,-0.672001 1.49333,-1.120002 0.91467,-0.448001 2.24001,-0.448001 h 2.94933 q 0.50401,0 0.93334,0.186667 0.42933,0.186667 0.74667,0.522668 0.336,0.317334 0.52267,0.746668 0.18666,0.429334 0.18666,0.933335 0,0.485334 -0.18666,0.933335 -0.18667,0.429334 -0.52267,0.746668 -0.31734,0.317334 -0.74667,0.504001 -0.42933,0.186667 -0.91467,0.186667 h -1.064 q 0.54133,0.317334 0.87733,0.877335 0.33601,0.541334 0.33601,1.194669 0,0.672001 -0.33601,1.232002 -0.336,0.541334 -0.87733,0.858668 z"
         style="stroke:#000000"
         id="path11755" />
      <path
         d="m 132.98133,32.650671 q 0.504,0 0.93334,0.186667 0.42933,0.186667 0.74666,0.522668 0.336,0.317334 0.52267,0.746668 0.18667,0.429334 0.18667,0.914668 v 8.922683 q 0,0.802668 -0.46667,1.437336 -0.448,0.616001 -1.232,0.858668 -0.37333,0.09333 -0.69067,0.09333 -0.59733,0 -1.12,-0.280001 -0.52267,-0.28 -0.85867,-0.784001 l -1.58667,-2.370671 v 1.045335 q 0,0.504001 -0.18667,0.933335 -0.18666,0.429334 -0.52266,0.765335 -0.31734,0.317334 -0.74667,0.504001 -0.42934,0.186667 -0.91467,0.186667 -0.504,0 -0.93333,-0.186667 -0.42934,-0.186667 -0.76534,-0.504001 -0.31733,-0.336001 -0.504,-0.765335 -0.18667,-0.429334 -0.18667,-0.933335 v -8.922683 q 0,-0.784001 0.448,-1.400002 0.46667,-0.634668 1.25067,-0.877335 0.37334,-0.09333 0.69067,-0.09333 0.59734,0 1.12,0.280001 0.52267,0.28 0.85867,0.784001 l 1.58667,2.370671 v -1.064002 q 0,-0.485334 0.18667,-0.914668 0.18666,-0.429334 0.504,-0.746668 0.31733,-0.336001 0.74667,-0.522668 0.448,-0.186667 0.93333,-0.186667 z"
         style="stroke:#000000"
         id="path11757" />
      <path
         d="m 143.71466,32.650671 q 0.48534,0 0.91467,0.186667 0.448,0.186667 0.76533,0.522668 0.336,0.317334 0.52267,0.746668 0.18667,0.429334 0.18667,0.933335 0,0.485334 -0.18667,0.933335 -0.18667,0.429334 -0.52267,0.746668 -0.31733,0.317334 -0.76533,0.504001 -0.42933,0.186667 -0.91467,0.186667 h -0.59733 v 6.533345 q 0,0.504001 -0.18667,0.933335 -0.18667,0.429334 -0.52267,0.765335 -0.31733,0.317334 -0.74667,0.504001 -0.42933,0.186667 -0.91466,0.186667 -0.50401,0 -0.93334,-0.186667 -0.42933,-0.186667 -0.76533,-0.504001 -0.31734,-0.336001 -0.504,-0.765335 -0.18667,-0.429334 -0.18667,-0.933335 V 37.41068 h -0.57867 q -0.504,0 -0.93333,-0.186667 -0.42934,-0.186667 -0.76534,-0.504001 -0.31733,-0.317334 -0.504,-0.746668 -0.18667,-0.448001 -0.18667,-0.933335 0,-0.504001 0.18667,-0.933335 0.18667,-0.429334 0.504,-0.746668 0.336,-0.336001 0.76534,-0.522668 0.42933,-0.186667 0.93333,-0.186667 h 2.96801 z"
         style="stroke:#000000"
         id="path11759" />
      <path
         d="m 150.52797,32.650671 q 1.30667,0 2.22134,0.448001 0.91467,0.448001 1.512,1.120002 0.59734,0.672001 0.91467,1.456003 0.336,0.784001 0.48534,1.456003 0.168,0.672001 0.18666,1.138668 0.0373,0.448001 0.0373,0.466668 v 2.240004 2.968005 q 0,0.504001 -0.18667,0.933335 -0.18667,0.429334 -0.52267,0.765335 -0.31733,0.317334 -0.76533,0.504001 -0.42934,0.186667 -0.91467,0.186667 -0.48533,0 -0.93334,-0.186667 -0.42933,-0.186667 -0.76533,-0.504001 -0.31733,-0.336001 -0.504,-0.765335 -0.18667,-0.429334 -0.18667,-0.933335 v -0.578668 h -1.176 v 0.578668 q 0,0.504001 -0.18667,0.933335 -0.18666,0.429334 -0.52266,0.765335 -0.31734,0.317334 -0.74667,0.504001 -0.42934,0.186667 -0.91467,0.186667 -0.504,0 -0.93334,-0.186667 -0.42933,-0.186667 -0.76533,-0.504001 -0.31733,-0.336001 -0.504,-0.765335 -0.18667,-0.429334 -0.18667,-0.933335 V 40.97602 38.754682 q 0,-0.01867 0.0187,-0.466667 0.0373,-0.466668 0.18667,-1.138669 0.168,-0.672001 0.48533,-1.456002 0.336,-0.802669 0.93333,-1.47467 0.59734,-0.672001 1.49334,-1.120002 0.91467,-0.448001 2.24,-0.448001 z"
         style="stroke:#000000"
         id="path11761" />
      <path
         d="m 165.81597,40.901353 q 0.37334,0.560001 0.59734,1.306669 0.224,0.746668 0.224,1.736003 0,0.504001 -0.18667,0.933335 -0.18667,0.429334 -0.52267,0.765335 -0.31733,0.317334 -0.76533,0.504001 -0.42933,0.186667 -0.91467,0.186667 -0.48533,0 -0.93333,-0.186667 -0.42934,-0.186667 -0.76534,-0.504001 -0.31733,-0.336001 -0.504,-0.765335 -0.18667,-0.429334 -0.18667,-0.933335 0,-0.28 -0.056,-0.354667 -0.0373,-0.07467 -0.112,-0.112 -0.13066,-0.07467 -0.26133,-0.09333 -0.13067,-0.01867 -0.168,-0.01867 h -0.57867 v 0.578668 q 0,0.504001 -0.18667,0.933335 -0.18666,0.429334 -0.52266,0.765335 -0.31734,0.317334 -0.74667,0.504001 -0.42934,0.186667 -0.91467,0.186667 -0.504,0 -0.93333,-0.186667 -0.42934,-0.186667 -0.76534,-0.504001 -0.31733,-0.336001 -0.504,-0.765335 -0.18667,-0.429334 -0.18667,-0.933335 v -5.936011 q 0,-0.01867 0.0373,-0.410667 0.0373,-0.410667 0.18666,-1.008002 0.168,-0.597334 0.48534,-1.288002 0.336,-0.690668 0.93333,-1.269336 0.59734,-0.597334 1.49334,-0.989335 0.91467,-0.392001 2.22134,-0.392001 1.288,0 2.184,0.392001 0.896,0.392001 1.49334,0.970669 0.59733,0.578667 0.93333,1.269335 0.336,0.672001 0.504,1.269336 0.168,0.597334 0.20534,0.989335 0.0373,0.392001 0.0373,0.410667 0,0 -0.0187,0.261334 -0.0187,0.261334 -0.0933,0.690668 -0.0747,0.410667 -0.24267,0.952002 -0.168,0.522667 -0.46667,1.045335 z"
         style="stroke:#000000"
         id="path11763" />
      <path
         d="m 174.96263,32.688005 q 0.48534,0 0.91467,0.186667 0.42934,0.186667 0.74667,0.522667 0.336,0.317334 0.52267,0.746668 0.18667,0.429335 0.18667,0.914669 v 2.968005 q 0,0.01867 -0.0187,0.298667 -0.0187,0.261334 -0.112,0.709335 -0.0747,0.429334 -0.26134,0.970668 -0.168,0.541335 -0.504,1.082669 -0.336,0.541334 -0.84,1.026669 -0.504,0.485334 -1.232,0.802668 v 1.045335 q 0,0.485334 -0.18667,0.933335 -0.18666,0.429334 -0.52266,0.746668 -0.31734,0.317334 -0.74667,0.504001 -0.42934,0.186667 -0.91467,0.186667 -0.48534,0 -0.93334,-0.186667 -0.42933,-0.186667 -0.74666,-0.504001 -0.31734,-0.317334 -0.50401,-0.746668 -0.18666,-0.448001 -0.18666,-0.933335 v -1.045335 q -0.728,-0.317334 -1.232,-0.802668 -0.50401,-0.485335 -0.84001,-1.026669 -0.336,-0.541334 -0.52266,-1.082669 -0.168,-0.541334 -0.26134,-0.970668 -0.0747,-0.448001 -0.0933,-0.709335 -0.0187,-0.28 -0.0187,-0.298667 v -2.968005 q 0,-0.485334 0.18667,-0.914669 0.18667,-0.429334 0.504,-0.746668 0.31733,-0.336 0.74667,-0.522667 0.448,-0.186667 0.93333,-0.186667 0.48534,0 0.91467,0.186667 0.448,0.186667 0.76534,0.522667 0.336,0.317334 0.52266,0.746668 0.18667,0.429335 0.18667,0.914669 v 2.949338 q 0,0.01867 0.0187,0.149334 0.0187,0.130667 0.0747,0.261334 0.0373,0.09333 0.112,0.149333 0.0933,0.056 0.37334,0.056 0.29867,0 0.37333,-0.056 0.0747,-0.056 0.112,-0.149333 0.0747,-0.130667 0.0933,-0.261334 0.0187,-0.130667 0.0187,-0.149334 v -2.949338 q 0,-0.485334 0.18667,-0.914669 0.18667,-0.429334 0.504,-0.746668 0.31733,-0.336 0.74667,-0.522667 0.448,-0.186667 0.93333,-0.186667 z"
         style="stroke:#000000"
         id="path11765" />
    </g>
    <g
       aria-label="COMPARE"
       transform="matrix(0.26458333,0,0,0.26458333,-0.52916667,0)"
       id="text3980"
       style="font-weight:500;font-size:16px;font-family:Futura;-inkscape-font-specification:'Futura Medium';white-space:pre;shape-inside:url(#rect3982);fill:#fbfbfb;stroke:#000000;stroke-width:0"
       inkscape:label="Compare">
      <path
         d="m 50.359375,22.75343 v 2.15625 q -1.578125,-1.320313 -3.265625,-1.320313 -1.859375,0 -3.132813,1.335938 -1.28125,1.328125 -1.28125,3.25 0,1.898437 1.28125,3.203125 1.28125,1.304687 3.140625,1.304687 0.960938,0 1.632813,-0.3125 0.375,-0.15625 0.773437,-0.421875 0.40625,-0.265625 0.851563,-0.640625 v 2.195313 q -1.5625,0.882812 -3.28125,0.882812 -2.585938,0 -4.414063,-1.804687 -1.820312,-1.820313 -1.820312,-4.390625 0,-2.304688 1.523437,-4.109375 1.875,-2.210938 4.851563,-2.210938 1.625,0 3.140625,0.882813 z"
         id="path4116" />
      <path
         d="m 51.976562,28.081555 q 0,-2.546875 1.867188,-4.375 1.859375,-1.828125 4.46875,-1.828125 2.578125,0 4.421875,1.84375 1.851562,1.84375 1.851562,4.429687 0,2.601563 -1.859375,4.414063 -1.867187,1.820312 -4.507812,1.820312 -2.335938,0 -4.195313,-1.617187 -2.046875,-1.789063 -2.046875,-4.6875 z m 1.835938,0.02344 q 0,2 1.34375,3.289063 1.335937,1.289062 3.085937,1.289062 1.898438,0 3.203125,-1.3125 Q 62.75,30.042492 62.75,28.136242 q 0,-1.929687 -1.289063,-3.234375 -1.28125,-1.3125 -3.171875,-1.3125 -1.882812,0 -3.179687,1.3125 -1.296875,1.296875 -1.296875,3.203125 z"
         id="path4118" />
      <path
         d="m 66.453125,34.167492 2.539062,-12.96875 4.140625,9.375 4.289063,-9.375 2.28125,12.96875 h -1.867188 l -1.164062,-7.28125 -3.570313,7.835938 -3.46875,-7.84375 -1.296875,7.289062 z"
         id="path4120" />
      <path
         d="m 84.078125,29.269055 v 4.898437 h -1.820313 v -12.0625 h 2.0625 q 1.515625,0 2.289063,0.210938 0.78125,0.210937 1.375,0.796875 1.039062,1.015625 1.039062,2.5625 0,1.65625 -1.109375,2.625 -1.109375,0.96875 -2.992187,0.96875 z m 0,-1.6875 h 0.679687 q 2.507813,0 2.507813,-1.929688 0,-1.867187 -2.585938,-1.867187 h -0.601562 z"
         id="path4122" />
      <path
         d="M 97.101562,31.237805 H 91.9375 l -1.34375,2.929687 h -1.960938 l 5.96875,-12.820312 5.757818,12.820312 h -1.992193 z m -0.742187,-1.710938 -1.789063,-4.101562 -1.875,4.101562 z"
         id="path4124" />
      <path
         d="m 105.95313,29.026867 3.73437,5.140625 h -2.22656 l -3.44531,-4.9375 h -0.32813 v 4.9375 h -1.82031 v -12.0625 H 104 q 2.39063,0 3.45313,0.898438 1.17187,1 1.17187,2.640625 0,1.28125 -0.73437,2.203125 -0.73438,0.921875 -1.9375,1.179687 z m -2.26563,-1.382812 h 0.57813 q 2.58593,0 2.58593,-1.976563 0,-1.851562 -2.51562,-1.851562 h -0.64844 z"
         id="path4126" />
      <path
         d="m 118.15625,23.81593 h -4.83594 v 2.898437 h 4.69532 v 1.710938 h -4.69532 v 4.03125 h 4.83594 v 1.710937 H 111.5 v -12.0625 h 6.65625 z"
         id="path4128" />
    </g>
    <g
       aria-label="B"
       transform="matrix(0.26458333,0,0,0.26458333,4.7163406,51.412922)"
       id="text4025-0"
       style="font-weight:500;font-size:13.3333px;font-family:Futura;-inkscape-font-specification:'Futura Medium';white-space:pre;shape-inside:url(#rect4027-2);fill:#fbfbfb;stroke:#000000;stroke-width:0"
       inkscape:label="Input B Label 2">
      <path
         d="m 31.204424,166.80621 v -10.05205 h 1.510413 q 1.009112,0 1.608069,0.15625 0.605467,0.15624 1.022133,0.52734 0.423176,0.38411 0.670571,0.95703 0.253905,0.57942 0.253905,1.17187 0,1.08072 -0.82682,1.82942 0.800779,0.27344 1.263017,0.95703 0.468749,0.67708 0.468749,1.57552 0,1.17838 -0.833331,1.99218 -0.501301,0.5013 -1.126299,0.69661 -0.683592,0.1888 -1.712236,0.1888 z m 1.516923,-5.73566 h 0.47526 q 0.846352,0 1.236976,-0.37109 0.397134,-0.37761 0.397134,-1.10677 0,-0.70963 -0.403645,-1.07422 -0.403645,-0.37109 -1.171872,-0.37109 h -0.533853 z m 0,4.30989 h 0.937498 q 1.028643,0 1.510413,-0.40365 0.507811,-0.4362 0.507811,-1.10677 0,-0.65104 -0.48828,-1.09374 -0.475259,-0.4362 -1.699214,-0.4362 h -0.768228 z"
         id="path4148" />
    </g>
    <g
       aria-label="A"
       transform="matrix(0.26458333,0,0,0.26458333,6.0716364,50.521675)"
       id="text3986-8"
       style="font-weight:500;font-size:13.3333px;font-family:Futura;-inkscape-font-specification:'Futura Medium';white-space:pre;shape-inside:url(#rect3988-1);fill:#fbfbfb;stroke:#000000;stroke-width:0"
       inkscape:label="Input A Label 2">
      <path
         d="m 32.109357,124.36481 h -4.303375 l -1.119788,2.4414 h -1.634111 l 4.973946,-10.68356 4.798165,10.68356 h -1.660152 z m -0.618488,-1.42577 -1.490882,-3.41796 -1.562496,3.41796 z"
         id="path4145" />
    </g>
    <path
       style="display:inline;fill:#5db2d5;fill-opacity:1;stroke:none;stroke-width:4.70972;stroke-linecap:square;stroke-linejoin:miter;stroke-miterlimit:4;stroke-dasharray:37.6777, 4.70972;stroke-dashoffset:0;stroke-opacity:1"
       d="M 9.4917914,14.306208 H 31.75 v 2.645834 H 9.4917914 Z"
       id="rect4252"
       inkscape:connector-curvature="0"
       inkscape:label="Section 1 Accent" />
    <path
       style="display:inline;fill:#5db2d5;fill-opacity:1;stroke:none;stroke-width:4.70973;stroke-linecap:square;stroke-linejoin:miter;stroke-miterlimit:4;stroke-dasharray:37.6778, 4.70973;stroke-dashoffset:0;stroke-opacity:1"
       d="M 9.4917914,71.191625 H 31.75 v 2.645833 H 9.4917914 Z"
       id="rect4258"
       inkscape:connector-curvature="0"
       inkscape:label="Section 2 Accent" />
    <g
       aria-label="ONE"
       transform="matrix(0.26458333,0,0,0.26458333,3.1956912,1.2309788)"
       id="text3916"
       style="font-weight:500;font-size:13.3333px;font-family:Futura;-inkscape-font-specification:'Futura Medium';white-space:pre;shape-inside:url(#rect3918);fill:#fbfbfb;stroke:#000000;stroke-width:0"
       inkscape:label="Section One">
      <path
         d="m 50.703123,51.734612 q 0,-2.122391 1.555986,-3.645824 1.549475,-1.523434 3.723949,-1.523434 2.148432,0 3.684886,1.536455 1.542965,1.536454 1.542965,3.691396 0,2.167964 -1.549475,3.678377 -1.555986,1.516923 -3.756501,1.516923 -1.94661,0 -3.496085,-1.347653 -1.705725,-1.490882 -1.705725,-3.90624 z m 1.529944,0.01953 q 0,1.666662 1.119789,2.740879 1.113279,1.074216 2.571608,1.074216 1.582027,0 2.669264,-1.093748 1.087237,-1.106768 1.087237,-2.695305 0,-1.608069 -1.074216,-2.695306 -1.067706,-1.093747 -2.643222,-1.093747 -1.569007,0 -2.649733,1.093747 -1.080727,1.080726 -1.080727,2.669264 z"
         id="path4138" />
      <path
         d="m 63.118456,56.806214 v -10.73565 l 7.330711,7.669251 v -6.985659 h 1.516923 v 10.664035 l -7.330711,-7.64972 v 7.037743 z"
         id="path4140" />
      <path
         d="M 79.921798,48.179933 H 75.89186 v 2.415359 h 3.912751 v 1.425777 H 75.89186 v 3.359367 h 4.029938 v 1.425778 H 74.374937 V 46.754156 h 5.546861 z"
         id="path4142" />
    </g>
    <g
       aria-label="TWO"
       transform="matrix(0.26458333,0,0,0.26458333,2.1359804,2.2807002)"
       id="text3972"
       style="font-weight:500;font-size:13.3333px;font-family:Futura;-inkscape-font-specification:'Futura Medium';white-space:pre;shape-inside:url(#rect3974);fill:#fbfbfb;stroke:#000000;stroke-width:0"
       inkscape:label="Section Two">
      <path
         d="m 58.977855,258.17993 v 8.62628 h -1.516924 v -8.62628 h -2.311192 v -1.42577 h 6.132797 v 1.42577 z"
         id="path4131" />
      <path
         d="m 63.730447,256.75416 2.617181,6.71873 2.734368,-7.20701 2.617181,7.20701 2.779941,-6.71873 h 1.647131 l -4.492176,10.69007 -2.584629,-7.12238 -2.695306,7.12889 -4.270822,-10.69658 z"
         id="path4133" />
      <path
         d="m 76.419218,261.73461 q 0,-2.12239 1.555986,-3.64582 1.549475,-1.52344 3.723949,-1.52344 2.148432,0 3.684886,1.53646 1.542965,1.53645 1.542965,3.6914 0,2.16796 -1.549475,3.67837 -1.555986,1.51692 -3.756501,1.51692 -1.94661,0 -3.496085,-1.34765 -1.705725,-1.49088 -1.705725,-3.90624 z m 1.529944,0.0195 q 0,1.66667 1.119789,2.74088 1.113279,1.07422 2.571608,1.07422 1.582027,0 2.669264,-1.09375 1.087237,-1.10677 1.087237,-2.69531 0,-1.60806 -1.074216,-2.6953 -1.067706,-1.09375 -2.643222,-1.09375 -1.569007,0 -2.649733,1.09375 -1.080727,1.08073 -1.080727,2.66926 z"
         id="path4135" />
    </g>
    <g
       aria-label="A"
       transform="matrix(0.26458333,0,0,0.26458333,5.8673488,-5.4862685)"
       id="text3986"
       style="font-weight:500;font-size:13.3333px;font-family:Futura;-inkscape-font-specification:'Futura Medium';white-space:pre;shape-inside:url(#rect3988);fill:#fbfbfb;stroke:#000000;stroke-width:0"
       inkscape:label="Input A Label 1">
      <path
         d="m 32.109357,124.36481 h -4.303375 l -1.119788,2.4414 h -1.634111 l 4.973946,-10.68356 4.798165,10.68356 h -1.660152 z m -0.618488,-1.42577 -1.490882,-3.41796 -1.562496,3.41796 z"
         id="path4113" />
    </g>
    <g
       aria-label="B"
       transform="matrix(0.26458333,0,0,0.26458333,4.7163406,-4.6787447)"
       id="text4025"
       style="font-weight:500;font-size:13.3333px;font-family:Futura;-inkscape-font-specification:'Futura Medium';white-space:pre;shape-inside:url(#rect4027);fill:#fbfbfb;stroke:#000000;stroke-width:0"
       inkscape:label="Input B Label 1 ">
      <path
         d="m 31.204424,166.80621 v -10.05205 h 1.510413 q 1.009112,0 1.608069,0.15625 0.605467,0.15624 1.022133,0.52734 0.423176,0.38411 0.670571,0.95703 0.253905,0.57942 0.253905,1.17187 0,1.08072 -0.82682,1.82942 0.800779,0.27344 1.263017,0.95703 0.468749,0.67708 0.468749,1.57552 0,1.17838 -0.833331,1.99218 -0.501301,0.5013 -1.126299,0.69661 -0.683592,0.1888 -1.712236,0.1888 z m 1.516923,-5.73566 h 0.47526 q 0.846352,0 1.236976,-0.37109 0.397134,-0.37761 0.397134,-1.10677 0,-0.70963 -0.403645,-1.07422 -0.403645,-0.37109 -1.171872,-0.37109 h -0.533853 z m 0,4.30989 h 0.937498 q 1.028643,0 1.510413,-0.40365 0.507811,-0.4362 0.507811,-1.10677 0,-0.65104 -0.48828,-1.09374 -0.475259,-0.4362 -1.699214,-0.4362 h -0.768228 z"
         id="path4110" />
    </g>
    <g
       aria-label="OUT"
       transform="matrix(0.26458333,0,0,0.26458333,0.60771543,-7.0287492)"
       id="text287"
       style="font-weight:500;font-size:13.3333px;font-family:Futura;-inkscape-font-specification:'Futura Medium';white-space:pre;shape-inside:url(#rect289);fill:#f9fcfd;stroke:#000000;stroke-width:0"
       inkscape:label="Out 1">
      <path
         d="m 35.703123,211.73461 q 0,-2.12239 1.555986,-3.64582 1.549475,-1.52344 3.723949,-1.52344 2.148432,0 3.684886,1.53646 1.542965,1.53645 1.542965,3.6914 0,2.16796 -1.549475,3.67837 -1.555986,1.51692 -3.756501,1.51692 -1.94661,0 -3.496085,-1.34765 -1.705725,-1.49088 -1.705725,-3.90624 z m 1.529944,0.0195 q 0,1.66667 1.119789,2.74088 1.113279,1.07422 2.571608,1.07422 1.582027,0 2.669264,-1.09375 1.087237,-1.10677 1.087237,-2.69531 0,-1.60806 -1.074216,-2.6953 -1.067706,-1.09375 -2.643222,-1.09375 -1.569007,0 -2.649733,1.09375 -1.080727,1.08073 -1.080727,2.66926 z"
         id="path1061" />
      <path
         d="m 49.635379,206.75416 v 6.05467 q 0,1.29557 0.423176,1.89452 0.631509,0.86589 1.77734,0.86589 1.15234,0 1.783849,-0.86589 0.423176,-0.57942 0.423176,-1.89452 v -6.05467 h 1.516923 v 6.47133 q 0,1.58854 -0.98958,2.61718 -1.113279,1.14583 -2.734368,1.14583 -1.62109,0 -2.727858,-1.14583 -0.989581,-1.02864 -0.989581,-2.61718 v -6.47133 z"
         id="path1063" />
      <path
         d="m 60.742121,208.17993 v 8.62628 h -1.516923 v -8.62628 h -2.311192 v -1.42577 h 6.132797 v 1.42577 z"
         id="path1065" />
    </g>
  </g>
  <g
     inkscape:groupmode="layer"
     id="layer2"
     inkscape:label="components"
     style="display:none">
    <circle
       style="display:inline;fill:#00ff00;fill-opacity:1;stroke:none;stroke-width:6;stroke-linecap:square;stroke-linejoin:miter;stroke-miterlimit:4;stroke-dasharray:48, 6;stroke-dashoffset:0;stroke-opacity:1"
       id="INPUTA1"
       cx="28.929411"
       cy="26.458334"
       r="3.8789234"
       inkscape:label="INPUTA1" />
    <circle
       r="3.8789234"
       cy="37.041672"
       cx="28.929411"
       id="INPUTB1"
       style="display:inline;fill:#00ff00;fill-opacity:1;stroke:none;stroke-width:6;stroke-linecap:square;stroke-linejoin:miter;stroke-miterlimit:4;stroke-dasharray:48, 6;stroke-dashoffset:0;stroke-opacity:1"
       inkscape:label="INPUTB1" />
    <circle
       r="3.8789234"
       style="display:inline;fill:#0000ff;fill-opacity:1;stroke:none;stroke-width:6;stroke-linecap:square;stroke-linejoin:miter;stroke-miterlimit:4;stroke-dasharray:48, 6;stroke-dashoffset:0;stroke-opacity:1"
       id="OUTPUT1"
       cx="28.52788"
       cy="48.555714"
       inkscape:label="OUTPUT1" />
    <circle
       r="3.8789234"
       cy="82.661789"
       cx="28.635168"
       id="INPUTA2"
       style="display:inline;fill:#00ff00;fill-opacity:1;stroke:none;stroke-width:6;stroke-linecap:square;stroke-linejoin:miter;stroke-miterlimit:4;stroke-dasharray:48, 6;stroke-dashoffset:0;stroke-opacity:1"
       inkscape:label="INPUTA2" />
    <circle
       r="3.8789234"
       style="display:inline;fill:#00ff00;fill-opacity:1;stroke:none;stroke-width:6;stroke-linecap:square;stroke-linejoin:miter;stroke-miterlimit:4;stroke-dasharray:48, 6;stroke-dashoffset:0;stroke-opacity:1"
       id="INPUTB2"
       cx="28.635168"
       cy="93.950699"
       inkscape:label="INPUTB2" />
    <circle
       r="3.8789234"
       cy="105.23959"
       cx="28.635168"
       id="OUTPUT2"
       style="display:inline;fill:#0000ff;fill-opacity:1;stroke:none;stroke-width:6;stroke-linecap:square;stroke-linejoin:miter;stroke-miterlimit:4;stroke-dasharray:48, 6;stroke-dashoffset:0;stroke-opacity:1"
       inkscape:label="OUTPUT2" />
    <circle
       style="display:inline;fill:#ff00ff;fill-opacity:1;stroke:none;stroke-width:0.365;stroke-linecap:round;stroke-linejoin:miter;stroke-miterlimit:4;stroke-dasharray:none;stroke-dashoffset:0;stroke-opacity:1"
       id="LIGHT1"
       cx="35.633823"
       cy="48.858089"
       r="1.3229166"
       inkscape:label="LIGHT1" />
    <circle
       inkscape:label="LIGHT2"
       r="1.3229166"
       cy="105.47888"
       cx="35.633823"
       id="circle906"
       style="display:inline;fill:#ff00ff;fill-opacity:1;stroke:none;stroke-width:0.365;stroke-linecap:round;stroke-linejoin:miter;stroke-miterlimit:4;stroke-dasharray:none;stroke-dashoffset:0;stroke-opacity:1" />
  </g>
</svg>
