<?xml version="1.0" encoding="UTF-8" standalone="no"?>
<!-- Created with Inkscape (http://www.inkscape.org/) -->

<svg
   width="30.48mm"
   height="128.5mm"
   viewBox="0 0 30.479999 128.5"
   version="1.1"
   id="svg5"
   inkscape:version="1.2 (dc2aeda, 2022-05-15)"
   sodipodi:docname="Divide.svg"
   xmlns:inkscape="http://www.inkscape.org/namespaces/inkscape"
   xmlns:sodipodi="http://sodipodi.sourceforge.net/DTD/sodipodi-0.dtd"
   xmlns="http://www.w3.org/2000/svg"
   xmlns:svg="http://www.w3.org/2000/svg">
  <sodipodi:namedview
     id="namedview7"
     pagecolor="#505050"
     bordercolor="#eeeeee"
     borderopacity="1"
     inkscape:showpageshadow="0"
     inkscape:pageopacity="0"
     inkscape:pagecheckerboard="0"
     inkscape:deskcolor="#505050"
     inkscape:document-units="mm"
     showgrid="true"
     inkscape:zoom="1.1120969"
     inkscape:cx="-13.937634"
     inkscape:cy="220.30454"
     inkscape:window-width="1280"
     inkscape:window-height="702"
     inkscape:window-x="0"
     inkscape:window-y="22"
     inkscape:window-maximized="0"
     inkscape:current-layer="layer1">
    <inkscape:grid
       type="xygrid"
       id="grid9"
       dotted="true"
       originx="0"
       originy="0" />
  </sodipodi:namedview>
  <defs
     id="defs2">
    <rect
       x="20"
       y="160"
       width="15"
       height="15"
       id="rect3196" />
    <rect
       x="-80"
       y="30"
       width="90"
       height="30"
       id="rect3056" />
    <rect
       x="30"
       y="220"
       width="70.000001"
       height="20.000003"
       id="rect2604" />
    <rect
       x="60"
       y="80"
       width="60.000004"
       height="20.000002"
       id="rect2598" />
    <rect
       x="20"
       y="20"
       width="110"
       height="30"
       id="rect2538" />
    <rect
       x="10"
       y="415"
       width="35"
       height="15"
       id="rect1376" />
    <rect
       x="60"
       y="270"
       width="50"
       height="15"
       id="rect1069" />
    <rect
       x="65"
       y="285"
       width="0"
       height="20"
       id="rect1063" />
    <rect
       x="40"
       y="25"
       width="125"
       height="15.000001"
       id="rect971" />
    <rect
       x="35"
       y="205"
       width="35"
       height="15"
       id="rect289" />
    <rect
       x="35"
       y="215"
       width="45"
       height="15.000003"
       id="rect4066" />
    <rect
       x="30"
       y="155"
       width="15"
       height="15"
       id="rect4027" />
    <rect
       x="25"
       y="115"
       width="15"
       height="20"
       id="rect3988" />
    <rect
       x="40"
       y="20"
       width="80"
       height="20.000002"
       id="rect3982" />
    <rect
       x="55"
       y="255"
       width="50"
       height="15"
       id="rect3974" />
    <rect
       x="50"
       y="45"
       width="55"
       height="15"
       id="rect3918" />
    <rect
       x="25"
       y="10"
       width="105"
       height="15"
       id="rect3300" />
    <rect
       x="90"
       y="330"
       width="40"
       height="20"
       id="rect14743" />
    <rect
       x="90"
       y="230"
       width="40"
       height="20"
       id="rect14737" />
    <rect
       x="80"
       y="70"
       width="80"
       height="30"
       id="rect14629" />
    <rect
       x="50"
       y="30"
       width="140"
       height="40"
       id="rect11770" />
    <rect
       x="70"
       y="30"
       width="180"
       height="30.000002"
       id="rect11015" />
    <rect
       x="-180"
       y="360"
       width="150"
       height="30"
       id="rect10144" />
    <rect
       x="25"
       y="115"
       width="15"
       height="20"
       id="rect3988-1" />
    <rect
       x="30"
       y="155"
       width="15"
       height="15"
       id="rect4027-2" />
    <rect
       x="35"
       y="215"
       width="45"
       height="15.000003"
       id="rect4066-7" />
    <rect
       x="35"
       y="205"
       width="35"
       height="15"
       id="rect289-9" />
    <rect
       x="10"
       y="415"
       width="35"
       height="15"
       id="rect1376-9" />
    <rect
       x="30"
       y="220"
       width="70"
       height="20.000004"
       id="rect2604-7" />
  </defs>
  <g
     inkscape:label="Design"
     inkscape:groupmode="layer"
     id="layer1">
    <rect
       style="fill:#000000;fill-opacity:1;stroke:none;stroke-width:0;stroke-dasharray:none"
       id="rect63"
       width="30.427082"
       height="128.5"
       x="1.4026959e-06"
       y="3.3306691e-15"
       ry="0"
       inkscape:label="background" />
    <g
       aria-label="momentary"
       transform="matrix(0.26458333,0,0,0.26458333,-17.2085,109.77596)"
       id="text11013"
       style="font-size:18.6667px;font-family:'Alt Retro Black';-inkscape-font-specification:'Alt Retro Black, ';white-space:pre;shape-inside:url(#rect11015);fill:#ffffff;stroke-width:0.944882"
       inkscape:label="momentary">
      <path
         d="m 86.669363,43.944025 q 0,0.504001 -0.186667,0.933335 -0.186667,0.429334 -0.522667,0.765335 -0.317334,0.317334 -0.765335,0.504001 -0.429334,0.186667 -0.914668,0.186667 -0.485334,0 -0.933335,-0.186667 -0.429334,-0.186667 -0.765335,-0.504001 -0.317334,-0.336001 -0.504001,-0.765335 -0.186667,-0.429334 -0.186667,-0.933335 v -5.936011 q 0,-0.056 -0.03733,-0.168 -0.01867,-0.130667 -0.07467,-0.242667 -0.03733,-0.07467 -0.112,-0.130667 -0.07467,-0.056 -0.354668,-0.056 -0.298667,0 -0.373334,0.056 -0.07467,0.056 -0.112,0.130667 -0.056,0.112 -0.09333,0.242667 -0.01867,0.130667 -0.01867,0.186667 v 5.917344 q 0,0.504001 -0.186667,0.933335 -0.186667,0.429334 -0.522668,0.765335 -0.317334,0.317334 -0.746668,0.504001 -0.429334,0.186667 -0.933335,0.186667 -0.485334,0 -0.933335,-0.186667 -0.429334,-0.186667 -0.746668,-0.504001 -0.317334,-0.336001 -0.504001,-0.765335 -0.186667,-0.429334 -0.186667,-0.933335 v -5.936011 q -0.01867,-0.056 -0.03733,-0.168 -0.01867,-0.130667 -0.07467,-0.242667 -0.03733,-0.07467 -0.130667,-0.130667 -0.07467,-0.056 -0.354667,-0.056 -0.298667,0 -0.373334,0.056 -0.07467,0.056 -0.112,0.130667 -0.056,0.112 -0.07467,0.242667 -0.01867,0.130667 -0.03733,0.186667 v 5.917344 q 0,0.504001 -0.186667,0.933335 -0.186667,0.429334 -0.522668,0.765335 -0.317334,0.317334 -0.746668,0.504001 -0.429334,0.186667 -0.914668,0.186667 -0.504001,0 -0.933335,-0.186667 Q 71.026669,45.960029 70.690668,45.642695 70.373334,45.306694 70.186667,44.87736 70,44.448026 70,43.944025 v -5.936011 q 0,-0.01867 0.01867,-0.410667 0.03733,-0.410667 0.186667,-1.008002 0.168,-0.597334 0.485334,-1.288002 0.336001,-0.690668 0.933335,-1.269336 0.597334,-0.597334 1.493336,-0.989335 0.914668,-0.392001 2.240004,-0.392001 0.952002,0 1.680003,0.205334 0.728001,0.205334 1.288002,0.560001 0.560001,-0.354667 1.288003,-0.560001 0.728001,-0.205334 1.698669,-0.205334 1.306669,0 2.202671,0.392001 0.914668,0.392001 1.512003,0.989335 0.597334,0.578668 0.914668,1.269336 0.336001,0.690668 0.485334,1.288002 0.168001,0.578668 0.205334,0.989335 0.03733,0.392001 0.03733,0.410668 z"
         style="stroke:#000000"
         id="path11749" />
      <path
         d="m 97.421355,40.97602 q 0,0.03733 -0.03733,0.429334 -0.01867,0.392001 -0.168,0.970668 -0.149333,0.560001 -0.466667,1.232003 -0.317334,0.672001 -0.896002,1.250668 -1.474669,1.47467 -3.78934,1.47467 -2.314671,0 -3.78934,-1.47467 Q 87.696008,44.280026 87.378674,43.608025 87.06134,42.936023 86.912007,42.376022 86.762673,41.797355 86.72534,41.405354 86.70667,41.013353 86.70667,40.97602 v -2.968006 q 0,-0.01867 0.01867,-0.410667 0.03733,-0.410667 0.186667,-1.008002 0.168,-0.597334 0.485334,-1.288002 0.336,-0.690668 0.933335,-1.269336 0.597334,-0.597334 1.493336,-0.989335 0.914668,-0.392001 2.240004,-0.392001 1.306669,0 2.202671,0.392001 0.914668,0.392001 1.512002,0.989335 0.597335,0.578668 0.914669,1.269336 0.336,0.690668 0.485334,1.288002 0.168,0.578668 0.205333,0.989335 0.03733,0.392001 0.03733,0.410668 z"
         style="stroke:#000000"
         id="path11751" />
      <path
         d="m 114.10936,43.944025 q 0,0.504001 -0.18666,0.933335 -0.18667,0.429334 -0.52267,0.765335 -0.31733,0.317334 -0.76534,0.504001 -0.42933,0.186667 -0.91466,0.186667 -0.48534,0 -0.93334,-0.186667 -0.42933,-0.186667 -0.76533,-0.504001 -0.31734,-0.336001 -0.504,-0.765335 -0.18667,-0.429334 -0.18667,-0.933335 v -5.936011 q 0,-0.056 -0.0373,-0.168 -0.0187,-0.130667 -0.0747,-0.242667 -0.0373,-0.07467 -0.112,-0.130667 -0.0747,-0.056 -0.35467,-0.056 -0.29867,0 -0.37333,0.056 -0.0747,0.056 -0.112,0.130667 -0.056,0.112 -0.0933,0.242667 -0.0187,0.130667 -0.0187,0.186667 v 5.917344 q 0,0.504001 -0.18667,0.933335 -0.18667,0.429334 -0.52267,0.765335 -0.31733,0.317334 -0.74667,0.504001 -0.42933,0.186667 -0.93333,0.186667 -0.48534,0 -0.93334,-0.186667 -0.42933,-0.186667 -0.74666,-0.504001 -0.31734,-0.336001 -0.50401,-0.765335 -0.18666,-0.429334 -0.18666,-0.933335 v -5.936011 q -0.0187,-0.056 -0.0373,-0.168 -0.0187,-0.130667 -0.0747,-0.242667 -0.0373,-0.07467 -0.13067,-0.130667 -0.0747,-0.056 -0.35467,-0.056 -0.29866,0 -0.37333,0.056 -0.0747,0.056 -0.112,0.130667 -0.056,0.112 -0.0747,0.242667 -0.0187,0.130667 -0.0373,0.186667 v 5.917344 q 0,0.504001 -0.18667,0.933335 -0.18666,0.429334 -0.52267,0.765335 -0.31733,0.317334 -0.74666,0.504001 -0.42934,0.186667 -0.914672,0.186667 -0.504001,0 -0.933335,-0.186667 -0.429334,-0.186667 -0.765335,-0.504001 -0.317333,-0.336001 -0.504,-0.765335 -0.186667,-0.429334 -0.186667,-0.933335 v -5.936011 q 0,-0.01867 0.01867,-0.410667 0.03733,-0.410667 0.186667,-1.008002 0.168001,-0.597334 0.485334,-1.288002 0.336001,-0.690668 0.933335,-1.269336 0.597335,-0.597334 1.493333,-0.989335 0.91467,-0.392001 2.24,-0.392001 0.95201,0 1.68001,0.205334 0.728,0.205334 1.288,0.560001 0.56,-0.354667 1.288,-0.560001 0.728,-0.205334 1.69867,-0.205334 1.30667,0 2.20267,0.392001 0.91467,0.392001 1.512,0.989335 0.59734,0.578668 0.91467,1.269336 0.336,0.690668 0.48534,1.288002 0.168,0.578668 0.20533,0.989335 0.0373,0.392001 0.0373,0.410668 z"
         style="stroke:#000000"
         id="path11753" />
      <path
         d="m 122.22933,41.573354 q 0.50401,0 0.93334,0.186667 0.42933,0.186667 0.74667,0.522668 0.336,0.317334 0.52267,0.746668 0.18666,0.429334 0.18666,0.914668 0,0.504001 -0.18666,0.933335 -0.18667,0.429334 -0.52267,0.765335 -0.31734,0.317334 -0.74667,0.504001 -0.42933,0.186667 -0.91467,0.186667 h -2.968 q -1.32534,0 -2.24001,-0.448001 -0.896,-0.448001 -1.49333,-1.120002 -0.59734,-0.672001 -0.93334,-1.456003 -0.31733,-0.784001 -0.48533,-1.456002 -0.14934,-0.672001 -0.18667,-1.120002 -0.0187,-0.466668 -0.0187,-0.485335 v -0.765334 -0.728002 q 0,-0.01867 0.0187,-0.466667 0.0373,-0.466668 0.18667,-1.138669 0.168,-0.690668 0.48533,-1.474669 0.336,-0.784002 0.93334,-1.456003 0.59733,-0.672001 1.49333,-1.120002 0.91467,-0.448001 2.24001,-0.448001 h 2.94933 q 0.50401,0 0.93334,0.186667 0.42933,0.186667 0.74667,0.522668 0.336,0.317334 0.52267,0.746668 0.18666,0.429334 0.18666,0.933335 0,0.485334 -0.18666,0.933335 -0.18667,0.429334 -0.52267,0.746668 -0.31734,0.317334 -0.74667,0.504001 -0.42933,0.186667 -0.91467,0.186667 h -1.064 q 0.54133,0.317334 0.87733,0.877335 0.33601,0.541334 0.33601,1.194669 0,0.672001 -0.33601,1.232002 -0.336,0.541334 -0.87733,0.858668 z"
         style="stroke:#000000"
         id="path11755" />
      <path
         d="m 132.98133,32.650671 q 0.504,0 0.93334,0.186667 0.42933,0.186667 0.74666,0.522668 0.336,0.317334 0.52267,0.746668 0.18667,0.429334 0.18667,0.914668 v 8.922683 q 0,0.802668 -0.46667,1.437336 -0.448,0.616001 -1.232,0.858668 -0.37333,0.09333 -0.69067,0.09333 -0.59733,0 -1.12,-0.280001 -0.52267,-0.28 -0.85867,-0.784001 l -1.58667,-2.370671 v 1.045335 q 0,0.504001 -0.18667,0.933335 -0.18666,0.429334 -0.52266,0.765335 -0.31734,0.317334 -0.74667,0.504001 -0.42934,0.186667 -0.91467,0.186667 -0.504,0 -0.93333,-0.186667 -0.42934,-0.186667 -0.76534,-0.504001 -0.31733,-0.336001 -0.504,-0.765335 -0.18667,-0.429334 -0.18667,-0.933335 v -8.922683 q 0,-0.784001 0.448,-1.400002 0.46667,-0.634668 1.25067,-0.877335 0.37334,-0.09333 0.69067,-0.09333 0.59734,0 1.12,0.280001 0.52267,0.28 0.85867,0.784001 l 1.58667,2.370671 v -1.064002 q 0,-0.485334 0.18667,-0.914668 0.18666,-0.429334 0.504,-0.746668 0.31733,-0.336001 0.74667,-0.522668 0.448,-0.186667 0.93333,-0.186667 z"
         style="stroke:#000000"
         id="path11757" />
      <path
         d="m 143.71466,32.650671 q 0.48534,0 0.91467,0.186667 0.448,0.186667 0.76533,0.522668 0.336,0.317334 0.52267,0.746668 0.18667,0.429334 0.18667,0.933335 0,0.485334 -0.18667,0.933335 -0.18667,0.429334 -0.52267,0.746668 -0.31733,0.317334 -0.76533,0.504001 -0.42933,0.186667 -0.91467,0.186667 h -0.59733 v 6.533345 q 0,0.504001 -0.18667,0.933335 -0.18667,0.429334 -0.52267,0.765335 -0.31733,0.317334 -0.74667,0.504001 -0.42933,0.186667 -0.91466,0.186667 -0.50401,0 -0.93334,-0.186667 -0.42933,-0.186667 -0.76533,-0.504001 -0.31734,-0.336001 -0.504,-0.765335 -0.18667,-0.429334 -0.18667,-0.933335 V 37.41068 h -0.57867 q -0.504,0 -0.93333,-0.186667 -0.42934,-0.186667 -0.76534,-0.504001 -0.31733,-0.317334 -0.504,-0.746668 -0.18667,-0.448001 -0.18667,-0.933335 0,-0.504001 0.18667,-0.933335 0.18667,-0.429334 0.504,-0.746668 0.336,-0.336001 0.76534,-0.522668 0.42933,-0.186667 0.93333,-0.186667 h 2.96801 z"
         style="stroke:#000000"
         id="path11759" />
      <path
         d="m 150.52797,32.650671 q 1.30667,0 2.22134,0.448001 0.91467,0.448001 1.512,1.120002 0.59734,0.672001 0.91467,1.456003 0.336,0.784001 0.48534,1.456003 0.168,0.672001 0.18666,1.138668 0.0373,0.448001 0.0373,0.466668 v 2.240004 2.968005 q 0,0.504001 -0.18667,0.933335 -0.18667,0.429334 -0.52267,0.765335 -0.31733,0.317334 -0.76533,0.504001 -0.42934,0.186667 -0.91467,0.186667 -0.48533,0 -0.93334,-0.186667 -0.42933,-0.186667 -0.76533,-0.504001 -0.31733,-0.336001 -0.504,-0.765335 -0.18667,-0.429334 -0.18667,-0.933335 v -0.578668 h -1.176 v 0.578668 q 0,0.504001 -0.18667,0.933335 -0.18666,0.429334 -0.52266,0.765335 -0.31734,0.317334 -0.74667,0.504001 -0.42934,0.186667 -0.91467,0.186667 -0.504,0 -0.93334,-0.186667 -0.42933,-0.186667 -0.76533,-0.504001 -0.31733,-0.336001 -0.504,-0.765335 -0.18667,-0.429334 -0.18667,-0.933335 V 40.97602 38.754682 q 0,-0.01867 0.0187,-0.466667 0.0373,-0.466668 0.18667,-1.138669 0.168,-0.672001 0.48533,-1.456002 0.336,-0.802669 0.93333,-1.47467 0.59734,-0.672001 1.49334,-1.120002 0.91467,-0.448001 2.24,-0.448001 z"
         style="stroke:#000000"
         id="path11761" />
      <path
         d="m 165.81597,40.901353 q 0.37334,0.560001 0.59734,1.306669 0.224,0.746668 0.224,1.736003 0,0.504001 -0.18667,0.933335 -0.18667,0.429334 -0.52267,0.765335 -0.31733,0.317334 -0.76533,0.504001 -0.42933,0.186667 -0.91467,0.186667 -0.48533,0 -0.93333,-0.186667 -0.42934,-0.186667 -0.76534,-0.504001 -0.31733,-0.336001 -0.504,-0.765335 -0.18667,-0.429334 -0.18667,-0.933335 0,-0.28 -0.056,-0.354667 -0.0373,-0.07467 -0.112,-0.112 -0.13066,-0.07467 -0.26133,-0.09333 -0.13067,-0.01867 -0.168,-0.01867 h -0.57867 v 0.578668 q 0,0.504001 -0.18667,0.933335 -0.18666,0.429334 -0.52266,0.765335 -0.31734,0.317334 -0.74667,0.504001 -0.42934,0.186667 -0.91467,0.186667 -0.504,0 -0.93333,-0.186667 -0.42934,-0.186667 -0.76534,-0.504001 -0.31733,-0.336001 -0.504,-0.765335 -0.18667,-0.429334 -0.18667,-0.933335 v -5.936011 q 0,-0.01867 0.0373,-0.410667 0.0373,-0.410667 0.18666,-1.008002 0.168,-0.597334 0.48534,-1.288002 0.336,-0.690668 0.93333,-1.269336 0.59734,-0.597334 1.49334,-0.989335 0.91467,-0.392001 2.22134,-0.392001 1.288,0 2.184,0.392001 0.896,0.392001 1.49334,0.970669 0.59733,0.578667 0.93333,1.269335 0.336,0.672001 0.504,1.269336 0.168,0.597334 0.20534,0.989335 0.0373,0.392001 0.0373,0.410667 0,0 -0.0187,0.261334 -0.0187,0.261334 -0.0933,0.690668 -0.0747,0.410667 -0.24267,0.952002 -0.168,0.522667 -0.46667,1.045335 z"
         style="stroke:#000000"
         id="path11763" />
      <path
         d="m 174.96263,32.688005 q 0.48534,0 0.91467,0.186667 0.42934,0.186667 0.74667,0.522667 0.336,0.317334 0.52267,0.746668 0.18667,0.429335 0.18667,0.914669 v 2.968005 q 0,0.01867 -0.0187,0.298667 -0.0187,0.261334 -0.112,0.709335 -0.0747,0.429334 -0.26134,0.970668 -0.168,0.541335 -0.504,1.082669 -0.336,0.541334 -0.84,1.026669 -0.504,0.485334 -1.232,0.802668 v 1.045335 q 0,0.485334 -0.18667,0.933335 -0.18666,0.429334 -0.52266,0.746668 -0.31734,0.317334 -0.74667,0.504001 -0.42934,0.186667 -0.91467,0.186667 -0.48534,0 -0.93334,-0.186667 -0.42933,-0.186667 -0.74666,-0.504001 -0.31734,-0.317334 -0.50401,-0.746668 -0.18666,-0.448001 -0.18666,-0.933335 v -1.045335 q -0.728,-0.317334 -1.232,-0.802668 -0.50401,-0.485335 -0.84001,-1.026669 -0.336,-0.541334 -0.52266,-1.082669 -0.168,-0.541334 -0.26134,-0.970668 -0.0747,-0.448001 -0.0933,-0.709335 -0.0187,-0.28 -0.0187,-0.298667 v -2.968005 q 0,-0.485334 0.18667,-0.914669 0.18667,-0.429334 0.504,-0.746668 0.31733,-0.336 0.74667,-0.522667 0.448,-0.186667 0.93333,-0.186667 0.48534,0 0.91467,0.186667 0.448,0.186667 0.76534,0.522667 0.336,0.317334 0.52266,0.746668 0.18667,0.429335 0.18667,0.914669 v 2.949338 q 0,0.01867 0.0187,0.149334 0.0187,0.130667 0.0747,0.261334 0.0373,0.09333 0.112,0.149333 0.0933,0.056 0.37334,0.056 0.29867,0 0.37333,-0.056 0.0747,-0.056 0.112,-0.149333 0.0747,-0.130667 0.0933,-0.261334 0.0187,-0.130667 0.0187,-0.149334 v -2.949338 q 0,-0.485334 0.18667,-0.914669 0.18667,-0.429334 0.504,-0.746668 0.31733,-0.336 0.74667,-0.522667 0.448,-0.186667 0.93333,-0.186667 z"
         style="stroke:#000000"
         id="path11765" />
    </g>
    <g
       aria-label="DIVIDE"
       transform="matrix(0.26458333,0,0,0.26458333,29.740821,-1.6152792)"
       id="text3054"
       style="font-weight:500;font-size:16px;font-family:Futura;-inkscape-font-specification:'Futura Medium';white-space:pre;shape-inside:url(#rect3056);fill:#fcfcff;stroke:#000000;stroke-width:0"
       inkscape:label="DIVIDE">
      <path
         d="m -78.554687,44.167492 v -12.0625 h 2.53125 q 1.820312,0 2.875,0.359375 1.132812,0.351563 2.054687,1.195313 1.867188,1.703125 1.867188,4.476562 0,2.78125 -1.945313,4.5 -0.976562,0.859375 -2.046875,1.195313 -1,0.335937 -2.835937,0.335937 z m 1.820312,-1.710937 h 0.820313 q 1.226562,0 2.039062,-0.257813 0.8125,-0.273437 1.46875,-0.867187 1.34375,-1.226563 1.34375,-3.195313 0,-1.984375 -1.328125,-3.21875 -1.195312,-1.101562 -3.523437,-1.101562 h -0.820313 z"
         id="path3060" />
      <path
         d="m -65.117187,32.104992 v 12.0625 H -66.9375 v -12.0625 z"
         id="path3062" />
      <path
         d="m -61.609375,32.104992 3.335938,8.359375 3.382812,-8.359375 h 1.992188 l -5.414063,12.96875 -5.289062,-12.96875 z"
         id="path3064" />
      <path
         d="m -49.578125,32.104992 v 12.0625 h -1.820312 v -12.0625 z"
         id="path3066" />
      <path
         d="m -46.679687,44.167492 v -12.0625 h 2.53125 q 1.820312,0 2.875,0.359375 1.132812,0.351563 2.054687,1.195313 1.867188,1.703125 1.867188,4.476562 0,2.78125 -1.945313,4.5 -0.976562,0.859375 -2.046875,1.195313 -1,0.335937 -2.835937,0.335937 z m 1.820312,-1.710937 h 0.820313 q 1.226562,0 2.039062,-0.257813 0.8125,-0.273437 1.46875,-0.867187 1.34375,-1.226563 1.34375,-3.195313 0,-1.984375 -1.328125,-3.21875 -1.195312,-1.101562 -3.523437,-1.101562 h -0.820313 z"
         id="path3068" />
      <path
         d="m -28.40625,33.81593 h -4.835937 v 2.898437 h 4.695312 v 1.710938 h -4.695312 v 4.03125 h 4.835937 v 1.710937 h -6.65625 v -12.0625 h 6.65625 z"
         id="path3070" />
    </g>
    <g
       aria-label="clock"
       id="text3075"
       style="font-weight:500;font-size:3.52778px;font-family:Futura;-inkscape-font-specification:'Futura Medium';fill:#fcfcff;stroke:#000000;stroke-width:0"
       inkscape:label="clock_input"
       transform="translate(0,3.7041668)">
      <path
         d="m 4.196127,28.557083 v 0.515042 q -0.1326363,-0.16192 -0.2377118,-0.222209 -0.1033529,-0.06201 -0.2428793,-0.06201 -0.2187637,0 -0.3634579,0.153307 -0.1446941,0.153307 -0.1446941,0.384129 0,0.235989 0.1395265,0.387573 0.141249,0.151585 0.3600127,0.151585 0.1395265,0 0.2463245,-0.06029 0.1033529,-0.05857 0.2428794,-0.227376 v 0.511597 q -0.2359892,0.122301 -0.4719784,0.122301 -0.389296,0 -0.6511235,-0.251492 -0.2618274,-0.253215 -0.2618274,-0.628731 0,-0.375515 0.2652725,-0.633898 0.2652726,-0.258382 0.6511235,-0.258382 0.248047,0 0.4685333,0.118856 z"
         id="path3183" />
      <path
         d="m 4.9592161,27.253113 v 2.909385 H 4.5716426 v -2.909385 z"
         id="path3185" />
      <path
         d="m 5.3709053,29.311559 q 0,-0.363457 0.2601049,-0.618395 0.2601049,-0.254937 0.633898,-0.254937 0.3755157,0 0.6373431,0.25666 0.2583823,0.25666 0.2583823,0.630453 0,0.377238 -0.2601049,0.632175 -0.2618274,0.253215 -0.6425107,0.253215 -0.3772382,0 -0.6321754,-0.258382 Q 5.3709053,29.69741 5.3709053,29.311559 Z m 0.3961863,0.0069 q 0,0.251492 0.1343588,0.397908 0.1378039,0.14814 0.3634578,0.14814 0.2273765,0 0.3634578,-0.146417 0.1360814,-0.146417 0.1360814,-0.391019 0,-0.244602 -0.1360814,-0.391018 -0.1378039,-0.14814 -0.3634578,-0.14814 -0.2222088,0 -0.3600127,0.14814 -0.1378039,0.148139 -0.1378039,0.382406 z"
         id="path3187" />
      <path
         d="m 8.8762923,28.557083 v 0.515042 q -0.1326363,-0.16192 -0.2377118,-0.222209 -0.1033529,-0.06201 -0.2428794,-0.06201 -0.2187637,0 -0.3634578,0.153307 -0.1446941,0.153307 -0.1446941,0.384129 0,0.235989 0.1395265,0.387573 0.141249,0.151585 0.3600127,0.151585 0.1395265,0 0.2463245,-0.06029 0.1033529,-0.05857 0.2428794,-0.227376 v 0.511597 q -0.2359892,0.122301 -0.4719784,0.122301 -0.3892961,0 -0.6511235,-0.251492 -0.2618274,-0.253215 -0.2618274,-0.628731 0,-0.375515 0.2652725,-0.633898 0.2652725,-0.258382 0.6511235,-0.258382 0.248047,0 0.4685333,0.118856 z"
         id="path3189" />
      <path
         d="m 9.7306766,27.253113 v 1.774226 l 0.5460484,-0.542603 h 0.520209 l -0.728638,0.704522 0.782037,0.97324 h -0.502984 l -0.5546606,-0.707967 -0.062012,0.06201 v 0.645955 H 9.3431031 v -2.909385 z"
         id="path3191" />
    </g>
    <g
       aria-label="2"
       transform="matrix(0.26458333,0,0,0.26458333,7.4083337,-2.1166667)"
       id="text3194"
       style="font-weight:500;font-size:13.3333px;font-family:Futura;-inkscape-font-specification:'Futura Medium';white-space:pre;shape-inside:url(#rect3196);fill:#fcfcff;stroke:#000000;stroke-width:0"
       inkscape:label="2">
      <path
         d="m 23.339835,170.38044 h 3.74348 v 1.42577 H 20.33203 l 3.489575,-4.22525 q 0.514322,-0.6315 0.859373,-1.09374 0.351561,-0.46224 0.533853,-0.77474 0.371092,-0.61198 0.371092,-1.10026 0,-0.70312 -0.49479,-1.17838 -0.49479,-0.47526 -1.223955,-0.47526 -1.523434,0 -1.744788,1.80338 h -1.510412 q 0.364582,-3.17707 3.209627,-3.17707 1.373694,0 2.304682,0.87239 0.937497,0.87239 0.937497,2.16145 0,0.82031 -0.436197,1.60807 -0.221353,0.41016 -0.65104,0.97656 -0.423176,0.5599 -1.074216,1.32812 z"
         id="path3804" />
    </g>
    <g
       aria-label="4"
       id="text3202"
       style="font-weight:500;font-size:3.52777px;font-family:Futura;-inkscape-font-specification:'Futura Medium';fill:#fcfcff;stroke:#000000;stroke-width:0"
       inkscape:label="4">
      <path
         d="m 14.005001,56.672169 h 0.282498 v 0.365179 h -0.282498 v 0.377237 H 13.603649 V 57.037348 H 12.29796 l 1.707041,-2.480463 z m -0.401352,0 v -0.890556 l -0.613226,0.890556 z"
         id="path3801" />
    </g>
    <g
       aria-label="8"
       id="text3206"
       style="font-weight:500;font-size:3.52777px;font-family:Futura;-inkscape-font-specification:'Futura Medium';fill:#fcfcff;stroke:#000000;stroke-width:0"
       inkscape:label="8">
      <path
         d="m 12.976643,71.171195 q -0.292832,-0.206705 -0.292832,-0.563272 0,-0.323838 0.222208,-0.540879 0.223931,-0.21704 0.556382,-0.21704 0.330728,0 0.551214,0.21704 0.220485,0.215318 0.220485,0.542601 0,0.342787 -0.29111,0.559827 0.160197,0.08613 0.251492,0.251492 0.09302,0.165364 0.09302,0.372069 0,0.353122 -0.230821,0.578775 -0.230821,0.225653 -0.590832,0.225653 -0.368625,0 -0.608058,-0.227376 -0.241156,-0.227375 -0.241156,-0.571884 0,-0.447862 0.360011,-0.627006 z m 0.08441,-0.564995 q 0,0.170532 0.11541,0.285943 0.117133,0.117133 0.282498,0.117133 0.163641,0 0.280774,-0.117133 0.117133,-0.117133 0.117133,-0.280775 0,-0.163642 -0.117133,-0.280775 -0.117133,-0.117133 -0.280774,-0.117133 -0.163642,0 -0.280775,0.117133 -0.117133,0.117133 -0.117133,0.275607 z m -0.04995,1.17822 q 0,0.184313 0.127468,0.316949 0.129191,0.130913 0.313503,0.130913 0.18259,0 0.311781,-0.129191 0.129191,-0.130913 0.129191,-0.313503 0,-0.184312 -0.129191,-0.313503 -0.129191,-0.129191 -0.311781,-0.129191 -0.180867,0 -0.31178,0.129191 -0.129191,0.129191 -0.129191,0.308335 z"
         id="path3807" />
    </g>
    <g
       aria-label="16"
       id="text3210"
       style="font-weight:500;font-size:3.52777px;font-family:Futura;-inkscape-font-specification:'Futura Medium';fill:#fcfcff;stroke:#000000;stroke-width:0"
       inkscape:label="16">
      <path
         d="M 11.658209,84.720767 H 11.19829 l 0.220485,-0.375515 h 0.640787 v 2.659608 h -0.401353 z"
         id="path3810" />
      <path
         d="m 13.95436,84.252235 0.294555,0.220485 -0.635619,0.864717 q 0.05168,-0.0069 0.08785,-0.01033 0.03617,-0.0034 0.05684,-0.0034 0.323838,0 0.559827,0.248046 0.234266,0.244602 0.234266,0.58911 0,0.36518 -0.261827,0.627006 -0.260104,0.260105 -0.625283,0.260105 -0.361735,0 -0.633896,-0.25666 -0.266995,-0.256659 -0.266995,-0.608058 0,-0.315225 0.260104,-0.668347 z m 0.206705,1.934417 q 0,-0.211873 -0.146416,-0.35829 -0.148139,-0.148138 -0.356566,-0.148138 -0.210151,0 -0.356567,0.146416 -0.146416,0.146416 -0.146416,0.354844 0,0.208428 0.146416,0.354844 0.146416,0.146416 0.358289,0.146416 0.206705,0 0.353122,-0.146416 0.148138,-0.148139 0.148138,-0.349676 z"
         id="path3812" />
    </g>
    <g
       aria-label="32"
       id="text3214"
       style="font-weight:500;font-size:3.52777px;font-family:Futura;-inkscape-font-specification:'Futura Medium';fill:#fcfcff;stroke:#000000;stroke-width:0"
       inkscape:label="32">
      <path
         d="m 11.413608,100.32187 v -0.34279 q 0.254937,0 0.342786,-0.05684 0.156752,-0.09991 0.156752,-0.320393 0,-0.170532 -0.113688,-0.277329 -0.111965,-0.108521 -0.29111,-0.108521 -0.167087,0 -0.258381,0.08096 -0.08785,0.08268 -0.130914,0.279052 h -0.39963 q 0.06201,-0.375515 0.254937,-0.549492 0.192924,-0.175699 0.539156,-0.175699 0.349676,0 0.570162,0.206705 0.220485,0.204983 0.220485,0.528821 0,0.36518 -0.289387,0.56844 0.330729,0.19465 0.330729,0.63217 0,0.35829 -0.241157,0.58567 -0.241156,0.22737 -0.618393,0.22737 -0.48059,0 -0.713133,-0.35312 -0.09646,-0.14814 -0.122301,-0.40996 h 0.387573 q 0.03101,0.19292 0.149861,0.29627 0.120578,0.10163 0.313503,0.10163 0.194647,0 0.322116,-0.12919 0.127468,-0.13263 0.127468,-0.33589 0,-0.26872 -0.191202,-0.38241 -0.111966,-0.0654 -0.346232,-0.0654 z"
         id="path3815" />
      <path
         d="m 13.561621,101.17969 h 0.990462 v 0.37724 h -1.786278 l 0.923284,-1.11793 q 0.136081,-0.16709 0.227376,-0.28939 0.09302,-0.1223 0.141248,-0.204981 0.09819,-0.161919 0.09819,-0.29111 0,-0.186034 -0.130913,-0.31178 -0.130913,-0.125746 -0.323838,-0.125746 -0.403076,0 -0.461642,0.477145 h -0.39963 q 0.09646,-0.840601 0.849214,-0.840601 0.363457,0 0.60978,0.23082 0.248047,0.230821 0.248047,0.571885 0,0.217041 -0.115411,0.425468 -0.05857,0.10852 -0.172254,0.25838 -0.111965,0.14814 -0.28422,0.3514 z"
         id="path3817" />
    </g>
  </g>
  <g
     inkscape:groupmode="layer"
     id="layer2"
     inkscape:label="components"
     style="display:none">
    <circle
       style="display:inline;fill:#00ff00;fill-opacity:1;stroke:none;stroke-width:6;stroke-linecap:square;stroke-linejoin:miter;stroke-miterlimit:4;stroke-dasharray:48, 6;stroke-dashoffset:0;stroke-opacity:1"
       id="circle1"
       cx="6.8791709"
       cy="26.10393"
       r="3.8789234"
       inkscape:label="CLOCK" />
    <circle
       r="3.8789234"
       style="display:inline;fill:#0000ff;fill-opacity:1;stroke:none;stroke-width:6;stroke-linecap:square;stroke-linejoin:miter;stroke-miterlimit:4;stroke-dasharray:48, 6;stroke-dashoffset:0;stroke-opacity:1"
       id="circle2"
       cx="22.149403"
       cy="41.525349"
       inkscape:label="DIVIDE_2" />
    <circle
       inkscape:label="DIVIDE_4"
       cy="56.14156"
       cx="22.149403"
       id="circle1855"
       style="display:inline;fill:#0000ff;fill-opacity:1;stroke:none;stroke-width:6;stroke-linecap:square;stroke-linejoin:miter;stroke-miterlimit:4;stroke-dasharray:48, 6;stroke-dashoffset:0;stroke-opacity:1"
       r="3.8789234" />
    <circle
       r="3.8789234"
       style="display:inline;fill:#0000ff;fill-opacity:1;stroke:none;stroke-width:6;stroke-linecap:square;stroke-linejoin:miter;stroke-miterlimit:4;stroke-dasharray:48, 6;stroke-dashoffset:0;stroke-opacity:1"
       id="circle1857"
       cx="22.149403"
       cy="70.698357"
       inkscape:label="DIVIDE_8" />
    <circle
       inkscape:label="DIVIDE_16"
       cy="85.222084"
       cx="22.149403"
       id="circle1859"
       style="display:inline;fill:#0000ff;fill-opacity:1;stroke:none;stroke-width:6;stroke-linecap:square;stroke-linejoin:miter;stroke-miterlimit:4;stroke-dasharray:48, 6;stroke-dashoffset:0;stroke-opacity:1"
       r="3.8789234" />
    <circle
       r="3.8789234"
       style="display:inline;fill:#0000ff;fill-opacity:1;stroke:none;stroke-width:6;stroke-linecap:square;stroke-linejoin:miter;stroke-miterlimit:4;stroke-dasharray:48, 6;stroke-dashoffset:0;stroke-opacity:1"
       id="circle1861"
       cx="22.149403"
       cy="99.802536"
       inkscape:label="DIVIDE_32" />
    <circle
       style="display:inline;fill:#ff00ff;fill-opacity:1;stroke:none;stroke-width:0.365;stroke-linecap:round;stroke-linejoin:miter;stroke-miterlimit:4;stroke-dasharray:none;stroke-dashoffset:0;stroke-opacity:1"
       id="circle3"
       cx="6.6679482"
       cy="42.003101"
       r="1.0222384"
       inkscape:label="LIGHT_2" />
    <circle
       inkscape:label="LIGHT_4"
       r="1.0222384"
       cy="56.290604"
       cx="6.6679482"
       id="circle1869"
       style="display:inline;fill:#ff00ff;fill-opacity:1;stroke:none;stroke-width:0.365;stroke-linecap:round;stroke-linejoin:miter;stroke-miterlimit:4;stroke-dasharray:none;stroke-dashoffset:0;stroke-opacity:1" />
    <circle
       style="display:inline;fill:#ff00ff;fill-opacity:1;stroke:none;stroke-width:0.365;stroke-linecap:round;stroke-linejoin:miter;stroke-miterlimit:4;stroke-dasharray:none;stroke-dashoffset:0;stroke-opacity:1"
       id="circle1871"
       cx="6.6679482"
       cy="71.107269"
       r="1.0222384"
       inkscape:label="LIGHT_8" />
    <circle
       inkscape:label="LIGHT_16"
       r="1.0222384"
       cy="85.640442"
       cx="6.6206994"
       id="circle1873"
       style="display:inline;fill:#ff00ff;fill-opacity:1;stroke:none;stroke-width:0.365;stroke-linecap:round;stroke-linejoin:miter;stroke-miterlimit:4;stroke-dasharray:none;stroke-dashoffset:0;stroke-opacity:1" />
    <circle
       style="display:inline;fill:#ff00ff;fill-opacity:1;stroke:none;stroke-width:0.365;stroke-linecap:round;stroke-linejoin:miter;stroke-miterlimit:4;stroke-dasharray:none;stroke-dashoffset:0;stroke-opacity:1"
       id="circle1875"
       cx="6.6679482"
       cy="100.2114"
       r="1.0222384"
       inkscape:label="LIGHT_32" />
  </g>
</svg>
