<?xml version="1.0" encoding="UTF-8" standalone="no"?>
<!-- Created with Inkscape (http://www.inkscape.org/) -->

<svg
   width="40.639999mm"
   height="128.5mm"
   viewBox="0 0 40.639999 128.5"
   version="1.1"
   id="svg5"
   inkscape:version="1.2 (dc2aeda, 2022-05-15)"
   sodipodi:docname="Multiplexr.svg"
   xmlns:inkscape="http://www.inkscape.org/namespaces/inkscape"
   xmlns:sodipodi="http://sodipodi.sourceforge.net/DTD/sodipodi-0.dtd"
   xmlns="http://www.w3.org/2000/svg"
   xmlns:svg="http://www.w3.org/2000/svg">
  <sodipodi:namedview
     id="namedview7"
     pagecolor="#505050"
     bordercolor="#eeeeee"
     borderopacity="1"
     inkscape:showpageshadow="0"
     inkscape:pageopacity="0"
     inkscape:pagecheckerboard="0"
     inkscape:deskcolor="#505050"
     inkscape:document-units="mm"
     showgrid="true"
     inkscape:zoom="1.5935929"
     inkscape:cx="80.635401"
     inkscape:cy="144.95547"
     inkscape:window-width="1280"
     inkscape:window-height="702"
     inkscape:window-x="0"
     inkscape:window-y="22"
     inkscape:window-maximized="0"
     inkscape:current-layer="layer1">
    <inkscape:grid
       type="xygrid"
       id="grid9"
       dotted="true"
       originx="0"
       originy="0" />
  </sodipodi:namedview>
  <defs
     id="defs2">
    <rect
       x="60"
       y="245"
       width="50.000001"
       height="15.000003"
       id="rect2983" />
    <rect
       x="40"
       y="30"
       width="100"
       height="20.000001"
       id="rect987" />
    <rect
       x="30"
       y="420"
       width="25"
       height="15"
       id="rect1092" />
    <rect
       x="100"
       y="225"
       width="30"
       height="15"
       id="rect981" />
    <rect
       x="10"
       y="415"
       width="35"
       height="15"
       id="rect1376" />
    <rect
       x="60"
       y="270"
       width="50"
       height="15"
       id="rect1069" />
    <rect
       x="65"
       y="285"
       width="0"
       height="20"
       id="rect1063" />
    <rect
       x="40"
       y="25"
       width="125"
       height="15.000001"
       id="rect971" />
    <rect
       x="35"
       y="205"
       width="35"
       height="15"
       id="rect289" />
    <rect
       x="35"
       y="215"
       width="45.000001"
       height="15.000003"
       id="rect4066" />
    <rect
       x="30"
       y="155"
       width="15"
       height="15"
       id="rect4027" />
    <rect
       x="25"
       y="115"
       width="15"
       height="20"
       id="rect3988" />
    <rect
       x="40"
       y="20"
       width="80.000002"
       height="20.000001"
       id="rect3982" />
    <rect
       x="55"
       y="255"
       width="50"
       height="15"
       id="rect3974" />
    <rect
       x="50"
       y="45"
       width="55"
       height="15"
       id="rect3918" />
    <rect
       x="25"
       y="10"
       width="105"
       height="15"
       id="rect3300" />
    <rect
       x="90"
       y="330"
       width="40"
       height="20"
       id="rect14743" />
    <rect
       x="90"
       y="230"
       width="40"
       height="20"
       id="rect14737" />
    <rect
       x="80"
       y="70"
       width="80"
       height="30"
       id="rect14629" />
    <rect
       x="50"
       y="30"
       width="140"
       height="40"
       id="rect11770" />
    <rect
       x="70"
       y="30"
       width="180"
       height="30.000002"
       id="rect11015" />
    <rect
       x="-180"
       y="360"
       width="150"
       height="30"
       id="rect10144" />
    <rect
       x="25"
       y="115"
       width="15"
       height="20"
       id="rect3988-1" />
    <rect
       x="30"
       y="155"
       width="15"
       height="15"
       id="rect4027-2" />
    <rect
       x="35"
       y="215"
       width="45"
       height="15.000003"
       id="rect4066-7" />
    <rect
       x="35"
       y="205"
       width="35"
       height="15"
       id="rect289-9" />
    <rect
       x="10"
       y="415"
       width="35"
       height="15"
       id="rect1376-9" />
  </defs>
  <g
     inkscape:label="Design"
     inkscape:groupmode="layer"
     id="layer1">
    <rect
       style="fill:#000000;fill-opacity:1;stroke:none;stroke-width:0;stroke-dasharray:none"
       id="rect63"
       width="40.745834"
       height="128.58749"
       x="0"
       y="0.52917224"
       ry="0"
       inkscape:label="background" />
    <path
       style="display:inline;fill:#5db2d5;fill-opacity:1;stroke:none;stroke-width:4.71737;stroke-linecap:square;stroke-linejoin:miter;stroke-miterlimit:4;stroke-dasharray:37.7388, 4.71737;stroke-dashoffset:0;stroke-opacity:1"
       d="M 9.2604167,66.145833 H 31.75 v 2.627121 H 9.2604167 Z"
       id="rect4252-5"
       inkscape:connector-curvature="0"
       inkscape:label="Section 2 Accent" />
    <g
       aria-label="momentary"
       transform="matrix(0.26458333,0,0,0.26458333,-11.91683,109.77596)"
       id="text11013"
       style="font-size:18.6667px;font-family:'Alt Retro Black';-inkscape-font-specification:'Alt Retro Black, ';white-space:pre;shape-inside:url(#rect11015);fill:#ffffff;stroke-width:0.944882"
       inkscape:label="momentary">
      <path
         d="m 86.669363,43.944025 q 0,0.504001 -0.186667,0.933335 -0.186667,0.429334 -0.522667,0.765335 -0.317334,0.317334 -0.765335,0.504001 -0.429334,0.186667 -0.914668,0.186667 -0.485334,0 -0.933335,-0.186667 -0.429334,-0.186667 -0.765335,-0.504001 -0.317334,-0.336001 -0.504001,-0.765335 -0.186667,-0.429334 -0.186667,-0.933335 v -5.936011 q 0,-0.056 -0.03733,-0.168 -0.01867,-0.130667 -0.07467,-0.242667 -0.03733,-0.07467 -0.112,-0.130667 -0.07467,-0.056 -0.354668,-0.056 -0.298667,0 -0.373334,0.056 -0.07467,0.056 -0.112,0.130667 -0.056,0.112 -0.09333,0.242667 -0.01867,0.130667 -0.01867,0.186667 v 5.917344 q 0,0.504001 -0.186667,0.933335 -0.186667,0.429334 -0.522668,0.765335 -0.317334,0.317334 -0.746668,0.504001 -0.429334,0.186667 -0.933335,0.186667 -0.485334,0 -0.933335,-0.186667 -0.429334,-0.186667 -0.746668,-0.504001 -0.317334,-0.336001 -0.504001,-0.765335 -0.186667,-0.429334 -0.186667,-0.933335 v -5.936011 q -0.01867,-0.056 -0.03733,-0.168 -0.01867,-0.130667 -0.07467,-0.242667 -0.03733,-0.07467 -0.130667,-0.130667 -0.07467,-0.056 -0.354667,-0.056 -0.298667,0 -0.373334,0.056 -0.07467,0.056 -0.112,0.130667 -0.056,0.112 -0.07467,0.242667 -0.01867,0.130667 -0.03733,0.186667 v 5.917344 q 0,0.504001 -0.186667,0.933335 -0.186667,0.429334 -0.522668,0.765335 -0.317334,0.317334 -0.746668,0.504001 -0.429334,0.186667 -0.914668,0.186667 -0.504001,0 -0.933335,-0.186667 Q 71.026669,45.960029 70.690668,45.642695 70.373334,45.306694 70.186667,44.87736 70,44.448026 70,43.944025 v -5.936011 q 0,-0.01867 0.01867,-0.410667 0.03733,-0.410667 0.186667,-1.008002 0.168,-0.597334 0.485334,-1.288002 0.336001,-0.690668 0.933335,-1.269336 0.597334,-0.597334 1.493336,-0.989335 0.914668,-0.392001 2.240004,-0.392001 0.952002,0 1.680003,0.205334 0.728001,0.205334 1.288002,0.560001 0.560001,-0.354667 1.288003,-0.560001 0.728001,-0.205334 1.698669,-0.205334 1.306669,0 2.202671,0.392001 0.914668,0.392001 1.512003,0.989335 0.597334,0.578668 0.914668,1.269336 0.336001,0.690668 0.485334,1.288002 0.168001,0.578668 0.205334,0.989335 0.03733,0.392001 0.03733,0.410668 z"
         style="stroke:#000000"
         id="path11749" />
      <path
         d="m 97.421355,40.97602 q 0,0.03733 -0.03733,0.429334 -0.01867,0.392001 -0.168,0.970668 -0.149333,0.560001 -0.466667,1.232003 -0.317334,0.672001 -0.896002,1.250668 -1.474669,1.47467 -3.78934,1.47467 -2.314671,0 -3.78934,-1.47467 Q 87.696008,44.280026 87.378674,43.608025 87.06134,42.936023 86.912007,42.376022 86.762673,41.797355 86.72534,41.405354 86.70667,41.013353 86.70667,40.97602 v -2.968006 q 0,-0.01867 0.01867,-0.410667 0.03733,-0.410667 0.186667,-1.008002 0.168,-0.597334 0.485334,-1.288002 0.336,-0.690668 0.933335,-1.269336 0.597334,-0.597334 1.493336,-0.989335 0.914668,-0.392001 2.240004,-0.392001 1.306669,0 2.202671,0.392001 0.914668,0.392001 1.512002,0.989335 0.597335,0.578668 0.914669,1.269336 0.336,0.690668 0.485334,1.288002 0.168,0.578668 0.205333,0.989335 0.03733,0.392001 0.03733,0.410668 z"
         style="stroke:#000000"
         id="path11751" />
      <path
         d="m 114.10936,43.944025 q 0,0.504001 -0.18666,0.933335 -0.18667,0.429334 -0.52267,0.765335 -0.31733,0.317334 -0.76534,0.504001 -0.42933,0.186667 -0.91466,0.186667 -0.48534,0 -0.93334,-0.186667 -0.42933,-0.186667 -0.76533,-0.504001 -0.31734,-0.336001 -0.504,-0.765335 -0.18667,-0.429334 -0.18667,-0.933335 v -5.936011 q 0,-0.056 -0.0373,-0.168 -0.0187,-0.130667 -0.0747,-0.242667 -0.0373,-0.07467 -0.112,-0.130667 -0.0747,-0.056 -0.35467,-0.056 -0.29867,0 -0.37333,0.056 -0.0747,0.056 -0.112,0.130667 -0.056,0.112 -0.0933,0.242667 -0.0187,0.130667 -0.0187,0.186667 v 5.917344 q 0,0.504001 -0.18667,0.933335 -0.18667,0.429334 -0.52267,0.765335 -0.31733,0.317334 -0.74667,0.504001 -0.42933,0.186667 -0.93333,0.186667 -0.48534,0 -0.93334,-0.186667 -0.42933,-0.186667 -0.74666,-0.504001 -0.31734,-0.336001 -0.50401,-0.765335 -0.18666,-0.429334 -0.18666,-0.933335 v -5.936011 q -0.0187,-0.056 -0.0373,-0.168 -0.0187,-0.130667 -0.0747,-0.242667 -0.0373,-0.07467 -0.13067,-0.130667 -0.0747,-0.056 -0.35467,-0.056 -0.29866,0 -0.37333,0.056 -0.0747,0.056 -0.112,0.130667 -0.056,0.112 -0.0747,0.242667 -0.0187,0.130667 -0.0373,0.186667 v 5.917344 q 0,0.504001 -0.18667,0.933335 -0.18666,0.429334 -0.52267,0.765335 -0.31733,0.317334 -0.74666,0.504001 -0.42934,0.186667 -0.914672,0.186667 -0.504001,0 -0.933335,-0.186667 -0.429334,-0.186667 -0.765335,-0.504001 -0.317333,-0.336001 -0.504,-0.765335 -0.186667,-0.429334 -0.186667,-0.933335 v -5.936011 q 0,-0.01867 0.01867,-0.410667 0.03733,-0.410667 0.186667,-1.008002 0.168001,-0.597334 0.485334,-1.288002 0.336001,-0.690668 0.933335,-1.269336 0.597335,-0.597334 1.493333,-0.989335 0.91467,-0.392001 2.24,-0.392001 0.95201,0 1.68001,0.205334 0.728,0.205334 1.288,0.560001 0.56,-0.354667 1.288,-0.560001 0.728,-0.205334 1.69867,-0.205334 1.30667,0 2.20267,0.392001 0.91467,0.392001 1.512,0.989335 0.59734,0.578668 0.91467,1.269336 0.336,0.690668 0.48534,1.288002 0.168,0.578668 0.20533,0.989335 0.0373,0.392001 0.0373,0.410668 z"
         style="stroke:#000000"
         id="path11753" />
      <path
         d="m 122.22933,41.573354 q 0.50401,0 0.93334,0.186667 0.42933,0.186667 0.74667,0.522668 0.336,0.317334 0.52267,0.746668 0.18666,0.429334 0.18666,0.914668 0,0.504001 -0.18666,0.933335 -0.18667,0.429334 -0.52267,0.765335 -0.31734,0.317334 -0.74667,0.504001 -0.42933,0.186667 -0.91467,0.186667 h -2.968 q -1.32534,0 -2.24001,-0.448001 -0.896,-0.448001 -1.49333,-1.120002 -0.59734,-0.672001 -0.93334,-1.456003 -0.31733,-0.784001 -0.48533,-1.456002 -0.14934,-0.672001 -0.18667,-1.120002 -0.0187,-0.466668 -0.0187,-0.485335 v -0.765334 -0.728002 q 0,-0.01867 0.0187,-0.466667 0.0373,-0.466668 0.18667,-1.138669 0.168,-0.690668 0.48533,-1.474669 0.336,-0.784002 0.93334,-1.456003 0.59733,-0.672001 1.49333,-1.120002 0.91467,-0.448001 2.24001,-0.448001 h 2.94933 q 0.50401,0 0.93334,0.186667 0.42933,0.186667 0.74667,0.522668 0.336,0.317334 0.52267,0.746668 0.18666,0.429334 0.18666,0.933335 0,0.485334 -0.18666,0.933335 -0.18667,0.429334 -0.52267,0.746668 -0.31734,0.317334 -0.74667,0.504001 -0.42933,0.186667 -0.91467,0.186667 h -1.064 q 0.54133,0.317334 0.87733,0.877335 0.33601,0.541334 0.33601,1.194669 0,0.672001 -0.33601,1.232002 -0.336,0.541334 -0.87733,0.858668 z"
         style="stroke:#000000"
         id="path11755" />
      <path
         d="m 132.98133,32.650671 q 0.504,0 0.93334,0.186667 0.42933,0.186667 0.74666,0.522668 0.336,0.317334 0.52267,0.746668 0.18667,0.429334 0.18667,0.914668 v 8.922683 q 0,0.802668 -0.46667,1.437336 -0.448,0.616001 -1.232,0.858668 -0.37333,0.09333 -0.69067,0.09333 -0.59733,0 -1.12,-0.280001 -0.52267,-0.28 -0.85867,-0.784001 l -1.58667,-2.370671 v 1.045335 q 0,0.504001 -0.18667,0.933335 -0.18666,0.429334 -0.52266,0.765335 -0.31734,0.317334 -0.74667,0.504001 -0.42934,0.186667 -0.91467,0.186667 -0.504,0 -0.93333,-0.186667 -0.42934,-0.186667 -0.76534,-0.504001 -0.31733,-0.336001 -0.504,-0.765335 -0.18667,-0.429334 -0.18667,-0.933335 v -8.922683 q 0,-0.784001 0.448,-1.400002 0.46667,-0.634668 1.25067,-0.877335 0.37334,-0.09333 0.69067,-0.09333 0.59734,0 1.12,0.280001 0.52267,0.28 0.85867,0.784001 l 1.58667,2.370671 v -1.064002 q 0,-0.485334 0.18667,-0.914668 0.18666,-0.429334 0.504,-0.746668 0.31733,-0.336001 0.74667,-0.522668 0.448,-0.186667 0.93333,-0.186667 z"
         style="stroke:#000000"
         id="path11757" />
      <path
         d="m 143.71466,32.650671 q 0.48534,0 0.91467,0.186667 0.448,0.186667 0.76533,0.522668 0.336,0.317334 0.52267,0.746668 0.18667,0.429334 0.18667,0.933335 0,0.485334 -0.18667,0.933335 -0.18667,0.429334 -0.52267,0.746668 -0.31733,0.317334 -0.76533,0.504001 -0.42933,0.186667 -0.91467,0.186667 h -0.59733 v 6.533345 q 0,0.504001 -0.18667,0.933335 -0.18667,0.429334 -0.52267,0.765335 -0.31733,0.317334 -0.74667,0.504001 -0.42933,0.186667 -0.91466,0.186667 -0.50401,0 -0.93334,-0.186667 -0.42933,-0.186667 -0.76533,-0.504001 -0.31734,-0.336001 -0.504,-0.765335 -0.18667,-0.429334 -0.18667,-0.933335 V 37.41068 h -0.57867 q -0.504,0 -0.93333,-0.186667 -0.42934,-0.186667 -0.76534,-0.504001 -0.31733,-0.317334 -0.504,-0.746668 -0.18667,-0.448001 -0.18667,-0.933335 0,-0.504001 0.18667,-0.933335 0.18667,-0.429334 0.504,-0.746668 0.336,-0.336001 0.76534,-0.522668 0.42933,-0.186667 0.93333,-0.186667 h 2.96801 z"
         style="stroke:#000000"
         id="path11759" />
      <path
         d="m 150.52797,32.650671 q 1.30667,0 2.22134,0.448001 0.91467,0.448001 1.512,1.120002 0.59734,0.672001 0.91467,1.456003 0.336,0.784001 0.48534,1.456003 0.168,0.672001 0.18666,1.138668 0.0373,0.448001 0.0373,0.466668 v 2.240004 2.968005 q 0,0.504001 -0.18667,0.933335 -0.18667,0.429334 -0.52267,0.765335 -0.31733,0.317334 -0.76533,0.504001 -0.42934,0.186667 -0.91467,0.186667 -0.48533,0 -0.93334,-0.186667 -0.42933,-0.186667 -0.76533,-0.504001 -0.31733,-0.336001 -0.504,-0.765335 -0.18667,-0.429334 -0.18667,-0.933335 v -0.578668 h -1.176 v 0.578668 q 0,0.504001 -0.18667,0.933335 -0.18666,0.429334 -0.52266,0.765335 -0.31734,0.317334 -0.74667,0.504001 -0.42934,0.186667 -0.91467,0.186667 -0.504,0 -0.93334,-0.186667 -0.42933,-0.186667 -0.76533,-0.504001 -0.31733,-0.336001 -0.504,-0.765335 -0.18667,-0.429334 -0.18667,-0.933335 V 40.97602 38.754682 q 0,-0.01867 0.0187,-0.466667 0.0373,-0.466668 0.18667,-1.138669 0.168,-0.672001 0.48533,-1.456002 0.336,-0.802669 0.93333,-1.47467 0.59734,-0.672001 1.49334,-1.120002 0.91467,-0.448001 2.24,-0.448001 z"
         style="stroke:#000000"
         id="path11761" />
      <path
         d="m 165.81597,40.901353 q 0.37334,0.560001 0.59734,1.306669 0.224,0.746668 0.224,1.736003 0,0.504001 -0.18667,0.933335 -0.18667,0.429334 -0.52267,0.765335 -0.31733,0.317334 -0.76533,0.504001 -0.42933,0.186667 -0.91467,0.186667 -0.48533,0 -0.93333,-0.186667 -0.42934,-0.186667 -0.76534,-0.504001 -0.31733,-0.336001 -0.504,-0.765335 -0.18667,-0.429334 -0.18667,-0.933335 0,-0.28 -0.056,-0.354667 -0.0373,-0.07467 -0.112,-0.112 -0.13066,-0.07467 -0.26133,-0.09333 -0.13067,-0.01867 -0.168,-0.01867 h -0.57867 v 0.578668 q 0,0.504001 -0.18667,0.933335 -0.18666,0.429334 -0.52266,0.765335 -0.31734,0.317334 -0.74667,0.504001 -0.42934,0.186667 -0.91467,0.186667 -0.504,0 -0.93333,-0.186667 -0.42934,-0.186667 -0.76534,-0.504001 -0.31733,-0.336001 -0.504,-0.765335 -0.18667,-0.429334 -0.18667,-0.933335 v -5.936011 q 0,-0.01867 0.0373,-0.410667 0.0373,-0.410667 0.18666,-1.008002 0.168,-0.597334 0.48534,-1.288002 0.336,-0.690668 0.93333,-1.269336 0.59734,-0.597334 1.49334,-0.989335 0.91467,-0.392001 2.22134,-0.392001 1.288,0 2.184,0.392001 0.896,0.392001 1.49334,0.970669 0.59733,0.578667 0.93333,1.269335 0.336,0.672001 0.504,1.269336 0.168,0.597334 0.20534,0.989335 0.0373,0.392001 0.0373,0.410667 0,0 -0.0187,0.261334 -0.0187,0.261334 -0.0933,0.690668 -0.0747,0.410667 -0.24267,0.952002 -0.168,0.522667 -0.46667,1.045335 z"
         style="stroke:#000000"
         id="path11763" />
      <path
         d="m 174.96263,32.688005 q 0.48534,0 0.91467,0.186667 0.42934,0.186667 0.74667,0.522667 0.336,0.317334 0.52267,0.746668 0.18667,0.429335 0.18667,0.914669 v 2.968005 q 0,0.01867 -0.0187,0.298667 -0.0187,0.261334 -0.112,0.709335 -0.0747,0.429334 -0.26134,0.970668 -0.168,0.541335 -0.504,1.082669 -0.336,0.541334 -0.84,1.026669 -0.504,0.485334 -1.232,0.802668 v 1.045335 q 0,0.485334 -0.18667,0.933335 -0.18666,0.429334 -0.52266,0.746668 -0.31734,0.317334 -0.74667,0.504001 -0.42934,0.186667 -0.91467,0.186667 -0.48534,0 -0.93334,-0.186667 -0.42933,-0.186667 -0.74666,-0.504001 -0.31734,-0.317334 -0.50401,-0.746668 -0.18666,-0.448001 -0.18666,-0.933335 v -1.045335 q -0.728,-0.317334 -1.232,-0.802668 -0.50401,-0.485335 -0.84001,-1.026669 -0.336,-0.541334 -0.52266,-1.082669 -0.168,-0.541334 -0.26134,-0.970668 -0.0747,-0.448001 -0.0933,-0.709335 -0.0187,-0.28 -0.0187,-0.298667 v -2.968005 q 0,-0.485334 0.18667,-0.914669 0.18667,-0.429334 0.504,-0.746668 0.31733,-0.336 0.74667,-0.522667 0.448,-0.186667 0.93333,-0.186667 0.48534,0 0.91467,0.186667 0.448,0.186667 0.76534,0.522667 0.336,0.317334 0.52266,0.746668 0.18667,0.429335 0.18667,0.914669 v 2.949338 q 0,0.01867 0.0187,0.149334 0.0187,0.130667 0.0747,0.261334 0.0373,0.09333 0.112,0.149333 0.0933,0.056 0.37334,0.056 0.29867,0 0.37333,-0.056 0.0747,-0.056 0.112,-0.149333 0.0747,-0.130667 0.0933,-0.261334 0.0187,-0.130667 0.0187,-0.149334 v -2.949338 q 0,-0.485334 0.18667,-0.914669 0.18667,-0.429334 0.504,-0.746668 0.31733,-0.336 0.74667,-0.522667 0.448,-0.186667 0.93333,-0.186667 z"
         style="stroke:#000000"
         id="path11765" />
    </g>
    <path
       style="display:inline;fill:#5db2d5;fill-opacity:1;stroke:none;stroke-width:4.70971;stroke-linecap:square;stroke-linejoin:miter;stroke-miterlimit:4;stroke-dasharray:37.6777, 4.70971;stroke-dashoffset:0;stroke-opacity:1"
       d="M 9.4917914,15.875 H 31.75 v 2.645833 H 9.4917914 Z"
       id="rect4252"
       inkscape:connector-curvature="0"
       inkscape:label="Section 1 Accent" />
    <g
       aria-label="in"
       transform="matrix(0.26458333,0,0,0.26458333,5.0890887,-2.2509412)"
       id="text1090"
       style="display:inline;font-weight:500;font-size:10.6667px;font-family:Futura;-inkscape-font-specification:'Futura Medium';white-space:pre;shape-inside:url(#rect1092);fill:#fafffa;stroke:#000000;stroke-width:0"
       inkscape:label="in_label">
      <path
         d="m 31.911464,424.37209 v 5.07293 h -1.171878 v -5.07293 z m -1.348962,-2.10938 q 0,-0.30729 0.223959,-0.53125 0.223959,-0.22396 0.53646,-0.22396 0.317709,0 0.541668,0.22396 0.223959,0.21875 0.223959,0.53646 0,0.31771 -0.223959,0.54167 -0.21875,0.22396 -0.53646,0.22396 -0.317709,0 -0.541668,-0.22396 -0.223959,-0.22396 -0.223959,-0.54688 z"
         id="path1146" />
      <path
         d="m 33.395844,424.37209 h 1.177087 v 0.46875 q 0.614585,-0.60937 1.385421,-0.60937 0.88542,0 1.380213,0.55729 0.427084,0.47396 0.427084,1.54688 v 3.10938 h -1.177087 v -2.83334 q 0,-0.75 -0.208334,-1.03646 -0.203125,-0.29167 -0.739585,-0.29167 -0.583335,0 -0.828128,0.38542 -0.239584,0.38021 -0.239584,1.32813 v 2.44792 h -1.177087 z"
         id="path1148" />
    </g>
    <g
       aria-label="out"
       transform="matrix(0.26458333,0,0,0.26458333,-0.52916667,-1.0583333)"
       id="text979"
       style="display:inline;font-weight:500;font-size:10.6667px;font-family:Futura;-inkscape-font-specification:'Futura Medium';white-space:pre;shape-inside:url(#rect981);fill:#fafffa;stroke:#000000;stroke-width:0"
       inkscape:label="out_label">
      <path
         d="m 100.5,231.8721 q 0,-1.09896 0.78646,-1.8698 0.78646,-0.77083 1.91668,-0.77083 1.13542,0 1.92708,0.77604 0.78126,0.77604 0.78126,1.90626 0,1.14063 -0.78646,1.91146 -0.79167,0.76563 -1.94272,0.76563 -1.14063,0 -1.91146,-0.78125 Q 100.5,233.03877 100.5,231.8721 Z m 1.19792,0.0208 q 0,0.76042 0.40625,1.20313 0.41667,0.44792 1.09897,0.44792 0.6875,0 1.09896,-0.44271 0.41146,-0.44271 0.41146,-1.1823 0,-0.73958 -0.41146,-1.18229 -0.41667,-0.44792 -1.09896,-0.44792 -0.67188,0 -1.08855,0.44792 -0.41667,0.44792 -0.41667,1.15625 z"
         id="path1151" />
      <path
         d="m 108.32294,229.37209 v 2.91147 q 0,1.26042 0.9948,1.26042 0.99479,0 0.99479,-1.26042 v -2.91147 h 1.17188 v 2.93751 q 0,0.60938 -0.15104,1.05209 -0.14583,0.39583 -0.50521,0.71354 -0.59375,0.51563 -1.51042,0.51563 -0.91146,0 -1.50522,-0.51563 -0.36458,-0.31771 -0.51562,-0.71354 -0.14584,-0.35417 -0.14584,-1.05209 v -2.93751 z"
         id="path1153" />
      <path
         d="m 114.17192,230.46585 v 3.97917 h -1.17188 v -3.97917 h -0.5 v -1.09376 h 0.5 v -1.85938 h 1.17188 v 1.85938 h 0.91146 v 1.09376 z"
         id="path1155" />
    </g>
    <g
       aria-label="MULTIPLEXR"
       transform="matrix(0.26458333,0,0,0.26458333,-2.1166667,-2.6458334)"
       id="text985"
       style="font-weight:500;font-size:16px;font-family:Futura;-inkscape-font-specification:'Futura Medium';white-space:pre;shape-inside:url(#rect987);display:inline;fill:#fcfcff;stroke:#000000;stroke-width:0"
       inkscape:label="Multiplexr">
      <path
         d="m 41.023437,44.167492 2.539063,-12.96875 4.140625,9.375 4.289062,-9.375 2.28125,12.96875 H 52.40625 l -1.164063,-7.28125 -3.570312,7.835938 -3.46875,-7.84375 -1.296875,7.289062 z"
         id="path3091" />
      <path
         d="m 58.648437,32.104992 v 7.265625 q 0,1.554688 0.507813,2.273438 0.757812,1.039062 2.132812,1.039062 1.382813,0 2.140625,-1.039062 0.507813,-0.695313 0.507813,-2.273438 v -7.265625 h 1.820312 v 7.765625 q 0,1.90625 -1.1875,3.140625 -1.335937,1.375 -3.28125,1.375 -1.945312,0 -3.273437,-1.375 -1.1875,-1.234375 -1.1875,-3.140625 v -7.765625 z"
         id="path3093" />
      <path
         d="m 70.46875,32.104992 v 10.351563 h 3.546875 v 1.710937 h -5.367188 v -12.0625 z"
         id="path3095" />
      <path
         d="M 78.289062,33.81593 V 44.167492 H 76.46875 V 33.81593 h -2.773438 v -1.710938 h 7.359375 v 1.710938 z"
         id="path3097" />
      <path
         d="m 84.5,32.104992 v 12.0625 h -1.820313 v -12.0625 z"
         id="path3099" />
      <path
         d="m 89.21875,39.269055 v 4.898437 h -1.820313 v -12.0625 h 2.0625 q 1.515625,0 2.289063,0.210938 0.78125,0.210937 1.375,0.796875 1.039062,1.015625 1.039062,2.5625 0,1.65625 -1.109375,2.625 -1.109375,0.96875 -2.992187,0.96875 z m 0,-1.6875 h 0.679687 q 2.507813,0 2.507813,-1.929688 0,-1.867187 -2.585938,-1.867187 H 89.21875 Z"
         id="path3101" />
      <path
         d="m 97.859375,32.104992 v 10.351563 h 3.546875 v 1.710937 h -5.367188 v -12.0625 z"
         id="path3103" />
      <path
         d="m 109.78906,33.81593 h -4.83593 v 2.898437 h 4.69531 v 1.710938 h -4.69531 v 4.03125 h 4.83593 v 1.710937 h -6.65625 v -12.0625 h 6.65625 z"
         id="path3105" />
      <path
         d="m 114.70313,37.862805 -3.32032,-5.757813 h 2.07032 l 2.30468,4.085938 2.42188,-4.085938 h 2.08594 l -3.47657,5.757813 3.64844,6.304687 h -2.03906 l -2.67188,-4.617187 -2.75,4.617187 h -2.0625 z"
         id="path3107" />
      <path
         d="m 126.14844,39.026867 3.73437,5.140625 h -2.22656 l -3.44531,-4.9375 h -0.32813 v 4.9375 h -1.82031 v -12.0625 h 2.13281 q 2.39063,0 3.45313,0.898438 1.17187,1 1.17187,2.640625 0,1.28125 -0.73437,2.203125 -0.73438,0.921875 -1.9375,1.179687 z m -2.26563,-1.382812 h 0.57813 q 2.58594,0 2.58594,-1.976563 0,-1.851562 -2.51563,-1.851562 h -0.64844 z"
         id="path3109" />
    </g>
    <g
       aria-label="mux"
       id="text2979"
       style="font-weight:500;font-size:3.52778px;font-family:Futura;-inkscape-font-specification:'Futura Medium';fill:#fcfcff;stroke:#000000;stroke-width:0"
       inkscape:label="mux"
       transform="translate(0.34313133,-1.473467)">
      <path
         d="m 16.913349,16.578488 h 0.387573 v 0.155029 q 0.111966,-0.117133 0.191203,-0.158474 0.08441,-0.04306 0.211874,-0.04306 0.28422,0 0.449585,0.248047 0.18259,-0.248047 0.494372,-0.248047 0.566718,0 0.566718,0.687297 v 1.036974 h -0.389296 v -0.931899 q 0,-0.241156 -0.05857,-0.341064 -0.06029,-0.101631 -0.198093,-0.101631 -0.160197,0 -0.234266,0.120579 -0.07235,0.120578 -0.07235,0.387573 v 0.866442 h -0.389296 v -0.926731 q 0,-0.447863 -0.258383,-0.447863 -0.163642,0 -0.239434,0.122301 -0.07407,0.122301 -0.07407,0.385851 v 0.866442 h -0.387573 z"
         id="path3123" />
      <path
         d="m 20.091452,16.578488 v 0.962905 q 0,0.416856 0.329006,0.416856 0.329007,0 0.329007,-0.416856 v -0.962905 h 0.387574 v 0.971517 q 0,0.201539 -0.04995,0.347955 -0.04823,0.130914 -0.167087,0.235989 -0.196371,0.170533 -0.49954,0.170533 -0.301446,0 -0.497816,-0.170533 -0.120579,-0.105075 -0.170532,-0.235989 -0.04823,-0.117133 -0.04823,-0.347955 v -0.971517 z"
         id="path3125" />
      <path
         d="M 22.146452,17.348467 21.54356,16.578488 h 0.461643 l 0.373793,0.489204 0.380684,-0.489204 h 0.475423 l -0.620118,0.769979 0.718303,0.907783 h -0.461643 l -0.492649,-0.627007 -0.504707,0.627007 h -0.473701 z"
         id="path3127" />
    </g>
    <g
       aria-label="demux"
       transform="matrix(0.26458333,0,0,0.26458333,-0.93188259,-0.86891463)"
       id="text2981"
       style="font-weight:500;font-size:13.3333px;font-family:Futura;-inkscape-font-specification:'Futura Medium';white-space:pre;shape-inside:url(#rect2983);display:inline;fill:#fcfcff;stroke:#000000;stroke-width:0"
       inkscape:label="demux">
      <path
         d="m 65.598944,245.81015 h 1.471351 v 10.99606 h -1.471351 v -0.66406 q -0.865883,0.84635 -1.95963,0.84635 -1.30208,0 -2.161453,-0.95051 -0.852863,-0.97005 -0.852863,-2.42187 0,-1.41927 0.852863,-2.36979 0.846352,-0.95703 2.128901,-0.95703 1.113278,0 1.992182,0.91146 z m -3.476554,7.80597 q 0,0.91145 0.48828,1.48437 0.501301,0.57942 1.263018,0.57942 0.8138,0 1.315101,-0.55989 0.501301,-0.57943 0.501301,-1.47135 0,-0.89193 -0.501301,-1.47135 -0.501301,-0.56641 -1.30208,-0.56641 -0.755206,0 -1.263018,0.57292 -0.501301,0.57943 -0.501301,1.43229 z"
         id="path3112" />
      <path
         d="m 74.693973,253.9807 h -4.544259 q 0.05859,0.78125 0.507811,1.24349 0.449218,0.45572 1.152341,0.45572 0.546874,0 0.904946,-0.26041 0.351561,-0.26042 0.800779,-0.96354 l 1.236976,0.6901 q -0.286458,0.48828 -0.605467,0.83984 -0.31901,0.34505 -0.683592,0.57292 -0.364583,0.22135 -0.787759,0.32552 -0.423176,0.10416 -0.917966,0.10416 -1.419267,0 -2.27864,-0.91145 -0.859373,-0.91797 -0.859373,-2.43489 0,-1.5039 0.833331,-2.43489 0.839842,-0.91797 2.226557,-0.91797 1.399736,0 2.213536,0.89193 0.80729,0.88541 0.80729,2.45442 z m -1.503902,-1.19791 q -0.305989,-1.17188 -1.477861,-1.17188 -0.266926,0 -0.501301,0.0846 -0.234374,0.0781 -0.429686,0.23437 -0.188802,0.14974 -0.32552,0.36459 -0.136719,0.21484 -0.208333,0.48828 z"
         id="path3114" />
      <path
         d="m 76.295532,250.46508 h 1.46484 v 0.58594 q 0.423176,-0.44271 0.722655,-0.59896 0.31901,-0.16276 0.800779,-0.16276 1.074216,0 1.699215,0.9375 0.690102,-0.9375 1.868484,-0.9375 2.141922,0 2.141922,2.59765 v 3.91926 h -1.47135 v -3.52212 q 0,-0.91146 -0.221354,-1.28906 -0.227864,-0.38412 -0.748696,-0.38412 -0.605467,0 -0.885414,0.45573 -0.273437,0.45573 -0.273437,1.46484 v 3.27473 h -1.471351 v -3.50259 q 0,-1.69271 -0.97656,-1.69271 -0.618488,0 -0.904945,0.46224 -0.279948,0.46224 -0.279948,1.45833 v 3.27473 h -1.46484 z"
         id="path3116" />
      <path
         d="m 88.307221,250.46508 v 3.63932 q 0,1.57551 1.243486,1.57551 1.243487,0 1.243487,-1.57551 v -3.63932 h 1.46484 v 3.67187 q 0,0.76172 -0.188802,1.3151 -0.182291,0.49479 -0.631509,0.89193 -0.742185,0.64452 -1.888016,0.64452 -1.13932,0 -1.881505,-0.64452 -0.455728,-0.39714 -0.64453,-0.89193 -0.182291,-0.44271 -0.182291,-1.3151 v -3.67187 z"
         id="path3118" />
      <path
         d="m 96.074128,253.37523 -2.278641,-2.91015 h 1.744788 l 1.412757,1.84896 1.438798,-1.84896 h 1.79687 l -2.343744,2.91015 2.714834,3.43098 h -1.744784 l -1.861974,-2.36978 -1.907548,2.36978 h -1.79036 z"
         id="path3120" />
    </g>
  </g>
  <g
     inkscape:groupmode="layer"
     id="layer2"
     inkscape:label="components"
     style="display:none">
    <circle
       inkscape:label="OUTPUT_LIGHT1"
       r="1.3229166"
       cy="96.308342"
       cx="13.758333"
       id="circle906-5-6"
       style="display:inline;fill:#ff00ff;fill-opacity:1;stroke:none;stroke-width:0.365;stroke-linecap:round;stroke-linejoin:miter;stroke-miterlimit:4;stroke-dasharray:none;stroke-dashoffset:0;stroke-opacity:1" />
    <circle
       inkscape:label="OUTPUT_LIGHT2"
       r="1.3229166"
       cy="82.020836"
       cx="14.022916"
       id="circle906-0"
       style="display:inline;fill:#ff00ff;fill-opacity:1;stroke:none;stroke-width:0.365;stroke-linecap:round;stroke-linejoin:miter;stroke-miterlimit:4;stroke-dasharray:none;stroke-dashoffset:0;stroke-opacity:1" />
    <circle
       inkscape:label="OUTPUT_LIGHT3"
       r="1.3229166"
       cy="82.549995"
       cx="27.78125"
       id="circle906"
       style="display:inline;fill:#ff00ff;fill-opacity:1;stroke:none;stroke-width:0.365;stroke-linecap:round;stroke-linejoin:miter;stroke-miterlimit:4;stroke-dasharray:none;stroke-dashoffset:0;stroke-opacity:1" />
    <circle
       inkscape:label="OUTPUT_LIGHT4"
       r="1.3229166"
       cy="96.308342"
       cx="26.987501"
       id="circle906-5"
       style="display:inline;fill:#ff00ff;fill-opacity:1;stroke:none;stroke-width:0.365;stroke-linecap:round;stroke-linejoin:miter;stroke-miterlimit:4;stroke-dasharray:none;stroke-dashoffset:0;stroke-opacity:1" />
    <ellipse
       style="display:inline;fill:#ff0000;fill-opacity:1;stroke:none;stroke-width:11.6962;stroke-linecap:square;stroke-linejoin:miter;stroke-miterlimit:4;stroke-dasharray:93.5696, 11.6962;stroke-dashoffset:0;stroke-opacity:1"
       id="OUTPUT1-4-9"
       cx="20.577332"
       cy="88.964577"
       inkscape:label="OUTPUT_SELECTOR"
       rx="7.348165"
       ry="7.7809105" />
    <circle
       r="3.8789234"
       style="display:inline;fill:#0000ff;fill-opacity:1;stroke:none;stroke-width:6;stroke-linecap:square;stroke-linejoin:miter;stroke-miterlimit:4;stroke-dasharray:48, 6;stroke-dashoffset:0;stroke-opacity:1"
       id="OUTPUT1"
       cx="9.5250006"
       cy="99.658142"
       inkscape:label="OUTPUT1" />
    <circle
       r="3.8789234"
       style="display:inline;fill:#0000ff;fill-opacity:1;stroke:none;stroke-width:6;stroke-linecap:square;stroke-linejoin:miter;stroke-miterlimit:4;stroke-dasharray:48, 6;stroke-dashoffset:0;stroke-opacity:1"
       id="OUTPUT1-4"
       cx="9.4648323"
       cy="78.381241"
       inkscape:label="OUTPUT2" />
    <circle
       r="3.8789234"
       cy="78.671074"
       cx="31.75"
       id="OUTPUT2-5"
       style="display:inline;fill:#0000ff;fill-opacity:1;stroke:none;stroke-width:6;stroke-linecap:square;stroke-linejoin:miter;stroke-miterlimit:4;stroke-dasharray:48, 6;stroke-dashoffset:0;stroke-opacity:1"
       inkscape:label="OUTPUT3" />
    <circle
       r="3.8789234"
       cy="99.947929"
       cx="31.810169"
       id="OUTPUT2"
       style="display:inline;fill:#0000ff;fill-opacity:1;stroke:none;stroke-width:6;stroke-linecap:square;stroke-linejoin:miter;stroke-miterlimit:4;stroke-dasharray:48, 6;stroke-dashoffset:0;stroke-opacity:1"
       inkscape:label="OUTPUT4" />
    <circle
       inkscape:label="INPUT_LIGHT1"
       r="1.3229166"
       cy="46.237503"
       cx="13.643744"
       id="circle906-5-6-3"
       style="display:inline;fill:#ff00ff;fill-opacity:1;stroke:none;stroke-width:0.365;stroke-linecap:round;stroke-linejoin:miter;stroke-miterlimit:4;stroke-dasharray:none;stroke-dashoffset:0;stroke-opacity:1" />
    <circle
       inkscape:label="INPUT_LIGHT2"
       r="1.3229166"
       cy="31.950012"
       cx="13.908327"
       id="circle906-0-5"
       style="display:inline;fill:#ff00ff;fill-opacity:1;stroke:none;stroke-width:0.365;stroke-linecap:round;stroke-linejoin:miter;stroke-miterlimit:4;stroke-dasharray:none;stroke-dashoffset:0;stroke-opacity:1" />
    <circle
       inkscape:label="INPUT_LIGHT3"
       r="1.3229166"
       cy="32.479172"
       cx="27.666662"
       id="circle906-02"
       style="display:inline;fill:#ff00ff;fill-opacity:1;stroke:none;stroke-width:0.365;stroke-linecap:round;stroke-linejoin:miter;stroke-miterlimit:4;stroke-dasharray:none;stroke-dashoffset:0;stroke-opacity:1" />
    <circle
       inkscape:label="INPUT_LIGHT4"
       r="1.3229166"
       cy="46.237503"
       cx="26.872913"
       id="circle906-5-3"
       style="display:inline;fill:#ff00ff;fill-opacity:1;stroke:none;stroke-width:0.365;stroke-linecap:round;stroke-linejoin:miter;stroke-miterlimit:4;stroke-dasharray:none;stroke-dashoffset:0;stroke-opacity:1" />
    <ellipse
       style="display:inline;fill:#ff0000;fill-opacity:1;stroke:none;stroke-width:11.6962;stroke-linecap:square;stroke-linejoin:miter;stroke-miterlimit:4;stroke-dasharray:93.5696, 11.6962;stroke-dashoffset:0;stroke-opacity:1"
       id="OUTPUT1-4-9-2"
       cx="20.462742"
       cy="38.893753"
       inkscape:label="INPUT_SELECTOR"
       rx="7.348165"
       ry="7.7809105" />
    <circle
       r="3.8789234"
       style="display:inline;fill:#00ff00;fill-opacity:1;stroke:none;stroke-width:6;stroke-linecap:square;stroke-linejoin:miter;stroke-miterlimit:4;stroke-dasharray:48, 6;stroke-dashoffset:0;stroke-opacity:1"
       id="OUTPUT1-7"
       cx="9.4104118"
       cy="49.58725"
       inkscape:label="INPUT1" />
    <circle
       r="3.8789234"
       style="display:inline;fill:#00ff00;fill-opacity:1;stroke:none;stroke-width:6;stroke-linecap:square;stroke-linejoin:miter;stroke-miterlimit:4;stroke-dasharray:48, 6;stroke-dashoffset:0;stroke-opacity:1"
       id="OUTPUT1-4-1"
       cx="9.3502436"
       cy="28.310417"
       inkscape:label="INPUT2" />
    <circle
       r="3.8789234"
       cy="28.60025"
       cx="31.635412"
       id="OUTPUT2-5-0"
       style="display:inline;fill:#00ff00;fill-opacity:1;stroke:none;stroke-width:6;stroke-linecap:square;stroke-linejoin:miter;stroke-miterlimit:4;stroke-dasharray:48, 6;stroke-dashoffset:0;stroke-opacity:1"
       inkscape:label="INPUT3" />
    <circle
       r="3.8789234"
       cy="49.877113"
       cx="31.695581"
       id="OUTPUT2-0"
       style="display:inline;fill:#00ff00;fill-opacity:1;stroke:none;stroke-width:6;stroke-linecap:square;stroke-linejoin:miter;stroke-miterlimit:4;stroke-dasharray:48, 6;stroke-dashoffset:0;stroke-opacity:1"
       inkscape:label="INPUT4" />
    <circle
       r="3.8789234"
       style="display:inline;fill:#0000ff;fill-opacity:1;stroke:none;stroke-width:6;stroke-linecap:square;stroke-linejoin:miter;stroke-miterlimit:4;stroke-dasharray:48, 6;stroke-dashoffset:0;stroke-opacity:1"
       id="OUTPUT1-7-6"
       cx="20.522911"
       cy="57.524754"
       inkscape:label="MUX_OUTPUT" />
    <circle
       r="3.8789234"
       style="display:inline;fill:#00ff00;fill-opacity:1;stroke:none;stroke-width:6;stroke-linecap:square;stroke-linejoin:miter;stroke-miterlimit:4;stroke-dasharray:48, 6;stroke-dashoffset:0;stroke-opacity:1"
       id="OUTPUT1-7-6-0"
       cx="20.522911"
       cy="108.06017"
       inkscape:label="DEMUX_INPUT" />
  </g>
</svg>
