<?xml version="1.0" encoding="UTF-8" standalone="no"?>
<!-- Created with Inkscape (http://www.inkscape.org/) -->

<svg
   width="40.639999mm"
   height="128.5mm"
   viewBox="0 0 40.639999 128.5"
   version="1.1"
   id="svg5"
   inkscape:version="1.2 (dc2aeda, 2022-05-15)"
   sodipodi:docname="Sequence.svg"
   xmlns:inkscape="http://www.inkscape.org/namespaces/inkscape"
   xmlns:sodipodi="http://sodipodi.sourceforge.net/DTD/sodipodi-0.dtd"
   xmlns="http://www.w3.org/2000/svg"
   xmlns:svg="http://www.w3.org/2000/svg">
  <sodipodi:namedview
     id="namedview7"
     pagecolor="#505050"
     bordercolor="#eeeeee"
     borderopacity="1"
     inkscape:showpageshadow="0"
     inkscape:pageopacity="0"
     inkscape:pagecheckerboard="0"
     inkscape:deskcolor="#505050"
     inkscape:document-units="mm"
     showgrid="true"
     inkscape:zoom="2.4982454"
     inkscape:cx="91.464194"
     inkscape:cy="72.85113"
     inkscape:window-width="1280"
     inkscape:window-height="702"
     inkscape:window-x="0"
     inkscape:window-y="22"
     inkscape:window-maximized="0"
     inkscape:current-layer="layer1">
    <inkscape:grid
       type="xygrid"
       id="grid9"
       dotted="true"
       originx="0"
       originy="0" />
  </sodipodi:namedview>
  <defs
     id="defs2">
    <rect
       x="50"
       y="420"
       width="40"
       height="20"
       id="rect980" />
    <rect
       x="25"
       y="0"
       width="105"
       height="20"
       id="rect1117" />
    <rect
       x="70"
       y="60"
       width="30"
       height="20"
       id="rect1111" />
    <rect
       x="70"
       y="50"
       width="40"
       height="20"
       id="rect1044" />
    <rect
       x="60"
       y="245"
       width="50.000001"
       height="15.000003"
       id="rect2983" />
    <rect
       x="40"
       y="30"
       width="100"
       height="20.000001"
       id="rect987" />
    <rect
       x="30"
       y="420"
       width="25"
       height="15"
       id="rect1092" />
    <rect
       x="100"
       y="225"
       width="30"
       height="15"
       id="rect981" />
    <rect
       x="10"
       y="415"
       width="35"
       height="15"
       id="rect1376" />
    <rect
       x="60"
       y="270"
       width="50"
       height="15"
       id="rect1069" />
    <rect
       x="65"
       y="285"
       width="0"
       height="20"
       id="rect1063" />
    <rect
       x="40"
       y="25"
       width="125"
       height="15.000001"
       id="rect971" />
    <rect
       x="35"
       y="205"
       width="35"
       height="15"
       id="rect289" />
    <rect
       x="35"
       y="215"
       width="45.000001"
       height="15.000003"
       id="rect4066" />
    <rect
       x="30"
       y="155"
       width="15"
       height="15"
       id="rect4027" />
    <rect
       x="25"
       y="115"
       width="15"
       height="20"
       id="rect3988" />
    <rect
       x="40"
       y="20"
       width="80.000002"
       height="20.000001"
       id="rect3982" />
    <rect
       x="55"
       y="255"
       width="50"
       height="15"
       id="rect3974" />
    <rect
       x="50"
       y="45"
       width="55"
       height="15"
       id="rect3918" />
    <rect
       x="25"
       y="10"
       width="105"
       height="15"
       id="rect3300" />
    <rect
       x="90"
       y="330"
       width="40"
       height="20"
       id="rect14743" />
    <rect
       x="90"
       y="230"
       width="40"
       height="20"
       id="rect14737" />
    <rect
       x="80"
       y="70"
       width="80"
       height="30"
       id="rect14629" />
    <rect
       x="50"
       y="30"
       width="140"
       height="40"
       id="rect11770" />
    <rect
       x="70"
       y="30"
       width="180"
       height="30.000002"
       id="rect11015" />
    <rect
       x="-180"
       y="360"
       width="150"
       height="30"
       id="rect10144" />
    <rect
       x="25"
       y="115"
       width="15"
       height="20"
       id="rect3988-1" />
    <rect
       x="30"
       y="155"
       width="15"
       height="15"
       id="rect4027-2" />
    <rect
       x="35"
       y="215"
       width="45"
       height="15.000003"
       id="rect4066-7" />
    <rect
       x="35"
       y="205"
       width="35"
       height="15"
       id="rect289-9" />
    <rect
       x="10"
       y="415"
       width="35"
       height="15"
       id="rect1376-9" />
  </defs>
  <g
     inkscape:label="Design"
     inkscape:groupmode="layer"
     id="layer1">
    <rect
       style="fill:#000000;fill-opacity:1;stroke:none;stroke-width:0;stroke-dasharray:none"
       id="rect63"
       width="40.745834"
       height="128.58749"
       x="0"
       y="0.52917224"
       ry="0"
       inkscape:label="background" />
    <g
       aria-label="momentary"
       transform="matrix(0.26458333,0,0,0.26458333,-11.91683,109.77596)"
       id="text11013"
       style="font-size:18.6667px;font-family:'Alt Retro Black';-inkscape-font-specification:'Alt Retro Black, ';white-space:pre;shape-inside:url(#rect11015);fill:#ffffff;stroke-width:0.944882"
       inkscape:label="momentary">
      <path
         d="m 86.669363,43.944025 q 0,0.504001 -0.186667,0.933335 -0.186667,0.429334 -0.522667,0.765335 -0.317334,0.317334 -0.765335,0.504001 -0.429334,0.186667 -0.914668,0.186667 -0.485334,0 -0.933335,-0.186667 -0.429334,-0.186667 -0.765335,-0.504001 -0.317334,-0.336001 -0.504001,-0.765335 -0.186667,-0.429334 -0.186667,-0.933335 v -5.936011 q 0,-0.056 -0.03733,-0.168 -0.01867,-0.130667 -0.07467,-0.242667 -0.03733,-0.07467 -0.112,-0.130667 -0.07467,-0.056 -0.354668,-0.056 -0.298667,0 -0.373334,0.056 -0.07467,0.056 -0.112,0.130667 -0.056,0.112 -0.09333,0.242667 -0.01867,0.130667 -0.01867,0.186667 v 5.917344 q 0,0.504001 -0.186667,0.933335 -0.186667,0.429334 -0.522668,0.765335 -0.317334,0.317334 -0.746668,0.504001 -0.429334,0.186667 -0.933335,0.186667 -0.485334,0 -0.933335,-0.186667 -0.429334,-0.186667 -0.746668,-0.504001 -0.317334,-0.336001 -0.504001,-0.765335 -0.186667,-0.429334 -0.186667,-0.933335 v -5.936011 q -0.01867,-0.056 -0.03733,-0.168 -0.01867,-0.130667 -0.07467,-0.242667 -0.03733,-0.07467 -0.130667,-0.130667 -0.07467,-0.056 -0.354667,-0.056 -0.298667,0 -0.373334,0.056 -0.07467,0.056 -0.112,0.130667 -0.056,0.112 -0.07467,0.242667 -0.01867,0.130667 -0.03733,0.186667 v 5.917344 q 0,0.504001 -0.186667,0.933335 -0.186667,0.429334 -0.522668,0.765335 -0.317334,0.317334 -0.746668,0.504001 -0.429334,0.186667 -0.914668,0.186667 -0.504001,0 -0.933335,-0.186667 Q 71.026669,45.960029 70.690668,45.642695 70.373334,45.306694 70.186667,44.87736 70,44.448026 70,43.944025 v -5.936011 q 0,-0.01867 0.01867,-0.410667 0.03733,-0.410667 0.186667,-1.008002 0.168,-0.597334 0.485334,-1.288002 0.336001,-0.690668 0.933335,-1.269336 0.597334,-0.597334 1.493336,-0.989335 0.914668,-0.392001 2.240004,-0.392001 0.952002,0 1.680003,0.205334 0.728001,0.205334 1.288002,0.560001 0.560001,-0.354667 1.288003,-0.560001 0.728001,-0.205334 1.698669,-0.205334 1.306669,0 2.202671,0.392001 0.914668,0.392001 1.512003,0.989335 0.597334,0.578668 0.914668,1.269336 0.336001,0.690668 0.485334,1.288002 0.168001,0.578668 0.205334,0.989335 0.03733,0.392001 0.03733,0.410668 z"
         style="stroke:#000000"
         id="path11749" />
      <path
         d="m 97.421355,40.97602 q 0,0.03733 -0.03733,0.429334 -0.01867,0.392001 -0.168,0.970668 -0.149333,0.560001 -0.466667,1.232003 -0.317334,0.672001 -0.896002,1.250668 -1.474669,1.47467 -3.78934,1.47467 -2.314671,0 -3.78934,-1.47467 Q 87.696008,44.280026 87.378674,43.608025 87.06134,42.936023 86.912007,42.376022 86.762673,41.797355 86.72534,41.405354 86.70667,41.013353 86.70667,40.97602 v -2.968006 q 0,-0.01867 0.01867,-0.410667 0.03733,-0.410667 0.186667,-1.008002 0.168,-0.597334 0.485334,-1.288002 0.336,-0.690668 0.933335,-1.269336 0.597334,-0.597334 1.493336,-0.989335 0.914668,-0.392001 2.240004,-0.392001 1.306669,0 2.202671,0.392001 0.914668,0.392001 1.512002,0.989335 0.597335,0.578668 0.914669,1.269336 0.336,0.690668 0.485334,1.288002 0.168,0.578668 0.205333,0.989335 0.03733,0.392001 0.03733,0.410668 z"
         style="stroke:#000000"
         id="path11751" />
      <path
         d="m 114.10936,43.944025 q 0,0.504001 -0.18666,0.933335 -0.18667,0.429334 -0.52267,0.765335 -0.31733,0.317334 -0.76534,0.504001 -0.42933,0.186667 -0.91466,0.186667 -0.48534,0 -0.93334,-0.186667 -0.42933,-0.186667 -0.76533,-0.504001 -0.31734,-0.336001 -0.504,-0.765335 -0.18667,-0.429334 -0.18667,-0.933335 v -5.936011 q 0,-0.056 -0.0373,-0.168 -0.0187,-0.130667 -0.0747,-0.242667 -0.0373,-0.07467 -0.112,-0.130667 -0.0747,-0.056 -0.35467,-0.056 -0.29867,0 -0.37333,0.056 -0.0747,0.056 -0.112,0.130667 -0.056,0.112 -0.0933,0.242667 -0.0187,0.130667 -0.0187,0.186667 v 5.917344 q 0,0.504001 -0.18667,0.933335 -0.18667,0.429334 -0.52267,0.765335 -0.31733,0.317334 -0.74667,0.504001 -0.42933,0.186667 -0.93333,0.186667 -0.48534,0 -0.93334,-0.186667 -0.42933,-0.186667 -0.74666,-0.504001 -0.31734,-0.336001 -0.50401,-0.765335 -0.18666,-0.429334 -0.18666,-0.933335 v -5.936011 q -0.0187,-0.056 -0.0373,-0.168 -0.0187,-0.130667 -0.0747,-0.242667 -0.0373,-0.07467 -0.13067,-0.130667 -0.0747,-0.056 -0.35467,-0.056 -0.29866,0 -0.37333,0.056 -0.0747,0.056 -0.112,0.130667 -0.056,0.112 -0.0747,0.242667 -0.0187,0.130667 -0.0373,0.186667 v 5.917344 q 0,0.504001 -0.18667,0.933335 -0.18666,0.429334 -0.52267,0.765335 -0.31733,0.317334 -0.74666,0.504001 -0.42934,0.186667 -0.914672,0.186667 -0.504001,0 -0.933335,-0.186667 -0.429334,-0.186667 -0.765335,-0.504001 -0.317333,-0.336001 -0.504,-0.765335 -0.186667,-0.429334 -0.186667,-0.933335 v -5.936011 q 0,-0.01867 0.01867,-0.410667 0.03733,-0.410667 0.186667,-1.008002 0.168001,-0.597334 0.485334,-1.288002 0.336001,-0.690668 0.933335,-1.269336 0.597335,-0.597334 1.493333,-0.989335 0.91467,-0.392001 2.24,-0.392001 0.95201,0 1.68001,0.205334 0.728,0.205334 1.288,0.560001 0.56,-0.354667 1.288,-0.560001 0.728,-0.205334 1.69867,-0.205334 1.30667,0 2.20267,0.392001 0.91467,0.392001 1.512,0.989335 0.59734,0.578668 0.91467,1.269336 0.336,0.690668 0.48534,1.288002 0.168,0.578668 0.20533,0.989335 0.0373,0.392001 0.0373,0.410668 z"
         style="stroke:#000000"
         id="path11753" />
      <path
         d="m 122.22933,41.573354 q 0.50401,0 0.93334,0.186667 0.42933,0.186667 0.74667,0.522668 0.336,0.317334 0.52267,0.746668 0.18666,0.429334 0.18666,0.914668 0,0.504001 -0.18666,0.933335 -0.18667,0.429334 -0.52267,0.765335 -0.31734,0.317334 -0.74667,0.504001 -0.42933,0.186667 -0.91467,0.186667 h -2.968 q -1.32534,0 -2.24001,-0.448001 -0.896,-0.448001 -1.49333,-1.120002 -0.59734,-0.672001 -0.93334,-1.456003 -0.31733,-0.784001 -0.48533,-1.456002 -0.14934,-0.672001 -0.18667,-1.120002 -0.0187,-0.466668 -0.0187,-0.485335 v -0.765334 -0.728002 q 0,-0.01867 0.0187,-0.466667 0.0373,-0.466668 0.18667,-1.138669 0.168,-0.690668 0.48533,-1.474669 0.336,-0.784002 0.93334,-1.456003 0.59733,-0.672001 1.49333,-1.120002 0.91467,-0.448001 2.24001,-0.448001 h 2.94933 q 0.50401,0 0.93334,0.186667 0.42933,0.186667 0.74667,0.522668 0.336,0.317334 0.52267,0.746668 0.18666,0.429334 0.18666,0.933335 0,0.485334 -0.18666,0.933335 -0.18667,0.429334 -0.52267,0.746668 -0.31734,0.317334 -0.74667,0.504001 -0.42933,0.186667 -0.91467,0.186667 h -1.064 q 0.54133,0.317334 0.87733,0.877335 0.33601,0.541334 0.33601,1.194669 0,0.672001 -0.33601,1.232002 -0.336,0.541334 -0.87733,0.858668 z"
         style="stroke:#000000"
         id="path11755" />
      <path
         d="m 132.98133,32.650671 q 0.504,0 0.93334,0.186667 0.42933,0.186667 0.74666,0.522668 0.336,0.317334 0.52267,0.746668 0.18667,0.429334 0.18667,0.914668 v 8.922683 q 0,0.802668 -0.46667,1.437336 -0.448,0.616001 -1.232,0.858668 -0.37333,0.09333 -0.69067,0.09333 -0.59733,0 -1.12,-0.280001 -0.52267,-0.28 -0.85867,-0.784001 l -1.58667,-2.370671 v 1.045335 q 0,0.504001 -0.18667,0.933335 -0.18666,0.429334 -0.52266,0.765335 -0.31734,0.317334 -0.74667,0.504001 -0.42934,0.186667 -0.91467,0.186667 -0.504,0 -0.93333,-0.186667 -0.42934,-0.186667 -0.76534,-0.504001 -0.31733,-0.336001 -0.504,-0.765335 -0.18667,-0.429334 -0.18667,-0.933335 v -8.922683 q 0,-0.784001 0.448,-1.400002 0.46667,-0.634668 1.25067,-0.877335 0.37334,-0.09333 0.69067,-0.09333 0.59734,0 1.12,0.280001 0.52267,0.28 0.85867,0.784001 l 1.58667,2.370671 v -1.064002 q 0,-0.485334 0.18667,-0.914668 0.18666,-0.429334 0.504,-0.746668 0.31733,-0.336001 0.74667,-0.522668 0.448,-0.186667 0.93333,-0.186667 z"
         style="stroke:#000000"
         id="path11757" />
      <path
         d="m 143.71466,32.650671 q 0.48534,0 0.91467,0.186667 0.448,0.186667 0.76533,0.522668 0.336,0.317334 0.52267,0.746668 0.18667,0.429334 0.18667,0.933335 0,0.485334 -0.18667,0.933335 -0.18667,0.429334 -0.52267,0.746668 -0.31733,0.317334 -0.76533,0.504001 -0.42933,0.186667 -0.91467,0.186667 h -0.59733 v 6.533345 q 0,0.504001 -0.18667,0.933335 -0.18667,0.429334 -0.52267,0.765335 -0.31733,0.317334 -0.74667,0.504001 -0.42933,0.186667 -0.91466,0.186667 -0.50401,0 -0.93334,-0.186667 -0.42933,-0.186667 -0.76533,-0.504001 -0.31734,-0.336001 -0.504,-0.765335 -0.18667,-0.429334 -0.18667,-0.933335 V 37.41068 h -0.57867 q -0.504,0 -0.93333,-0.186667 -0.42934,-0.186667 -0.76534,-0.504001 -0.31733,-0.317334 -0.504,-0.746668 -0.18667,-0.448001 -0.18667,-0.933335 0,-0.504001 0.18667,-0.933335 0.18667,-0.429334 0.504,-0.746668 0.336,-0.336001 0.76534,-0.522668 0.42933,-0.186667 0.93333,-0.186667 h 2.96801 z"
         style="stroke:#000000"
         id="path11759" />
      <path
         d="m 150.52797,32.650671 q 1.30667,0 2.22134,0.448001 0.91467,0.448001 1.512,1.120002 0.59734,0.672001 0.91467,1.456003 0.336,0.784001 0.48534,1.456003 0.168,0.672001 0.18666,1.138668 0.0373,0.448001 0.0373,0.466668 v 2.240004 2.968005 q 0,0.504001 -0.18667,0.933335 -0.18667,0.429334 -0.52267,0.765335 -0.31733,0.317334 -0.76533,0.504001 -0.42934,0.186667 -0.91467,0.186667 -0.48533,0 -0.93334,-0.186667 -0.42933,-0.186667 -0.76533,-0.504001 -0.31733,-0.336001 -0.504,-0.765335 -0.18667,-0.429334 -0.18667,-0.933335 v -0.578668 h -1.176 v 0.578668 q 0,0.504001 -0.18667,0.933335 -0.18666,0.429334 -0.52266,0.765335 -0.31734,0.317334 -0.74667,0.504001 -0.42934,0.186667 -0.91467,0.186667 -0.504,0 -0.93334,-0.186667 -0.42933,-0.186667 -0.76533,-0.504001 -0.31733,-0.336001 -0.504,-0.765335 -0.18667,-0.429334 -0.18667,-0.933335 V 40.97602 38.754682 q 0,-0.01867 0.0187,-0.466667 0.0373,-0.466668 0.18667,-1.138669 0.168,-0.672001 0.48533,-1.456002 0.336,-0.802669 0.93333,-1.47467 0.59734,-0.672001 1.49334,-1.120002 0.91467,-0.448001 2.24,-0.448001 z"
         style="stroke:#000000"
         id="path11761" />
      <path
         d="m 165.81597,40.901353 q 0.37334,0.560001 0.59734,1.306669 0.224,0.746668 0.224,1.736003 0,0.504001 -0.18667,0.933335 -0.18667,0.429334 -0.52267,0.765335 -0.31733,0.317334 -0.76533,0.504001 -0.42933,0.186667 -0.91467,0.186667 -0.48533,0 -0.93333,-0.186667 -0.42934,-0.186667 -0.76534,-0.504001 -0.31733,-0.336001 -0.504,-0.765335 -0.18667,-0.429334 -0.18667,-0.933335 0,-0.28 -0.056,-0.354667 -0.0373,-0.07467 -0.112,-0.112 -0.13066,-0.07467 -0.26133,-0.09333 -0.13067,-0.01867 -0.168,-0.01867 h -0.57867 v 0.578668 q 0,0.504001 -0.18667,0.933335 -0.18666,0.429334 -0.52266,0.765335 -0.31734,0.317334 -0.74667,0.504001 -0.42934,0.186667 -0.91467,0.186667 -0.504,0 -0.93333,-0.186667 -0.42934,-0.186667 -0.76534,-0.504001 -0.31733,-0.336001 -0.504,-0.765335 -0.18667,-0.429334 -0.18667,-0.933335 v -5.936011 q 0,-0.01867 0.0373,-0.410667 0.0373,-0.410667 0.18666,-1.008002 0.168,-0.597334 0.48534,-1.288002 0.336,-0.690668 0.93333,-1.269336 0.59734,-0.597334 1.49334,-0.989335 0.91467,-0.392001 2.22134,-0.392001 1.288,0 2.184,0.392001 0.896,0.392001 1.49334,0.970669 0.59733,0.578667 0.93333,1.269335 0.336,0.672001 0.504,1.269336 0.168,0.597334 0.20534,0.989335 0.0373,0.392001 0.0373,0.410667 0,0 -0.0187,0.261334 -0.0187,0.261334 -0.0933,0.690668 -0.0747,0.410667 -0.24267,0.952002 -0.168,0.522667 -0.46667,1.045335 z"
         style="stroke:#000000"
         id="path11763" />
      <path
         d="m 174.96263,32.688005 q 0.48534,0 0.91467,0.186667 0.42934,0.186667 0.74667,0.522667 0.336,0.317334 0.52267,0.746668 0.18667,0.429335 0.18667,0.914669 v 2.968005 q 0,0.01867 -0.0187,0.298667 -0.0187,0.261334 -0.112,0.709335 -0.0747,0.429334 -0.26134,0.970668 -0.168,0.541335 -0.504,1.082669 -0.336,0.541334 -0.84,1.026669 -0.504,0.485334 -1.232,0.802668 v 1.045335 q 0,0.485334 -0.18667,0.933335 -0.18666,0.429334 -0.52266,0.746668 -0.31734,0.317334 -0.74667,0.504001 -0.42934,0.186667 -0.91467,0.186667 -0.48534,0 -0.93334,-0.186667 -0.42933,-0.186667 -0.74666,-0.504001 -0.31734,-0.317334 -0.50401,-0.746668 -0.18666,-0.448001 -0.18666,-0.933335 v -1.045335 q -0.728,-0.317334 -1.232,-0.802668 -0.50401,-0.485335 -0.84001,-1.026669 -0.336,-0.541334 -0.52266,-1.082669 -0.168,-0.541334 -0.26134,-0.970668 -0.0747,-0.448001 -0.0933,-0.709335 -0.0187,-0.28 -0.0187,-0.298667 v -2.968005 q 0,-0.485334 0.18667,-0.914669 0.18667,-0.429334 0.504,-0.746668 0.31733,-0.336 0.74667,-0.522667 0.448,-0.186667 0.93333,-0.186667 0.48534,0 0.91467,0.186667 0.448,0.186667 0.76534,0.522667 0.336,0.317334 0.52266,0.746668 0.18667,0.429335 0.18667,0.914669 v 2.949338 q 0,0.01867 0.0187,0.149334 0.0187,0.130667 0.0747,0.261334 0.0373,0.09333 0.112,0.149333 0.0933,0.056 0.37334,0.056 0.29867,0 0.37333,-0.056 0.0747,-0.056 0.112,-0.149333 0.0747,-0.130667 0.0933,-0.261334 0.0187,-0.130667 0.0187,-0.149334 v -2.949338 q 0,-0.485334 0.18667,-0.914669 0.18667,-0.429334 0.504,-0.746668 0.31733,-0.336 0.74667,-0.522667 0.448,-0.186667 0.93333,-0.186667 z"
         style="stroke:#000000"
         id="path11765" />
    </g>
    <g
       aria-label="clk"
       transform="matrix(0.26458333,0,0,0.26458333,-2.6458334,0)"
       id="text1109"
       style="font-weight:500;font-size:13.3333px;font-family:Futura;-inkscape-font-specification:'Futura Medium';white-space:pre;shape-inside:url(#rect1111);fill:#fcfcff;stroke:#000000;stroke-width:0"
       inkscape:label="clock input label">
      <path
         d="m 75.85936,65.738521 v 1.946609 q -0.501301,-0.611977 -0.898435,-0.839841 -0.390624,-0.234375 -0.917966,-0.234375 -0.826821,0 -1.373695,0.579426 -0.546874,0.579425 -0.546874,1.451819 0,0.891925 0.527343,1.46484 0.533853,0.572915 1.360674,0.572915 0.527342,0 0.930987,-0.227864 0.390624,-0.221353 0.917966,-0.859372 v 1.933588 q -0.891925,0.462239 -1.783849,0.462239 -1.471351,0 -2.460932,-0.950519 -0.989581,-0.957028 -0.989581,-2.376296 0,-1.419267 1.002602,-2.395827 1.002602,-0.97656 2.460931,-0.97656 0.937498,0 1.770829,0.449218 z"
         id="path919" />
      <path
         d="m 78.743468,60.810148 v 10.996066 h -1.46484 V 60.810148 Z"
         id="path921" />
      <path
         d="m 82.063772,60.810148 v 6.705712 l 2.063796,-2.050776 h 1.966141 l -2.753899,2.662753 2.955722,3.678377 h -1.901037 l -2.096349,-2.675775 -0.234374,0.234375 v 2.4414 h -1.46484 V 60.810148 Z"
         id="path923" />
    </g>
    <g
       aria-label="SEQUENCE"
       transform="matrix(0.26458333,0,0,0.26458333,2.5218103,6.1113812)"
       id="text1115"
       style="font-weight:500;font-size:16px;font-family:Futura;-inkscape-font-specification:'Futura Medium';white-space:pre;shape-inside:url(#rect1117);fill:#fcfcff;stroke:#000000;stroke-width:0"
       inkscape:label="Sequence">
      <path
         d="m 33.265625,3.9018671 -1.476563,0.875 Q 31.375,4.0581171 31,3.8393671 q -0.390625,-0.25 -1.007813,-0.25 -0.757812,0 -1.257812,0.4296875 -0.5,0.421875 -0.5,1.0625 0,0.8828125 1.3125,1.421875 L 30.75,6.9956171 q 1.46875,0.59375 2.148437,1.453125 0.679688,0.8515625 0.679688,2.0937499 0,1.664063 -1.109375,2.75 -1.117188,1.09375 -2.773438,1.09375 -1.570312,0 -2.59375,-0.929687 -1.007812,-0.929688 -1.257812,-2.617188 l 1.84375,-0.40625 q 0.125,1.0625 0.4375,1.46875 0.5625,0.78125 1.640625,0.78125 0.851562,0 1.414062,-0.570312 0.5625,-0.570313 0.5625,-1.445313 0,-0.351562 -0.101562,-0.640625 -0.09375,-0.2968749 -0.304688,-0.5390624 -0.203125,-0.25 -0.53125,-0.4609375 -0.328125,-0.21875 -0.78125,-0.4140625 l -1.164062,-0.484375 q -2.476563,-1.046875 -2.476563,-3.0625 0,-1.359375 1.039063,-2.2734375 1.039062,-0.921875 2.585937,-0.921875 2.085938,0 3.257813,2.03125 z"
         id="path1121" />
      <path
         d="M 42.429687,3.8159296 H 37.59375 v 2.8984375 h 4.695312 V 8.4253046 H 37.59375 v 4.0312504 h 4.835937 v 1.710937 h -6.65625 V 2.1049921 h 6.65625 z"
         id="path1123" />
      <path
         d="m 57.09375,14.386242 h -2.289063 l -0.945312,-0.96875 q -1.507813,0.96875 -3.359375,0.96875 -2.398438,0 -4.257813,-1.625 -2.023437,-1.789062 -2.023437,-4.5703124 0,-2.7265625 1.914062,-4.546875 1.859375,-1.765625 4.390625,-1.765625 2.296875,0 4.117188,1.546875 2.1875,1.859375 2.1875,4.8515625 0,2.3437499 -1.726563,4.1640629 z m -5.007813,-4.9921874 1.75,1.7421874 q 1.15625,-1.2031249 1.15625,-2.9765624 0,-1.9453125 -1.289062,-3.2578125 -1.289063,-1.3125 -3.203125,-1.3125 -1.9375,0 -3.1875,1.3125 -1.257813,1.3046875 -1.257813,3.3046875 0,1.9531254 1.296875,3.1953124 1.351563,1.28125 3.085938,1.28125 1.179687,0 2.132812,-0.539062 L 49.734375,9.3940546 Z"
         id="path1125" />
      <path
         d="m 60.9375,2.1049921 v 7.265625 q 0,1.5546879 0.507812,2.2734379 0.757813,1.039062 2.132813,1.039062 1.382812,0 2.140625,-1.039062 0.507812,-0.695313 0.507812,-2.2734379 v -7.265625 h 1.820313 v 7.765625 q 0,1.9062499 -1.1875,3.1406249 -1.335938,1.375 -3.28125,1.375 -1.945313,0 -3.273438,-1.375 -1.1875,-1.234375 -1.1875,-3.1406249 v -7.765625 z"
         id="path1127" />
      <path
         d="m 77.59375,3.8159296 h -4.835938 v 2.8984375 h 4.695313 v 1.7109375 h -4.695313 v 4.0312504 h 4.835938 v 1.710937 H 70.9375 V 2.1049921 h 6.65625 z"
         id="path1129" />
      <path
         d="M 79.984375,14.167492 V 1.2846796 L 88.78125,10.487805 V 2.1049921 h 1.820312 V 14.901867 L 81.804687,5.7221796 v 8.4453124 z"
         id="path1131" />
      <path
         d="m 102.51563,2.7534296 v 2.15625 Q 100.9375,3.5893671 99.25,3.5893671 q -1.859375,0 -3.132813,1.3359375 -1.28125,1.328125 -1.28125,3.25 0,1.8984374 1.28125,3.2031254 1.28125,1.304687 3.140625,1.304687 0.960938,0 1.632818,-0.3125 0.375,-0.15625 0.77343,-0.421875 0.40625,-0.265625 0.85157,-0.640625 v 2.195313 q -1.5625,0.882812 -3.281255,0.882812 -2.585938,0 -4.414063,-1.804687 Q 93,10.761242 93,8.1909296 q 0,-2.3046875 1.523437,-4.109375 1.875,-2.2109375 4.851563,-2.2109375 1.625,0 3.14063,0.8828125 z"
         id="path1133" />
      <path
         d="m 111.46875,3.8159296 h -4.83594 v 2.8984375 h 4.69532 v 1.7109375 h -4.69532 v 4.0312504 h 4.83594 v 1.710937 H 104.8125 V 2.1049921 h 6.65625 z"
         id="path1135" />
    </g>
    <g
       aria-label="out "
       transform="matrix(0.26458333,0,0,0.26458333,6.2432094,-3.5149195)"
       id="text978"
       style="font-weight:500;font-size:13.3333px;font-family:Futura;-inkscape-font-specification:'Futura Medium';white-space:pre;shape-inside:url(#rect980);fill:#fcfcff;stroke:#000000;stroke-width:0"
       inkscape:label="output">
      <path
         d="m 50.624998,428.59008 q 0,-1.3737 0.983071,-2.33724 0.98307,-0.96354 2.395827,-0.96354 1.419267,0 2.408848,0.97005 0.97656,0.97005 0.97656,2.38281 0,1.42578 -0.98307,2.38932 -0.989581,0.95702 -2.428379,0.95702 -1.425778,0 -2.389317,-0.97656 -0.96354,-0.96353 -0.96354,-2.42186 z m 1.497392,0.026 q 0,0.95052 0.507812,1.5039 0.520832,0.55989 1.373694,0.55989 0.859373,0 1.373695,-0.55338 0.514321,-0.55338 0.514321,-1.47786 0,-0.92448 -0.514321,-1.47786 -0.520832,-0.5599 -1.373695,-0.5599 -0.839841,0 -1.360674,0.5599 -0.520832,0.55989 -0.520832,1.44531 z"
         id="path984" />
      <path
         d="m 60.403619,425.46508 v 3.63932 q 0,1.57551 1.243487,1.57551 1.243486,0 1.243486,-1.57551 v -3.63932 h 1.46484 v 3.67187 q 0,0.76172 -0.188802,1.3151 -0.182291,0.49479 -0.631508,0.89193 -0.742186,0.64452 -1.888016,0.64452 -1.13932,0 -1.881506,-0.64452 -0.455728,-0.39714 -0.64453,-0.89193 -0.182291,-0.44271 -0.182291,-1.3151 v -3.67187 z"
         id="path986" />
      <path
         d="m 67.714799,426.83227 v 4.97394 h -1.46484 v -4.97394 H 65.62496 v -1.36719 h 0.624999 v -2.32421 h 1.46484 v 2.32421 h 1.13932 v 1.36719 z"
         id="path988" />
    </g>
  </g>
  <g
     inkscape:groupmode="layer"
     id="layer2"
     inkscape:label="components"
     style="display:none">
    <circle
       inkscape:label="STEP_8_LED"
       r="1.3229166"
       cy="108.47916"
       cx="10.054167"
       id="circle906-5-6"
       style="display:inline;fill:#ff00ff;fill-opacity:1;stroke:none;stroke-width:0.365;stroke-linecap:round;stroke-linejoin:miter;stroke-miterlimit:4;stroke-dasharray:none;stroke-dashoffset:0;stroke-opacity:1" />
    <circle
       inkscape:label="STEP_7_LED"
       r="1.3229166"
       cy="98.425003"
       cx="29.897917"
       id="circle906-5"
       style="display:inline;fill:#ff00ff;fill-opacity:1;stroke:none;stroke-width:0.365;stroke-linecap:round;stroke-linejoin:miter;stroke-miterlimit:4;stroke-dasharray:none;stroke-dashoffset:0;stroke-opacity:1" />
    <circle
       inkscape:label="STEP_6_LED"
       r="1.3229166"
       cy="87.841667"
       cx="10.583333"
       id="circle906-0"
       style="display:inline;fill:#ff00ff;fill-opacity:1;stroke:none;stroke-width:0.365;stroke-linecap:round;stroke-linejoin:miter;stroke-miterlimit:4;stroke-dasharray:none;stroke-dashoffset:0;stroke-opacity:1" />
    <circle
       inkscape:label="STEP_5_LED"
       r="1.3229166"
       cy="78.316666"
       cx="29.897917"
       id="circle906"
       style="display:inline;fill:#ff00ff;fill-opacity:1;stroke:none;stroke-width:0.365;stroke-linecap:round;stroke-linejoin:miter;stroke-miterlimit:4;stroke-dasharray:none;stroke-dashoffset:0;stroke-opacity:1" />
    <circle
       inkscape:label="STEP_4_LED"
       r="1.3229166"
       cy="66.939583"
       cx="10.847918"
       id="circle906-5-6-3"
       style="display:inline;fill:#ff00ff;fill-opacity:1;stroke:none;stroke-width:0.365;stroke-linecap:round;stroke-linejoin:miter;stroke-miterlimit:4;stroke-dasharray:none;stroke-dashoffset:0;stroke-opacity:1" />
    <circle
       inkscape:label="STEP_3_LED"
       r="1.3229166"
       cy="56.356251"
       cx="30.1625"
       id="circle906-5-3"
       style="display:inline;fill:#ff00ff;fill-opacity:1;stroke:none;stroke-width:0.365;stroke-linecap:round;stroke-linejoin:miter;stroke-miterlimit:4;stroke-dasharray:none;stroke-dashoffset:0;stroke-opacity:1" />
    <circle
       inkscape:label="STEP_2_LED"
       r="1.3229166"
       cy="44.979168"
       cx="10.847918"
       id="circle906-02"
       style="display:inline;fill:#ff00ff;fill-opacity:1;stroke:none;stroke-width:0.365;stroke-linecap:round;stroke-linejoin:miter;stroke-miterlimit:4;stroke-dasharray:none;stroke-dashoffset:0;stroke-opacity:1" />
    <circle
       inkscape:label="STEP_1_LED"
       r="1.3229166"
       cy="34.395832"
       cx="30.427084"
       id="circle906-0-5"
       style="display:inline;fill:#ff00ff;fill-opacity:1;stroke:none;stroke-width:0.365;stroke-linecap:round;stroke-linejoin:miter;stroke-miterlimit:4;stroke-dasharray:none;stroke-dashoffset:0;stroke-opacity:1" />
    <circle
       r="3.8789234"
       style="display:inline;fill:#0000ff;fill-opacity:1;stroke:none;stroke-width:6;stroke-linecap:square;stroke-linejoin:miter;stroke-miterlimit:4;stroke-dasharray:48, 6;stroke-dashoffset:0;stroke-opacity:1"
       id="OUTPUT1-7-6"
       cx="29.633331"
       cy="109.36277"
       inkscape:label="SEQUENCE_OUT" />
    <circle
       r="3.8789234"
       style="display:inline;fill:#00ff00;fill-opacity:1;stroke:none;stroke-width:6;stroke-linecap:square;stroke-linejoin:miter;stroke-miterlimit:4;stroke-dasharray:48, 6;stroke-dashoffset:0;stroke-opacity:1"
       id="OUTPUT1-7-6-0"
       cx="10.758091"
       cy="17.991667"
       inkscape:label="CLOCK_IN" />
    <ellipse
       style="display:inline;fill:#ff0000;fill-opacity:1;stroke:none;stroke-width:8.08225;stroke-linecap:square;stroke-linejoin:miter;stroke-miterlimit:4;stroke-dasharray:64.6583, 8.08225;stroke-dashoffset:0;stroke-opacity:1"
       id="ellipse988"
       cx="10.318742"
       cy="98.425011"
       inkscape:label="STEP_8"
       rx="5.2916651"
       ry="5.1593676" />
    <ellipse
       style="display:inline;fill:#ff0000;fill-opacity:1;stroke:none;stroke-width:8.08225;stroke-linecap:square;stroke-linejoin:miter;stroke-miterlimit:4;stroke-dasharray:64.6583, 8.08225;stroke-dashoffset:0;stroke-opacity:1"
       id="ellipse986"
       cx="30.162506"
       cy="88.503136"
       inkscape:label="STEP_7"
       rx="5.2916651"
       ry="5.1593676" />
    <ellipse
       style="display:inline;fill:#ff0000;fill-opacity:1;stroke:none;stroke-width:8.08225;stroke-linecap:square;stroke-linejoin:miter;stroke-miterlimit:4;stroke-dasharray:64.6583, 8.08225;stroke-dashoffset:0;stroke-opacity:1"
       id="ellipse984"
       cx="10.583328"
       cy="77.787506"
       inkscape:label="STEP_6"
       rx="5.2916651"
       ry="5.1593676" />
    <ellipse
       style="display:inline;fill:#ff0000;fill-opacity:1;stroke:none;stroke-width:8.08225;stroke-linecap:square;stroke-linejoin:miter;stroke-miterlimit:4;stroke-dasharray:64.6583, 8.08225;stroke-dashoffset:0;stroke-opacity:1"
       id="ellipse982"
       cx="29.897923"
       cy="67.46875"
       inkscape:label="STEP_5"
       rx="5.2916651"
       ry="5.1593676" />
    <ellipse
       style="display:inline;fill:#ff0000;fill-opacity:1;stroke:none;stroke-width:8.08225;stroke-linecap:square;stroke-linejoin:miter;stroke-miterlimit:4;stroke-dasharray:64.6583, 8.08225;stroke-dashoffset:0;stroke-opacity:1"
       id="ellipse980"
       cx="10.847908"
       cy="56.356258"
       inkscape:label="STEP_4"
       rx="5.2916651"
       ry="5.1593676" />
    <ellipse
       style="display:inline;fill:#ff0000;fill-opacity:1;stroke:none;stroke-width:8.08225;stroke-linecap:square;stroke-linejoin:miter;stroke-miterlimit:4;stroke-dasharray:64.6583, 8.08225;stroke-dashoffset:0;stroke-opacity:1"
       id="ellipse969"
       cx="30.162506"
       cy="46.037506"
       inkscape:label="STEP_3"
       rx="5.2916651"
       ry="5.1593676" />
    <ellipse
       style="display:inline;fill:#ff0000;fill-opacity:1;stroke:none;stroke-width:8.08225;stroke-linecap:square;stroke-linejoin:miter;stroke-miterlimit:4;stroke-dasharray:64.6583, 8.08225;stroke-dashoffset:0;stroke-opacity:1"
       id="ellipse967"
       cx="10.847908"
       cy="35.45417"
       inkscape:label="STEP_2"
       rx="5.2916651"
       ry="5.1593676" />
    <ellipse
       style="display:inline;fill:#ff0000;fill-opacity:1;stroke:none;stroke-width:8.08225;stroke-linecap:square;stroke-linejoin:miter;stroke-miterlimit:4;stroke-dasharray:64.6583, 8.08225;stroke-dashoffset:0;stroke-opacity:1"
       id="OUTPUT1-4-9-2"
       cx="30.16251"
       cy="26.193756"
       inkscape:label="STEP_1"
       rx="5.2916651"
       ry="5.1593676" />
  </g>
</svg>
